<svg width="220" height="170" viewBox="0 0 220 170" fill="none" xmlns="http://www.w3.org/2000/svg">
<g clip-path="url(#clip0)">
<path d="M214.121 24.6227C233.423 82.2378 202.363 144.591 144.748 163.893C87.1329 183.195 24.7795 152.135 5.47784 94.5202C-13.8238 36.905 21.2954 64.7939 78.9105 45.4922C136.526 26.1905 194.819 -32.9925 214.121 24.6227Z" fill="url(#paint0_linear)"/>
<path d="M114.859 136.327C142.588 136.327 165.067 113.801 165.067 86.0129C165.067 58.225 142.588 35.6985 114.859 35.6985C87.1294 35.6985 64.6503 58.225 64.6503 86.0129C64.6503 113.801 87.1294 136.327 114.859 136.327Z" stroke="#3AD29F" stroke-width="2" stroke-miterlimit="10" stroke-dasharray="12 12"/>
<path d="M114.859 147C148.47 147 175.718 119.695 175.718 86.0129C175.718 52.3307 148.47 25.0258 114.859 25.0258C81.2475 25.0258 54 52.3307 54 86.0129C54 119.695 81.2475 147 114.859 147Z" stroke="#3AD29F" stroke-width="2" stroke-miterlimit="10" stroke-dasharray="12 12"/>
<path d="M155.59 105.442C155.591 102.016 154.316 98.7126 152.015 96.1787C149.713 93.6447 146.551 92.0625 143.147 91.7417C139.743 91.4209 136.342 92.3846 133.609 94.4442C130.877 96.5038 129.009 99.511 128.373 102.877L86.1791 101.731L86.6423 108.995C86.6423 108.995 80.6257 122.907 112.247 126.613V140.674H148.803V117.296C150.867 116.084 152.58 114.353 153.77 112.274C154.961 110.195 155.588 107.84 155.59 105.442Z" fill="url(#paint1_linear)"/>
<path d="M88.091 109.3C88.091 109.3 82.3297 122.622 112.612 126.176V139.648H147.621V103.972L87.6414 102.342L88.091 109.3Z" fill="#BE7C5E"/>
<path d="M105.588 53.705C104.675 55.1485 103.229 56.1713 101.566 56.55C99.9035 56.9287 98.1585 56.6325 96.7128 55.726L77.9159 43.3135C76.4754 42.3987 75.4547 40.9498 75.0769 39.2834C74.699 37.6169 74.9946 35.8683 75.8991 34.4195C76.8119 32.9779 78.2564 31.9564 79.9178 31.5778C81.5791 31.1992 83.3224 31.4942 84.7676 32.3985L103.565 44.811C105.006 45.7247 106.028 47.1731 106.407 48.8397C106.787 50.5062 106.492 52.2554 105.588 53.705Z" fill="url(#paint2_linear)"/>
<path d="M104.547 53.0273C103.698 54.3691 102.354 55.3198 100.808 55.6718C99.2627 56.0239 97.6407 55.7486 96.2969 54.9061L78.8185 43.3592C77.4796 42.5089 76.5309 41.1621 76.1796 39.6131C75.8283 38.0641 76.103 36.4387 76.9437 35.0921C77.7923 33.7503 79.1362 32.7996 80.6819 32.4475C82.2277 32.0955 83.8497 32.3708 85.1935 33.2133L102.668 44.7534C104.01 45.6032 104.961 46.951 105.313 48.5017C105.665 50.0524 105.389 51.6797 104.547 53.0273Z" fill="#BE7C5E"/>
<path d="M140.976 119.071C148.237 119.071 154.123 113.173 154.123 105.896C154.123 98.62 148.237 92.7214 140.976 92.7214C133.715 92.7214 127.829 98.62 127.829 105.896C127.829 113.173 133.715 119.071 140.976 119.071Z" fill="#BE7C5E"/>
<path d="M138.609 18.9999H88.245C87.1012 18.9999 86.1741 19.9291 86.1741 21.0752V115.514C86.1741 116.66 87.1012 117.589 88.245 117.589H138.609C139.753 117.589 140.68 116.66 140.68 115.514V21.0752C140.68 19.9291 139.753 18.9999 138.609 18.9999Z" fill="url(#paint3_linear)"/>
<path d="M137.635 20.3331H89.2153C87.9418 20.3331 86.9094 21.3677 86.9094 22.6439V113.948C86.9094 115.224 87.9418 116.259 89.2153 116.259H137.635C138.909 116.259 139.941 115.224 139.941 113.948V22.6439C139.941 21.3677 138.909 20.3331 137.635 20.3331Z" fill="white"/>
<path d="M126.805 23.042C126.651 24.0593 126.14 24.988 125.362 25.6601C124.585 26.3322 123.593 26.7033 122.566 26.7063H104.251C103.225 26.7029 102.234 26.3316 101.457 25.6595C100.68 24.9875 100.168 24.059 100.015 23.042H90.3112C90.0467 23.0418 89.7847 23.0938 89.5402 23.1951C89.2958 23.2964 89.0736 23.445 88.8865 23.6324C88.6993 23.8197 88.5509 24.0422 88.4496 24.2871C88.3483 24.532 88.2961 24.7945 88.2961 25.0596V112.136C88.2959 112.401 88.3478 112.663 88.4489 112.908C88.55 113.153 88.6983 113.376 88.8853 113.563C89.0722 113.751 89.2943 113.9 89.5387 114.001C89.7831 114.103 90.045 114.155 90.3096 114.155H136.654C136.918 114.155 137.18 114.103 137.425 114.002C137.669 113.901 137.891 113.752 138.078 113.565C138.266 113.377 138.414 113.155 138.515 112.91C138.617 112.665 138.669 112.402 138.669 112.137V25.0613C138.669 24.7962 138.617 24.5337 138.516 24.2887C138.415 24.0437 138.267 23.8211 138.08 23.6336C137.893 23.446 137.671 23.2972 137.426 23.1957C137.182 23.0942 136.92 23.042 136.655 23.042H126.805Z" fill="#282D35"/>
<path d="M130.007 68.1788C130.007 77.4955 122.469 85.042 113.178 85.042C103.887 85.042 96.3484 77.4955 96.3484 68.1788C96.3484 58.8622 103.887 51.3157 113.178 51.3157C122.469 51.3157 130.007 58.8622 130.007 68.1788Z" stroke="#F5ABBD" stroke-width="4"/>
<ellipse cx="113.178" cy="68.1789" rx="15.2988" ry="15.3263" fill="#E43F3F"/>
<path d="M109.128 61.1371L97.8839 56.9788C97.7872 58.7213 99.1064 59.6322 99.7781 59.8698C101.457 60.4507 105.178 61.7629 106.629 62.3649C108.08 62.9668 109.034 64.4374 109.33 65.0975L112.11 70.9588C111.936 69.0711 111.619 64.9629 111.425 63.6322C111.232 62.3015 109.813 61.4144 109.128 61.1371Z" fill="white"/>
<path d="M106.428 62.8797L99.6169 60.3847C100.197 62.349 101.417 63.2625 101.954 63.4738L109.128 66.1272C108.806 64.5114 107.194 63.2889 106.428 62.8797Z" fill="white"/>
<path d="M109.33 66.6024L102.478 64.147C102.607 65.5728 104.037 66.5892 104.735 66.9193L110.579 69.0183C110.324 68.4902 109.781 67.3549 109.652 67.0381C109.523 66.7213 109.383 66.6156 109.33 66.6024Z" fill="white"/>
<path d="M117.227 61.1371L128.472 56.9788C128.568 58.7213 127.249 59.6322 126.577 59.8698C124.898 60.4507 121.177 61.7629 119.726 62.3649C118.275 62.9668 117.321 64.4374 117.026 65.0975L114.245 70.9588C114.42 69.0711 114.737 64.9629 114.93 63.6322C115.124 62.3015 116.542 61.4144 117.227 61.1371Z" fill="white"/>
<path d="M119.928 62.8797L126.739 60.3847C126.158 62.349 124.938 63.2625 124.401 63.4738L117.227 66.1272C117.55 64.5114 119.162 63.2889 119.928 62.8797Z" fill="white"/>
<path d="M117.026 66.6024L123.877 64.147C123.748 65.5728 122.319 66.5892 121.62 66.9193L115.777 69.0183C116.032 68.4902 116.575 67.3549 116.704 67.0381C116.832 66.7213 116.972 66.6156 117.026 66.6024Z" fill="white"/>
<g filter="url(#filter0_d)">
<path d="M113.033 60.5634L112.881 61.0861V76.2557L113.033 76.4092L120.005 72.247L113.033 60.5634Z" fill="#B91A1A"/>
<path d="M113.033 60.5634L106.062 72.247L113.033 76.4093V69.0465V60.5634Z" fill="#F5ABBD"/>
<path d="M113.034 77.7426L112.948 77.8483V83.252L113.034 83.5051L120.009 73.5825L113.034 77.7426Z" fill="#B91A1A"/>
<path d="M113.033 83.505V77.7424L106.062 73.5823L113.033 83.505Z" fill="#F5ABBD"/>
<path d="M113.033 76.4093L120.005 72.2471L113.033 69.0465V76.4093Z" fill="#9D1D1D"/>
<path d="M106.062 72.2469L113.033 76.4092V69.0464L106.062 72.2469Z" fill="#9D1D1D"/>
</g>
<path d="M119.072 23.8857H107.929C107.743 23.8857 107.591 24.0374 107.591 24.2245V24.2872C107.591 24.4743 107.743 24.626 107.929 24.626H119.072C119.258 24.626 119.41 24.4743 119.41 24.2872V24.2245C119.41 24.0374 119.258 23.8857 119.072 23.8857Z" fill="#DBDBDB"/>
<path d="M121.92 24.626C122.165 24.626 122.363 24.4273 122.363 24.1821C122.363 23.937 122.165 23.7383 121.92 23.7383C121.676 23.7383 121.477 23.937 121.477 24.1821C121.477 24.4273 121.676 24.626 121.92 24.626Z" fill="#DBDBDB"/>
<path d="M149.474 108.221C145.659 109.105 143.04 106.611 142.157 102.789L133.39 70.1664C132.971 68.3233 133.297 66.389 134.296 64.7858C135.296 63.1826 136.887 62.0407 138.724 61.6095C140.563 61.1896 142.493 61.516 144.093 62.5174C145.693 63.5188 146.833 65.1139 147.263 66.9544L154.417 100.419C155.3 104.243 153.288 107.336 149.474 108.221Z" fill="url(#paint4_linear)"/>
<path d="M146.279 67.7529C145.535 64.5268 142.322 62.5157 139.103 63.2612C135.884 64.0066 133.877 67.2262 134.621 70.4523L142.682 105.417C143.426 108.643 146.639 110.654 149.858 109.909C153.078 109.163 155.085 105.944 154.341 102.718L146.279 67.7529Z" fill="#BE7C5E"/>
<path d="M154.067 135.24H104.028V146.929H154.067V135.24Z" fill="url(#paint5_linear)"/>
<path d="M152.715 136.595H105.38V145.743H152.715V136.595Z" fill="#4D8AF0"/>
<path d="M98.2918 88.7014C97.39 90.1277 95.9616 91.1384 94.3185 91.5127C92.6755 91.8869 90.9514 91.5943 89.523 90.6987L76.9168 82.5247C75.4934 81.6211 74.4848 80.1896 74.1114 78.5431C73.7379 76.8966 74.0299 75.1689 74.9236 73.7375C75.8254 72.3112 77.2538 71.3005 78.8969 70.9262C80.5399 70.552 82.264 70.8446 83.6924 71.7402L96.2986 79.9142C97.722 80.8178 98.7305 82.2493 99.104 83.8958C99.4775 85.5422 99.1854 87.2699 98.2918 88.7014Z" fill="url(#paint6_linear)"/>
<path d="M95.1271 106.003C94.2173 107.442 92.776 108.462 91.118 108.84C89.4601 109.218 87.7203 108.923 86.2789 108.019L78.4704 102.313C77.034 101.402 76.0161 99.9573 75.6391 98.2958C75.2622 96.6344 75.5568 94.8909 76.4586 93.4465C77.3684 92.0071 78.8098 90.9871 80.4677 90.6093C82.1257 90.2316 83.8654 90.5268 85.3068 91.4305L93.1154 97.1379C94.5513 98.0496 95.5688 99.4937 95.9458 101.155C96.3227 102.816 96.0284 104.559 95.1271 106.003Z" fill="url(#paint7_linear)"/>
<path d="M94.4966 105.578C93.6481 106.92 92.3042 107.87 90.7584 108.222C89.2126 108.574 87.5907 108.299 86.2468 107.457L78.9641 102.144C77.6251 101.294 76.6764 99.947 76.3251 98.398C75.9738 96.849 76.2485 95.2236 77.0893 93.8769C77.9378 92.5351 79.2817 91.5844 80.8275 91.2324C82.3732 90.8804 83.9952 91.1557 85.339 91.9982L92.6201 97.321C93.9565 98.1709 94.9037 99.5157 95.2551 101.062C95.6066 102.609 95.334 104.232 94.4966 105.578Z" fill="#BE7C5E"/>
<path d="M97.5986 88.2524C96.7501 89.5942 95.4061 90.5449 93.8604 90.8969C92.3146 91.2489 90.6927 90.9736 89.3488 90.1311L77.4881 82.44C76.1492 81.5897 75.2004 80.2429 74.8491 78.6939C74.4979 77.1449 74.7726 75.5196 75.6133 74.1729C76.4618 72.8311 77.8057 71.8804 79.3515 71.5284C80.8973 71.1763 82.5192 71.4516 83.8631 72.2941L95.7238 79.9853C97.0627 80.8356 98.0115 82.1823 98.3627 83.7313C98.714 85.2803 98.4393 86.9057 97.5986 88.2524Z" fill="#BE7C5E"/>
<path d="M101.551 71.481C100.645 72.9136 99.2098 73.9287 97.5593 74.3045C95.9087 74.6803 94.1768 74.3863 92.7418 73.4868L76.7664 63.0631C75.3368 62.155 74.3238 60.7169 73.9488 59.0628C73.5738 57.4088 73.8671 55.6732 74.7648 54.2352C75.671 52.8026 77.1061 51.7876 78.7567 51.4117C80.4072 51.0359 82.1391 51.3299 83.5741 52.2294L99.5496 62.6531C100.979 63.5613 101.992 64.9994 102.367 66.6534C102.742 68.3074 102.449 70.043 101.551 71.481Z" fill="url(#paint8_linear)"/>
<path d="M100.702 70.939C99.8539 72.2807 98.51 73.2315 96.9642 73.5835C95.4185 73.9355 93.7965 73.6602 92.4526 72.8177L77.4898 63.0547C76.1509 62.2044 75.2021 60.8576 74.8509 59.3086C74.4996 57.7596 74.7743 56.1342 75.615 54.7875C76.4635 53.4458 77.8075 52.4951 79.3532 52.143C80.899 51.791 82.5209 52.0663 83.8648 52.9088L98.8259 62.6718C100.165 63.5219 101.114 64.8685 101.466 66.4175C101.817 67.9665 101.543 69.5921 100.702 70.939Z" fill="#BE7C5E"/>
</g>
<defs>
<filter id="filter0_d" x="-21.938" y="-67.4366" width="269.947" height="278.942" filterUnits="userSpaceOnUse" color-interpolation-filters="sRGB">
<feFlood flood-opacity="0" result="BackgroundImageFix"/>
<feColorMatrix in="SourceAlpha" type="matrix" values="0 0 0 0 0 0 0 0 0 0 0 0 0 0 0 0 0 0 127 0"/>
<feOffset/>
<feGaussianBlur stdDeviation="64"/>
<feColorMatrix type="matrix" values="0 0 0 0 0.859383 0 0 0 0 0.83 0 0 0 0 1 0 0 0 1 0"/>
<feBlend mode="normal" in2="BackgroundImageFix" result="effect1_dropShadow"/>
<feBlend mode="normal" in="SourceGraphic" in2="effect1_dropShadow" result="shape"/>
</filter>
<linearGradient id="paint0_linear" x1="206.965" y1="-17.8926" x2="17.57" y2="118.154" gradientUnits="userSpaceOnUse">
<stop stop-color="#22C88A"/>
<stop offset="1" stop-color="#1BF2A0"/>
</linearGradient>
<linearGradient id="paint1_linear" x1="120.887" y1="140.683" x2="120.887" y2="91.683" gradientUnits="userSpaceOnUse">
<stop stop-color="#808080" stop-opacity="0.25"/>
<stop offset="0.54" stop-color="#808080" stop-opacity="0.12"/>
<stop offset="1" stop-color="#808080" stop-opacity="0.1"/>
</linearGradient>
<linearGradient id="paint2_linear" x1="14550.9" y1="7488.86" x2="14550.9" y2="3711.45" gradientUnits="userSpaceOnUse">
<stop stop-color="#808080" stop-opacity="0.25"/>
<stop offset="0.54" stop-color="#808080" stop-opacity="0.12"/>
<stop offset="1" stop-color="#808080" stop-opacity="0.1"/>
</linearGradient>
<linearGradient id="paint3_linear" x1="32287.1" y1="64501.7" x2="32287.1" y2="7126.86" gradientUnits="userSpaceOnUse">
<stop stop-color="#808080" stop-opacity="0.25"/>
<stop offset="0.54" stop-color="#808080" stop-opacity="0.12"/>
<stop offset="1" stop-color="#808080" stop-opacity="0.1"/>
</linearGradient>
<linearGradient id="paint4_linear" x1="16660" y1="28238.2" x2="16660" y2="15215.8" gradientUnits="userSpaceOnUse">
<stop stop-color="#808080" stop-opacity="0.25"/>
<stop offset="0.54" stop-color="#808080" stop-opacity="0.12"/>
<stop offset="1" stop-color="#808080" stop-opacity="0.1"/>
</linearGradient>
<linearGradient id="paint5_linear" x1="34287.7" y1="9794.17" x2="34287.7" y2="8987.62" gradientUnits="userSpaceOnUse">
<stop stop-color="#808080" stop-opacity="0.25"/>
<stop offset="0.54" stop-color="#808080" stop-opacity="0.12"/>
<stop offset="1" stop-color="#808080" stop-opacity="0.1"/>
</linearGradient>
<linearGradient id="paint6_linear" x1="11029.8" y1="10547.8" x2="11029.8" y2="7968.22" gradientUnits="userSpaceOnUse">
<stop stop-color="#808080" stop-opacity="0.25"/>
<stop offset="0.54" stop-color="#808080" stop-opacity="0.12"/>
<stop offset="1" stop-color="#808080" stop-opacity="0.1"/>
</linearGradient>
<linearGradient id="paint7_linear" x1="8905.26" y1="11286.1" x2="8905.26" y2="9254.14" gradientUnits="userSpaceOnUse">
<stop stop-color="#808080" stop-opacity="0.25"/>
<stop offset="0.54" stop-color="#808080" stop-opacity="0.12"/>
<stop offset="1" stop-color="#808080" stop-opacity="0.1"/>
</linearGradient>
<linearGradient id="paint8_linear" x1="12776.9" y1="9327.91" x2="12776.9" y2="6147.18" gradientUnits="userSpaceOnUse">
<stop stop-color="#808080" stop-opacity="0.25"/>
<stop offset="0.54" stop-color="#808080" stop-opacity="0.12"/>
<stop offset="1" stop-color="#808080" stop-opacity="0.1"/>
</linearGradient>
<clipPath id="clip0">
<rect width="219.699" height="169.576" fill="white" transform="translate(0.149902 0.045105)"/>
</clipPath>
</defs>
</svg>
