<svg width="220" height="172" viewBox="0 0 220 172" fill="none" xmlns="http://www.w3.org/2000/svg">
<path d="M214.121 24.6227C233.422 82.2379 202.363 144.591 144.748 163.893C87.1328 183.195 24.7794 152.135 5.47772 94.5203C-13.824 36.9051 21.2952 64.7939 78.9104 45.4923C136.526 26.1906 194.819 -32.9925 214.121 24.6227Z" fill="url(#paint0_linear)"/>
<g opacity="0.5">
<path opacity="0.5" d="M185.474 75.8747H163.719V67.5505C163.719 65.2381 162.801 63.0205 161.166 61.3854C159.531 59.7503 157.313 58.8317 155.001 58.8317H55.3937C53.2959 58.8317 51.2839 59.665 49.8006 61.1484C48.3172 62.6318 47.4838 64.6437 47.4838 66.7415V75.8796H44.2085C41.7686 75.8788 39.4281 76.8466 37.7014 78.5706C35.9747 80.2945 35.003 82.6334 35 85.0734V126.342C35.0018 128.663 35.8802 130.897 37.4593 132.598C39.0384 134.298 41.2016 135.34 43.5158 135.513V144.848H52.8144V135.541H64.5236V144.926H73.8222V135.541H157.506V144.926H166.805V135.541H174.554V144.84H183.863V135.541H185.538C186.63 135.541 187.711 135.326 188.72 134.909C189.728 134.491 190.645 133.879 191.417 133.107C192.189 132.335 192.801 131.418 193.219 130.41C193.637 129.401 193.852 128.32 193.852 127.228V84.2546C193.852 83.1542 193.636 82.0645 193.215 81.0479C192.794 80.0312 192.177 79.1074 191.399 78.3292C190.621 77.5511 189.697 76.9338 188.681 76.5126C187.664 76.0915 186.574 75.8747 185.474 75.8747ZM162.082 112.294V119.268H127.416C127.791 118.595 127.988 117.838 127.988 117.068V112.294H162.082Z" fill="url(#paint1_linear)"/>
</g>
<path d="M55.1087 132.053H46.1557V143.244H55.1087V132.053Z" fill="#1CC886"/>
<path d="M164.872 132.136H155.919V143.328H164.872V132.136Z" fill="#1CC886"/>
<path d="M181.287 132.053H172.333V143.244H181.287V132.053Z" fill="#1CC886"/>
<path d="M75.337 132.136H66.384V143.328H75.337V132.136Z" fill="#1CC886"/>
<path opacity="0.3" d="M55.1087 132.053H46.1557V143.244H55.1087V132.053Z" fill="black"/>
<path opacity="0.3" d="M164.872 132.136H155.919V143.328H164.872V132.136Z" fill="black"/>
<path opacity="0.3" d="M181.287 132.053H172.333V143.244H181.287V132.053Z" fill="black"/>
<path opacity="0.3" d="M75.337 132.136H66.384V143.328H75.337V132.136Z" fill="black"/>
<path d="M160.313 76.8392H182.837C184.977 76.8392 187.029 77.6892 188.542 79.202C190.055 80.7149 190.904 82.7668 190.904 84.9063V126.288C190.904 128.411 190.061 130.446 188.56 131.947C187.059 133.448 185.024 134.291 182.901 134.291H160.313V76.8392Z" fill="#1CC886"/>
<path opacity="0.3" d="M160.313 76.8392H182.837C184.977 76.8392 187.029 77.6892 188.542 79.202C190.055 80.7149 190.904 82.7668 190.904 84.9063V126.288C190.904 128.411 190.061 130.446 188.56 131.947C187.059 133.448 185.024 134.291 182.901 134.291H160.313V76.8392Z" fill="black"/>
<path d="M57.5849 60.425H100.706V111.908H49.9681V68.0401C49.9686 66.0203 50.7712 64.0834 52.1996 62.6554C53.628 61.2273 55.5651 60.425 57.5849 60.425Z" fill="#1CC886"/>
<path opacity="0.3" d="M57.8305 60.425H100.706V111.908H49.9681V68.2858C49.9681 67.2534 50.1715 66.231 50.5667 65.2772C50.9618 64.3234 51.541 63.4568 52.2711 62.7268C53.0012 61.9969 53.8679 61.4179 54.8218 61.0229C55.7757 60.628 56.7981 60.4248 57.8305 60.425Z" fill="black"/>
<path d="M69.2597 60.425H111.069V111.908H60.3312V69.3519C60.3312 66.9843 61.2717 64.7138 62.9458 63.0397C64.6199 61.3656 66.8905 60.425 69.258 60.425H69.2597Z" fill="#1CC886"/>
<path d="M110.823 60.425H153.492C155.719 60.425 157.855 61.3096 159.429 62.8843C161.004 64.4589 161.889 66.5945 161.889 68.8213V111.908H110.823V60.425Z" fill="#1CC886"/>
<path d="M174.49 76.8392H182.842C184.981 76.8405 187.032 77.691 188.543 79.2038C190.055 80.7165 190.904 82.7676 190.904 84.9063V126.288C190.904 128.411 190.061 130.446 188.56 131.947C187.059 133.448 185.024 134.291 182.901 134.291H174.49V76.8392Z" fill="#1CC886"/>
<path d="M174.489 118.622H71.5229V134.291H174.489V118.622Z" fill="#1CC886"/>
<path d="M95.1823 78.8591L83.9314 82.1384C78.9777 83.5823 76.1324 88.7686 77.5762 93.7224L81.3033 106.509C82.7472 111.463 87.9335 114.308 92.8872 112.864L104.138 109.585C109.092 108.141 111.937 102.955 110.493 98.0012L106.766 85.2143C105.322 80.2605 100.136 77.4152 95.1823 78.8591Z" fill="url(#paint2_linear)"/>
<path d="M94.5624 80.3865L84.0709 83.4445C79.4515 84.7909 76.7982 89.6273 78.1446 94.2467L81.6201 106.17C82.9665 110.79 87.8028 113.443 92.4223 112.097L102.914 109.039C107.533 107.692 110.186 102.856 108.84 98.2366L105.365 86.3128C104.018 81.6934 99.1818 79.0401 94.5624 80.3865Z" fill="#F55F44"/>
<path opacity="0.1" d="M94.5624 80.3865L84.0709 83.4445C79.4515 84.7909 76.7982 89.6273 78.1446 94.2467L81.6201 106.17C82.9665 110.79 87.8028 113.443 92.4223 112.097L102.914 109.039C107.533 107.692 110.186 102.856 108.84 98.2366L105.365 86.3128C104.018 81.6934 99.1818 79.0401 94.5624 80.3865Z" fill="black"/>
<path d="M95.1038 80.0061L84.6123 83.0641C79.9929 84.4105 77.3396 89.2468 78.686 93.8663L82.1615 105.79C83.5079 110.409 88.3442 113.063 92.9637 111.716L103.455 108.658C108.075 107.312 110.728 102.476 109.381 97.8561L105.906 85.9324C104.56 81.3129 99.7232 78.6596 95.1038 80.0061Z" fill="#F55F44"/>
<path d="M92.8598 90.3003C93.8711 89.589 94.1143 88.1926 93.4031 87.1813C92.6918 86.17 91.2954 85.9268 90.2841 86.6381C89.2728 87.3494 89.0295 88.7458 89.7408 89.7571C90.4521 90.7684 91.8485 91.0116 92.8598 90.3003Z" fill="url(#paint3_linear)"/>
<path d="M103.57 96.4494C104.582 95.7381 104.825 94.3417 104.114 93.3304C103.402 92.3191 102.006 92.0759 100.995 92.7872C99.9833 93.4985 99.7401 94.8949 100.451 95.9062C101.163 96.9175 102.559 97.1607 103.57 96.4494Z" fill="url(#paint4_linear)"/>
<path d="M86.9574 102.659C87.9687 101.947 88.2119 100.551 87.5007 99.5397C86.7894 98.5284 85.393 98.2852 84.3817 98.9965C83.3704 99.7078 83.1271 101.104 83.8384 102.115C84.5497 103.127 85.9461 103.37 86.9574 102.659Z" fill="url(#paint5_linear)"/>
<path d="M97.0565 109.238C98.0678 108.527 98.3111 107.131 97.5998 106.119C96.8885 105.108 95.4921 104.865 94.4808 105.576C93.4695 106.287 93.2263 107.684 93.9375 108.695C94.6488 109.706 96.0453 109.95 97.0565 109.238Z" fill="url(#paint6_linear)"/>
<path d="M92.4302 89.6895C93.1042 89.2155 93.2662 88.2849 92.7922 87.6109C92.3182 86.937 91.3876 86.7749 90.7136 87.2489C90.0397 87.7229 89.8776 88.6535 90.3516 89.3275C90.8256 90.0014 91.7562 90.1635 92.4302 89.6895Z" fill="#F99F8F"/>
<path d="M103.141 95.8386C103.815 95.3646 103.977 94.434 103.503 93.76C103.029 93.0861 102.098 92.924 101.424 93.398C100.75 93.872 100.588 94.8026 101.062 95.4766C101.536 96.1505 102.467 96.3126 103.141 95.8386Z" fill="#F99F8F"/>
<path d="M86.5279 102.048C87.2018 101.574 87.3639 100.643 86.8899 99.9693C86.4159 99.2954 85.4853 99.1333 84.8113 99.6073C84.1373 100.081 83.9753 101.012 84.4493 101.686C84.9233 102.36 85.8539 102.522 86.5279 102.048Z" fill="#F99F8F"/>
<path d="M96.6269 108.627C97.3009 108.153 97.463 107.223 96.9889 106.549C96.5149 105.875 95.5843 105.713 94.9104 106.187C94.2364 106.661 94.0743 107.592 94.5483 108.265C95.0224 108.939 95.953 109.101 96.6269 108.627Z" fill="#F99F8F"/>
<path d="M46.8124 76.8392H79.7292V134.291H46.8124C44.4616 134.291 42.2071 133.358 40.5447 131.696C38.8823 130.033 37.9482 127.779 37.9478 125.428V85.7038C37.9478 83.3528 38.8817 81.0981 40.5441 79.4356C42.2066 77.7732 44.4613 76.8392 46.8124 76.8392Z" fill="#1CC886"/>
<path opacity="0.3" d="M46.8746 76.8392H71.4705C72.5558 76.8392 73.6305 77.0531 74.6331 77.4686C75.6357 77.8842 76.5466 78.4932 77.3137 79.2609C78.0809 80.0287 78.6892 80.9401 79.1039 81.943C79.5186 82.9459 79.7317 84.0208 79.7308 85.1061V126.031C79.7308 128.222 78.8605 130.323 77.3114 131.872C75.7623 133.421 73.6613 134.291 71.4705 134.291H46.8746C44.507 134.291 42.2365 133.351 40.5624 131.677C38.8883 130.003 37.9478 127.732 37.9478 125.364V85.7612C37.9491 83.3945 38.8901 81.1252 40.5641 79.4521C42.2381 77.7791 44.5079 76.8392 46.8746 76.8392Z" fill="black"/>
<path opacity="0.1" d="M63.3985 76.8392H77.7754C78.5138 76.8392 79.2219 77.1325 79.744 77.6547C80.2661 78.1768 80.5595 78.8849 80.5595 79.6232V131.507C80.5595 132.246 80.2661 132.954 79.744 133.476C79.2219 133.998 78.5138 134.291 77.7754 134.291H63.3985V76.8392Z" fill="black"/>
<path d="M62.5699 76.8392H76.9468C77.6852 76.8392 78.3933 77.1325 78.9154 77.6547C79.4375 78.1768 79.7308 78.8849 79.7308 79.6232V131.507C79.7308 132.246 79.4375 132.954 78.9154 133.476C78.3933 133.998 77.6852 134.291 76.9468 134.291H62.5699V76.8392Z" fill="#1CC886"/>
<path d="M127.483 106.685H76.0002V120.863H127.483V106.685Z" fill="#1CC886"/>
<path d="M179.05 106.767H127.567V120.944H179.05V106.767Z" fill="#1CC886"/>
<path opacity="0.15" d="M123.127 106.685H80.3564C77.9506 106.685 76.0002 108.636 76.0002 111.042V116.506C76.0002 118.912 77.9506 120.863 80.3564 120.863H123.127C125.533 120.863 127.483 118.912 127.483 116.506V111.042C127.483 108.636 125.533 106.685 123.127 106.685Z" fill="white"/>
<path d="M133.493 80.6108C135.141 80.6108 136.477 79.2749 136.477 77.627C136.477 75.9791 135.141 74.6432 133.493 74.6432C131.845 74.6432 130.51 75.9791 130.51 77.627C130.51 79.2749 131.845 80.6108 133.493 80.6108Z" fill="#1CC886"/>
<path opacity="0.3" d="M133.493 80.6108C135.141 80.6108 136.477 79.2749 136.477 77.627C136.477 75.9791 135.141 74.6432 133.493 74.6432C131.845 74.6432 130.51 75.9791 130.51 77.627C130.51 79.2749 131.845 80.6108 133.493 80.6108Z" fill="black"/>
<path d="M87.2345 80.6108C88.8824 80.6108 90.2183 79.2749 90.2183 77.627C90.2183 75.9791 88.8824 74.6432 87.2345 74.6432C85.5866 74.6432 84.2507 75.9791 84.2507 77.627C84.2507 79.2749 85.5866 80.6108 87.2345 80.6108Z" fill="#1CC886"/>
<path opacity="0.3" d="M87.2345 80.6108C88.8824 80.6108 90.2183 79.2749 90.2183 77.627C90.2183 75.9791 88.8824 74.6432 87.2345 74.6432C85.5866 74.6432 84.2507 75.9791 84.2507 77.627C84.2507 79.2749 85.5866 80.6108 87.2345 80.6108Z" fill="black"/>
<path d="M85.741 61.8744C86.1535 61.8744 86.4878 61.3736 86.4878 60.7559C86.4878 60.1382 86.1535 59.6374 85.741 59.6374C85.3286 59.6374 84.9943 60.1382 84.9943 60.7559C84.9943 61.3736 85.3286 61.8744 85.741 61.8744Z" fill="#FDA57D"/>
<path opacity="0.15" d="M174.693 106.767H131.923C129.517 106.767 127.567 108.718 127.567 111.123V116.588C127.567 118.994 129.517 120.944 131.923 120.944H174.693C177.099 120.944 179.05 118.994 179.05 116.588V111.123C179.05 108.718 177.099 106.767 174.693 106.767Z" fill="white"/>
<g opacity="0.5">
<path opacity="0.5" d="M145.122 78.0659C144.78 76.1842 144.43 74.2813 143.648 72.5306C142.793 70.6075 141.453 68.9394 139.759 67.6897C139.507 67.4996 139.196 67.4066 138.881 67.4277C138.39 67.4703 138.239 67.7716 138.162 68.0828C138.152 68.1204 138.144 68.1564 138.138 68.1941C137.944 69.1489 138.074 70.0921 138.354 71.0223C138.703 72.1834 139.287 73.315 139.774 74.4385C140.65 76.4515 141.231 78.5806 141.498 80.7598C141.534 81.048 141.562 81.3445 141.569 81.6409C141.573 81.8173 141.569 81.9939 141.555 82.1698C141.534 82.5149 141.455 82.8541 141.323 83.1737C141.3 83.2261 141.275 83.2807 141.249 83.3375C141.223 83.3942 141.195 83.4445 141.164 83.4881C140.866 83.9794 140.401 84.3299 139.946 84.6754C139.49 85.021 138.975 85.3895 138.431 85.5761H138.449C138.196 85.6674 137.928 85.7113 137.66 85.7055C136.819 85.6793 135.924 85.003 135.079 85.1618L134.984 85.1831C134.119 85.4173 133.456 86.7766 133.449 87.6396C133.449 87.7084 133.449 87.775 133.449 87.8394C133.449 87.8623 133.449 87.8852 133.457 87.9082C133.465 87.9311 133.467 87.995 133.474 88.0359C133.48 88.0768 133.483 88.0867 133.49 88.1112C133.497 88.1358 133.505 88.1849 133.515 88.221C133.524 88.257 133.529 88.2717 133.538 88.2963C133.546 88.3209 133.559 88.3634 133.57 88.3962C133.582 88.4289 133.59 88.4453 133.6 88.4682C133.61 88.4912 133.626 88.5305 133.641 88.56L133.677 88.6287C133.693 88.6566 133.708 88.6861 133.726 88.7139L133.768 88.7794L133.824 88.858L133.872 88.9186L133.935 88.9907L133.988 89.0463L134.058 89.1135L134.116 89.1642L134.193 89.2265L134.253 89.274L134.337 89.3313L134.399 89.3739L134.491 89.4279L134.555 89.4639L134.658 89.5147L134.718 89.5442C134.767 89.5671 134.818 89.5884 134.869 89.608L134.943 89.6359L135.061 89.6785L135.146 89.7047L135.242 89.7341L135.337 89.7587L135.429 89.7816L135.531 89.8029L135.619 89.8209L135.725 89.839L135.811 89.8521L135.92 89.8668L136.002 89.8766L136.117 89.8864H136.197H136.315H136.39H136.513H136.77H136.905H136.952L137.096 89.875H137.124C137.533 89.8395 137.935 89.7508 138.321 89.6113C139.544 89.1479 140.583 88.3012 141.544 87.412C143.45 85.6515 145.252 83.4669 145.404 80.8761C145.463 79.941 145.291 78.9977 145.122 78.0659Z" fill="url(#paint7_linear)"/>
</g>
<path opacity="0.1" d="M137.06 77.4435H121.622V81.9127H137.06V77.4435Z" fill="black"/>
<path d="M137.06 77.4435H121.622V81.5066H137.06V77.4435Z" fill="#1CC886"/>
<path d="M130.56 77.9856C131.906 77.9856 132.997 76.8946 132.997 75.5488C132.997 74.2029 131.906 73.1119 130.56 73.1119C129.214 73.1119 128.123 74.2029 128.123 75.5488C128.123 76.8946 129.214 77.9856 130.56 77.9856Z" fill="#1CC886"/>
<path d="M125.965 79.299L125.936 79.2695C125.991 79.2277 126.036 79.1736 126.067 79.1115C126.097 79.0494 126.114 78.981 126.114 78.9117C126.114 78.8424 126.097 78.774 126.067 78.7119C126.036 78.6498 125.991 78.5957 125.936 78.5539L125.962 78.5211C126.021 78.567 126.069 78.6259 126.102 78.6932C126.135 78.7604 126.152 78.8343 126.152 78.9092C126.152 78.9841 126.135 79.0581 126.102 79.1253C126.069 79.1926 126.021 79.2514 125.962 79.2974L125.965 79.299Z" fill="#4D8AF0"/>
<path opacity="0.1" d="M125.965 79.299L125.936 79.2695C125.991 79.2277 126.036 79.1736 126.067 79.1115C126.097 79.0494 126.114 78.981 126.114 78.9117C126.114 78.8424 126.097 78.774 126.067 78.7119C126.036 78.6498 125.991 78.5957 125.936 78.5539L125.962 78.5211C126.021 78.567 126.069 78.6259 126.102 78.6932C126.135 78.7604 126.152 78.8343 126.152 78.9092C126.152 78.9841 126.135 79.0581 126.102 79.1253C126.069 79.1926 126.021 79.2514 125.962 79.2974L125.965 79.299Z" fill="black"/>
<path d="M125.936 79.299C125.876 79.2531 125.828 79.1942 125.796 79.127C125.763 79.0597 125.745 78.9858 125.745 78.9109C125.745 78.836 125.763 78.7621 125.796 78.6948C125.828 78.6275 125.876 78.5687 125.936 78.5228L125.962 78.5555C125.906 78.5974 125.862 78.6514 125.831 78.7135C125.8 78.7756 125.784 78.844 125.784 78.9133C125.784 78.9827 125.8 79.0511 125.831 79.1132C125.862 79.1753 125.906 79.2293 125.962 79.2712L125.936 79.299Z" fill="#4D8AF0"/>
<path d="M138.419 92.41C139.538 91.9859 140.486 91.2113 141.367 90.399C143.11 88.7908 144.754 86.7962 144.895 84.4265C144.945 83.5618 144.79 82.7004 144.634 81.8472C144.321 80.1276 144.002 78.3885 143.293 76.7901C142.511 75.0335 141.287 73.5099 139.739 72.3684C139.509 72.1942 139.223 72.1093 138.935 72.1293C138.444 72.1736 138.319 72.5109 138.254 72.8335C137.856 74.7987 138.948 76.7049 139.747 78.5391C140.548 80.3785 141.079 82.324 141.323 84.3151C141.426 85.1601 141.464 86.074 141.018 86.8011C140.746 87.2465 140.321 87.5708 139.905 87.8852C139.282 88.3552 138.595 88.8481 137.815 88.8252C137.036 88.8023 136.164 88.1325 135.359 88.3487C134.553 88.5648 133.962 89.8045 133.957 90.5988C133.947 92.7507 136.923 92.9767 138.419 92.41Z" fill="#FFD180"/>
<g opacity="0.1">
<path opacity="0.1" d="M141.015 86.8011C140.743 87.2465 140.317 87.5708 139.901 87.8852C139.485 88.2287 139.018 88.505 138.516 88.704C139.223 88.6565 139.857 88.2127 140.432 87.7722C140.848 87.4578 141.274 87.1319 141.546 86.6881C141.989 85.9626 141.953 85.0504 141.85 84.2021C141.606 82.211 141.075 80.2655 140.275 78.4261C139.476 76.5903 138.382 74.6824 138.781 72.7205C138.792 72.6046 138.827 72.4921 138.883 72.3901C138.94 72.2881 139.016 72.1988 139.109 72.1277C139.048 72.1226 138.987 72.1226 138.927 72.1277C138.436 72.1719 138.311 72.5093 138.246 72.8319C137.848 74.7971 138.94 76.7033 139.739 78.5375C140.54 80.3769 141.071 82.3223 141.315 84.3135C141.423 85.1601 141.46 86.074 141.015 86.8011Z" fill="black"/>
<path opacity="0.1" d="M134.491 90.4907C134.491 89.757 135.013 88.6418 135.716 88.3077C135.596 88.3047 135.476 88.3185 135.36 88.3487C134.569 88.5632 133.963 89.8045 133.958 90.5988C133.949 92.6065 136.534 92.9341 138.098 92.5132C136.544 92.7392 134.481 92.279 134.491 90.4907Z" fill="black"/>
</g>
<g opacity="0.5">
<path opacity="0.5" d="M123.084 68.1056C123.084 68.1056 127.545 67.2131 129.776 68.1056C129.776 68.1056 131.114 64.9826 132.452 64.9826C133.79 64.9826 134.235 69.8956 134.235 69.8956L136.019 77.0325C136.019 77.0325 144.493 92.1988 136.019 100.227C127.544 108.254 114.164 99.3291 114.164 93.5302C114.164 87.7313 116.84 75.6896 116.84 75.6896C116.84 75.6896 119.516 65.8768 120.408 64.9843C121.301 64.0918 123.084 68.1056 123.084 68.1056Z" fill="url(#paint8_linear)"/>
</g>
<path d="M123.235 68.7263C123.235 68.7263 127.522 67.8682 129.666 68.7263C129.666 68.7263 130.952 65.7245 132.239 65.7245C133.526 65.7245 133.953 70.4409 133.953 70.4409L135.668 77.3011C135.668 77.3011 143.815 91.8762 135.668 99.5977C127.521 107.319 114.657 98.7396 114.657 93.1666C114.657 87.5937 117.23 76.0155 117.23 76.0155C117.23 76.0155 119.802 66.5826 120.661 65.7245C121.519 64.8664 123.235 68.7263 123.235 68.7263Z" fill="#FFD180"/>
<g opacity="0.1">
<path opacity="0.1" d="M138.663 85.3158C138.006 82.5288 136.998 79.8364 135.663 77.3027L135.933 78.3869C137.095 80.5892 138.011 82.9129 138.663 85.3158Z" fill="white"/>
<path opacity="0.1" d="M115.428 92.0121C115.428 86.4441 117.503 77.0997 117.503 77.0997C117.503 77.0997 120.076 67.6668 120.934 66.8087C121.792 65.9505 123.507 69.8105 123.507 69.8105C123.507 69.8105 127.794 68.9524 129.938 69.8105C129.938 69.8105 131.225 66.8087 132.511 66.8087C133.002 66.8087 133.38 67.5194 133.646 68.389C133.384 67.1165 132.938 65.7245 132.241 65.7245C130.955 65.7245 129.668 68.7264 129.668 68.7264C127.524 67.8682 123.237 68.7264 123.237 68.7264C123.237 68.7264 121.522 64.868 120.664 65.7245C119.806 66.581 117.233 76.0155 117.233 76.0155C117.233 76.0155 115.158 85.3502 115.158 90.928C115.157 91.4324 115.428 92.1726 115.428 92.0121Z" fill="white"/>
</g>
<path d="M131.597 77.0882C132.071 77.0882 132.455 76.704 132.455 76.2301C132.455 75.7561 132.071 75.3719 131.597 75.3719C131.123 75.3719 130.739 75.7561 130.739 76.2301C130.739 76.704 131.123 77.0882 131.597 77.0882Z" fill="#58555D"/>
<path d="M121.735 77.0882C122.209 77.0882 122.593 76.704 122.593 76.2301C122.593 75.7561 122.209 75.3719 121.735 75.3719C121.261 75.3719 120.877 75.7561 120.877 76.2301C120.877 76.704 121.261 77.0882 121.735 77.0882Z" fill="#58555D"/>
<path d="M126.88 77.9463C127.59 77.9463 128.166 77.5621 128.166 77.0882C128.166 76.6142 127.59 76.23 126.88 76.23C126.17 76.23 125.595 76.6142 125.595 77.0882C125.595 77.5621 126.17 77.9463 126.88 77.9463Z" fill="#58555D"/>
<path d="M137.982 75.1561L134.123 76.0131L134.216 76.432L138.075 75.575L137.982 75.1561Z" fill="#FFD180"/>
<path d="M138.417 76.8718L134.129 77.7264L134.213 78.1472L138.501 77.2926L138.417 76.8718Z" fill="#FFD180"/>
<path d="M114.524 73.8859L114.364 74.2842L118.652 75.9993L118.811 75.6009L114.524 73.8859Z" fill="#FFD180"/>
<path d="M113.197 76.0219L113.132 76.446L118.706 77.304L118.772 76.8799L113.197 76.0219Z" fill="#FFD180"/>
<path opacity="0.1" d="M125.811 82.5743C124.689 82.5753 123.568 82.48 122.462 82.2893C120.335 81.923 118.289 81.1876 116.416 80.1162L116.565 79.4234C118.459 80.4494 120.504 81.168 122.624 81.5524C125.711 82.0814 131.02 81.9225 136.417 78.9453L136.777 79.6003C132.86 81.7653 128.736 82.5743 125.811 82.5743Z" fill="black"/>
<path d="M136.417 78.7864C131.012 81.7637 125.71 81.9225 122.624 81.3936C120.504 81.0092 118.459 80.2906 116.565 79.2646L116.169 79.8968C118.132 80.9757 120.257 81.7285 122.462 82.1256C123.569 82.3169 124.69 82.4128 125.813 82.4122C128.738 82.4122 132.855 81.6048 136.785 79.4431L136.417 78.7864ZM125.95 82.3532C125.934 82.3532 125.918 82.3483 125.904 82.3392C125.89 82.33 125.879 82.3169 125.873 82.3017C125.867 82.2864 125.865 82.2696 125.868 82.2534C125.872 82.2372 125.88 82.2223 125.891 82.2107C125.903 82.199 125.918 82.191 125.934 82.1878C125.95 82.1846 125.967 82.1862 125.982 82.1926C125.997 82.1989 126.011 82.2096 126.02 82.2233C126.029 82.2371 126.034 82.2532 126.034 82.2697C126.033 82.2916 126.024 82.3124 126.009 82.3277C125.993 82.343 125.972 82.3516 125.95 82.3516V82.3532Z" fill="#F55F44"/>
<path opacity="0.1" d="M125.12 83.5127C125.12 83.7324 125.207 83.9432 125.363 84.0986C125.518 84.254 125.729 84.3413 125.949 84.3413C126.168 84.3413 126.379 84.254 126.535 84.0986C126.69 83.9432 126.777 83.7324 126.777 83.5127C126.777 83.2929 126.69 83.0821 126.535 82.9267C126.379 82.7713 126.168 82.684 125.949 82.684C125.729 82.684 125.518 82.7713 125.363 82.9267C125.207 83.0821 125.12 83.2929 125.12 83.5127ZM125.949 83.0983C125.921 83.0983 125.895 83.0903 125.872 83.0752C125.85 83.06 125.832 83.0386 125.822 83.0134C125.811 82.9883 125.808 82.9606 125.814 82.9339C125.819 82.9073 125.832 82.8828 125.851 82.8635C125.871 82.8443 125.895 82.8312 125.922 82.8259C125.948 82.8206 125.976 82.8233 126.001 82.8337C126.026 82.8441 126.048 82.8617 126.063 82.8844C126.078 82.907 126.086 82.9336 126.086 82.9608C126.086 82.997 126.072 83.0317 126.047 83.0575C126.021 83.0832 125.986 83.0979 125.95 83.0983H125.949Z" fill="url(#paint9_linear)"/>
<path d="M125.203 83.5127C125.203 83.7108 125.282 83.9007 125.422 84.0407C125.562 84.1808 125.752 84.2595 125.95 84.2595C126.148 84.2595 126.338 84.1808 126.478 84.0407C126.618 83.9007 126.697 83.7108 126.697 83.5127C126.697 83.3146 126.618 83.1247 126.478 82.9847C126.338 82.8446 126.148 82.7659 125.95 82.7659C125.752 82.7659 125.562 82.8446 125.422 82.9847C125.282 83.1247 125.203 83.3146 125.203 83.5127ZM125.95 83.1393C125.926 83.1393 125.902 83.132 125.881 83.1183C125.861 83.1047 125.845 83.0852 125.835 83.0625C125.826 83.0397 125.823 83.0147 125.828 82.9906C125.833 82.9664 125.845 82.9443 125.862 82.9268C125.88 82.9094 125.902 82.8976 125.926 82.8928C125.95 82.888 125.975 82.8904 125.998 82.8999C126.021 82.9093 126.04 82.9252 126.054 82.9457C126.067 82.9662 126.075 82.9902 126.075 83.0149C126.075 83.0479 126.062 83.0795 126.038 83.1029C126.015 83.1262 125.983 83.1393 125.95 83.1393Z" fill="#4D8AF0"/>
<path d="M135.318 79.0353C123.905 85.7497 117.328 79.5266 117.328 79.5266L135.318 79.0353Z" fill="#FFD180"/>
<path d="M166.626 112.023C165.927 110.039 158.438 115.625 158.438 115.625L156.707 115.522L153.376 112.437L155.702 110.111L136.174 93.3664C135.653 92.92 135.044 92.5873 134.387 92.3899C133.729 92.1925 133.038 92.1347 132.357 92.2201L116.123 94.2442C116.052 93.314 115.479 92.2086 114.669 91.0803C113.003 88.3487 109.497 85.265 108.203 84.1694L106.218 70.8258L107.9 68.3022C107.589 68.2171 107.283 68.1143 106.983 67.9943L107.338 67.4604L107.207 67.4244L107.371 67.2312H107.351L111.541 62.3837C111.852 62.024 112.011 61.5576 111.986 61.0827C111.96 60.6078 111.751 60.1613 111.403 59.8372L102.027 52.7134C102.312 52.0348 102.448 51.3034 102.427 50.568C102.501 49.1531 101.867 47.7169 99.743 46.6541C98.4287 46.0274 97.052 45.5411 95.6357 45.2031C93.302 44.6026 90.8499 44.6388 88.5349 45.3079C88.4972 45.2604 88.4563 45.2129 88.4137 45.1638C85.5281 41.8656 81.7435 46.6049 81.5961 46.8015L66.8049 63.2533C66.4027 63.8919 66.2555 64.6585 66.3927 65.4007C66.5298 66.1429 66.9412 66.8063 67.5451 67.259L75.3747 73.13L75.3501 73.1807L75.7923 73.5083C75.4648 74.1633 75.0079 74.6055 74.4101 74.6726L75.6089 75.272C75.4195 75.4045 75.1999 75.4873 74.9702 75.5128L80.4596 78.2575C80.4596 81.1103 80.7544 94.1705 85.3922 100.582C85.8674 101.371 86.4329 102.102 87.0774 102.76C87.0774 102.76 87.472 102.545 88.1926 102.198L89.0212 103.857C89.9319 105.679 91.3927 107.167 93.1965 108.112C95.0003 109.057 97.0557 109.41 99.0715 109.122L124.84 105.441L124.566 106.26L124.714 106.238L116.362 131.294L117.741 131.755L117.715 131.804L117.909 131.887L116.172 135.163L110.704 139.368C110.704 139.368 126.686 147.358 128.367 146.097C130.049 144.836 122.472 139.368 122.472 139.368L122.051 137.686L123.89 133.803L125.431 134.318L137.815 109.55L138.236 108.708L146.617 119.189L148.981 116.827L149.236 117.086L149.257 117.065L152.533 120.38L154.906 126.856C154.906 126.856 167.322 114.006 166.626 112.023ZM101.612 63.8592L101.448 63.6693C100.449 64.9188 98.6817 66.4303 96.7117 67.4539V66.0766L96.805 65.9947V65.3953C98.0503 64.2491 98.9508 62.7779 99.405 61.1475C99.8593 59.5171 99.8493 57.7922 99.3761 56.1672L104.816 60.3448L101.612 63.8592ZM83.147 48.3294L83.016 48.1984L83.1486 48.3294H83.147ZM78.799 57.0875C78.763 57.5242 78.7483 57.9637 78.7548 58.4059C78.7452 59.0479 78.7808 59.6898 78.8613 60.3268C79.1413 62.5524 79.9388 64.3718 81.5814 65.2398C83.0127 65.9931 83.9543 65.9521 84.5537 65.4379L84.6192 65.4969C84.6696 66.3673 84.8958 67.2186 85.2841 67.9992C82.2179 67.359 79.2897 66.1796 76.6357 64.5159C76.6357 64.5159 76.6455 64.6273 76.657 64.8271L74.4068 62.577L78.799 57.0875Z" fill="url(#paint10_linear)"/>
<path d="M119.858 127.074L116.182 134.02L121.9 136.469L125.577 128.709L119.858 127.074Z" fill="#FDA57D"/>
<path d="M121.9 136.469L122.308 138.107C122.308 138.107 129.661 143.418 128.027 144.643C126.392 145.868 110.869 138.107 110.869 138.107L116.18 134.021L121.9 136.469Z" fill="#333333"/>
<path opacity="0.1" d="M125.185 129.429L119.4 127.502L117.678 130.751L123.397 133.202L125.185 129.429Z" fill="black"/>
<path d="M145.982 114.065L151.504 119.656L155.557 114.934L149.256 109.099L145.982 114.065Z" fill="#FDA57D"/>
<path opacity="0.1" d="M149.483 109.371L146.21 114.338L148.303 116.456L152.549 112.209L149.483 109.371Z" fill="black"/>
<path d="M155.557 114.933L157.239 115.033C157.239 115.033 164.51 109.61 165.19 111.536C165.87 113.462 153.81 125.948 153.81 125.948L151.506 119.656L155.557 114.933Z" fill="#333333"/>
<path d="M103.2 73.13L111.686 63.3041C111.989 62.9545 112.144 62.5013 112.119 62.0397C112.093 61.5782 111.89 61.1444 111.552 60.8296L93.0859 46.8342L90.8439 50.3323L105.155 61.3487L99.0797 68.0107L103.2 73.13Z" fill="#FDA57D"/>
<path opacity="0.1" d="M102.226 64.5732L99.2565 67.8289L103.382 72.9547L107.64 68.032C105.563 67.3744 103.695 66.1815 102.226 64.5732Z" fill="black"/>
<path d="M78.5615 75.2622L68.9534 68.0565C68.367 67.6166 67.9676 66.9722 67.8344 66.2513C67.7012 65.5305 67.844 64.7859 68.2345 64.1655L82.6114 48.1672L85.5592 51.115L75.6138 63.5038L81.4929 69.383L78.5615 75.2622Z" fill="#FDA57D"/>
<path opacity="0.1" d="M76.5292 73.8113L78.1014 74.9904L81.0492 69.1112L77.3481 65.4216C77.4267 66.6727 77.6478 71.5349 76.5292 73.8113Z" fill="black"/>
<path d="M125.184 103.798L116.363 130.258L125.184 133.197L139.882 103.798L128.123 100.859L125.184 103.798Z" fill="#4D8AF0"/>
<path opacity="0.1" d="M124.774 104.615L124.334 105.939L133.595 104.615L137.212 109.139L139.474 104.615L127.714 101.676L124.774 104.615Z" fill="black"/>
<path d="M82.5918 48.1852C82.5918 48.1852 86.3584 43.328 89.2194 46.5967C92.0804 49.8655 84.7257 50.2733 84.7257 50.2733L82.5918 48.1852Z" fill="#FDA57D"/>
<path d="M86.9659 97.9191L89.8073 103.603C90.6918 105.373 92.1106 106.819 93.8627 107.737C95.6147 108.654 97.6112 108.998 99.5693 108.718L134.003 103.805L145.763 118.504L154.581 109.686L135.609 93.4238C135.103 92.9898 134.512 92.6665 133.873 92.4744C133.235 92.2824 132.563 92.2259 131.901 92.3085L86.9659 97.9191Z" fill="#4D8AF0"/>
<path opacity="0.1" d="M78.3257 66.206C78.3257 66.206 79.1004 75.7535 76.1608 76.081L82.0399 79.0288C82.0399 79.0288 81.7124 96.3404 87.9191 102.547C87.9191 102.547 99.3516 96.3404 111.437 96.668C123.523 96.9955 108.49 84.908 108.49 84.908L106.505 71.5251L108.142 69.0686C105.928 68.4056 103.946 67.1313 102.424 65.3921C100.786 67.4342 97.0425 70.2035 93.795 70.2035H92.3899C87.549 70.2035 82.4002 69.2209 78.3208 66.6171L78.3257 66.206Z" fill="black"/>
<path d="M77.7804 65.3888C77.7804 65.3888 78.5615 74.9363 75.6138 75.2622L81.4929 78.21C81.4929 78.21 81.1654 95.5216 87.3721 101.728C87.3721 101.728 98.8046 95.5216 110.89 95.8491C122.976 96.1766 107.943 84.0891 107.943 84.0891L105.958 70.7062L107.595 68.2498C105.381 67.5867 103.399 66.3124 101.877 64.5732C100.239 66.6154 96.4955 69.3847 93.248 69.3847H91.8429C87.002 69.3847 81.8532 67.9976 77.7738 65.3888H77.7804Z" fill="#3AD29F"/>
<path d="M85.5248 62.6965V65.9718C85.525 67.6352 86.186 69.2304 87.3623 70.4065L94.3452 77.3895L96.6691 72.7402C97.0739 71.9307 97.2847 71.0381 97.2848 70.133V62.6965H85.5248Z" fill="#FDA57D"/>
<path opacity="0.1" d="M85.6149 66.4778C85.6149 66.599 85.6149 66.7186 85.6264 66.8398C87.2437 68.2822 89.3355 69.0785 91.5025 69.0767C93.6696 69.0748 95.7601 68.275 97.3749 66.8299V63.196H85.6149V66.4778Z" fill="black"/>
<path d="M91.404 68.5773C96.2745 68.5773 100.223 64.629 100.223 59.7586C100.223 54.8881 96.2745 50.9398 91.404 50.9398C86.5336 50.9398 82.5853 54.8881 82.5853 59.7586C82.5853 64.629 86.5336 68.5773 91.404 68.5773Z" fill="#FDA57D"/>
<path opacity="0.1" d="M85.5249 57.271H100.224C100.224 57.271 106.104 51.3918 100.224 48.4522C98.9478 47.8439 97.6107 47.3718 96.2351 47.0438C87.2952 44.7773 78.7941 52.1713 79.9437 61.3225C80.2156 63.4842 80.9902 65.2529 82.5853 66.0897C88.7903 69.3519 85.5249 57.271 85.5249 57.271Z" fill="black"/>
<path d="M85.5249 56.8632H100.224C100.224 56.8632 106.104 50.984 100.224 48.0444C98.9478 47.4361 97.6107 46.964 96.2351 46.636C87.2952 44.3695 78.7941 51.7635 79.9437 60.9147C80.2156 63.0764 80.9902 64.8451 82.5853 65.6819C88.7903 68.9491 85.5249 56.8632 85.5249 56.8632Z" fill="#333333"/>
<path d="M85.9506 61.3029C86.4019 61.3029 86.7678 60.6628 86.7678 59.8732C86.7678 59.0836 86.4019 58.4435 85.9506 58.4435C85.4993 58.4435 85.1334 59.0836 85.1334 59.8732C85.1334 60.6628 85.4993 61.3029 85.9506 61.3029Z" fill="#FDA57D"/>
<path opacity="0.1" d="M81.4569 78.0528L81.8663 76.8262L83.0913 77.6434L81.4569 78.0528Z" fill="black"/>
<path opacity="0.1" d="M107.966 84.0908C107.966 84.0908 103.518 86.2197 102.291 88.2668L107.966 84.0908Z" fill="black"/>
<path opacity="0.1" d="M105.968 70.6997L105.56 71.9247L104.743 70.6997H105.968Z" fill="black"/>
<path d="M85.5249 56.8632H100.224C100.224 56.8632 106.104 50.984 100.224 48.0444C98.9478 47.4361 97.6107 46.964 96.2351 46.636C87.2952 44.3695 78.7941 51.7635 79.9437 60.9147C80.2156 63.0764 80.9902 64.8451 82.5853 65.6819C88.7903 68.9491 85.5249 56.8632 85.5249 56.8632Z" fill="#333333"/>
<path opacity="0.1" d="M125.071 89.8815C125.071 89.8815 128.053 96.365 124.137 96.9234C120.222 97.4819 122.008 91.493 122.008 91.493C122.008 91.493 121.617 89.7161 120.664 89.6162" fill="black"/>
<path opacity="0.1" d="M128.674 89.7243C128.674 89.7243 125.128 95.9179 128.978 96.8153C132.828 97.7128 131.58 91.5961 131.58 91.5961C131.58 91.5961 132.127 89.8619 133.087 89.8455" fill="black"/>
<path d="M124.725 89.6997C124.725 89.6997 127.707 96.1832 123.792 96.7416C119.876 97.3001 121.663 91.3112 121.663 91.3112C121.663 91.3112 121.271 89.5294 120.322 89.4295" fill="#FFD180"/>
<path d="M128.95 89.4508C128.95 89.4508 125.398 95.646 129.255 96.5369C133.112 97.4278 131.857 91.3177 131.857 91.3177C131.857 91.3177 132.404 89.5835 133.364 89.5671" fill="#FFD180"/>
<path opacity="0.5" d="M122.603 95.3939H122.536V96.6598H122.603V95.3939Z" fill="#58555D"/>
<path opacity="0.5" d="M123.687 95.3939H123.62V96.6598H123.687V95.3939Z" fill="#58555D"/>
<path opacity="0.5" d="M123.099 94.991H123.032V96.7613H123.099V94.991Z" fill="#58555D"/>
<path opacity="0.5" d="M129.645 95.1237H129.578V96.3896H129.645V95.1237Z" fill="#58555D"/>
<path opacity="0.5" d="M130.729 95.1237H130.662V96.3896H130.729V95.1237Z" fill="#58555D"/>
<path opacity="0.5" d="M130.141 94.7191H130.074V96.4894H130.141V94.7191Z" fill="#58555D"/>
<g opacity="0.5">
<path opacity="0.5" d="M127.446 169.466C131.527 168.097 133.726 163.679 132.357 159.598C130.989 155.517 126.571 153.319 122.49 154.687C118.409 156.056 116.211 160.474 117.579 164.555C118.948 168.635 123.365 170.834 127.446 169.466Z" fill="url(#paint11_linear)"/>
</g>
<path d="M127.288 168.994C131.108 167.712 133.167 163.577 131.885 159.757C130.604 155.936 126.469 153.878 122.648 155.159C118.828 156.441 116.77 160.576 118.051 164.396C119.332 168.216 123.468 170.275 127.288 168.994Z" fill="#F55F44"/>
<g opacity="0.5">
<path opacity="0.5" d="M105.552 171.849C104.504 172.201 103.198 171.951 102.712 170.945C102.432 170.364 102.499 169.714 102.565 169.085C102.637 168.395 102.697 167.801 102.309 167.416C102.109 167.245 101.872 167.122 101.618 167.054C101.291 166.944 100.937 166.853 100.599 166.764C99.9979 166.626 99.4103 166.433 98.8439 166.188C97.7303 165.665 97.0179 164.783 96.9393 163.826C96.8721 163.008 97.2668 162.261 97.6435 161.545C98.0201 160.829 98.4001 160.119 98.2199 159.416C97.9759 158.468 96.8377 158.018 95.8355 157.615L95.6717 157.553C94.4468 157.061 93.1334 156.025 93.4609 154.695C93.5755 154.231 93.8687 153.876 94.152 153.548C94.3441 153.335 94.5091 153.099 94.6433 152.846C95.0855 151.914 94.4795 150.837 94.2093 150.416C93.9981 150.088 93.7475 149.787 93.5051 149.487C93.1253 149.047 92.789 148.571 92.5012 148.066L92.4554 147.98C91.7905 146.723 91.7774 146.67 91.8331 145.3V145.136L92.4128 145.159V145.323C92.3637 146.566 92.3637 146.566 92.968 147.709L93.0138 147.794C93.284 148.266 93.5994 148.711 93.9555 149.122C94.206 149.431 94.4648 149.752 94.6924 150.095C95.395 151.158 95.5669 152.25 95.1657 153.093C95.009 153.389 94.8152 153.665 94.5893 153.912C94.3371 154.213 94.098 154.498 94.0161 154.832C93.7606 155.866 95.0658 156.688 95.8781 157.012L96.0337 157.074C97.1096 157.5 98.4492 158.031 98.7669 159.264C99.0027 160.179 98.5655 161.005 98.1413 161.804C97.7859 162.475 97.4486 163.114 97.5026 163.769C97.5747 164.648 98.3624 165.318 99.0748 165.654C99.609 165.884 100.163 166.065 100.73 166.194C101.078 166.284 101.436 166.379 101.787 166.496C102.127 166.589 102.441 166.761 102.704 166.997C103.288 167.577 103.207 168.371 103.128 169.139C103.069 169.712 103.012 170.254 103.221 170.687C103.6 171.469 104.772 171.584 105.588 171.199C106.256 170.885 106.782 170.349 107.338 169.784C107.519 169.601 107.705 169.412 107.895 169.232C108.933 168.25 109.983 167.821 110.933 167.986C111.234 168.049 111.528 168.144 111.809 168.269C112.028 168.365 112.254 168.443 112.486 168.502C113.002 168.594 113.534 168.488 113.976 168.205C114.417 167.922 114.736 167.483 114.868 166.976C114.89 166.879 114.904 166.777 114.921 166.671C114.971 166.33 115.029 165.944 115.301 165.644C115.572 165.344 116.003 165.235 116.309 165.164L119.47 164.434L119.601 164.999L116.44 165.729C116.141 165.798 115.88 165.87 115.731 166.034C115.582 166.198 115.538 166.471 115.497 166.756C115.481 166.868 115.463 166.984 115.438 167.098C115.272 167.756 114.861 168.325 114.29 168.69C113.718 169.055 113.029 169.189 112.363 169.064C112.1 168.998 111.843 168.91 111.595 168.802C111.351 168.692 111.097 168.609 110.836 168.553C109.873 168.389 108.925 169.055 108.298 169.648C108.116 169.82 107.933 170.007 107.756 170.185C107.188 170.762 106.601 171.36 105.84 171.718C105.746 171.767 105.65 171.811 105.552 171.849Z" fill="url(#paint12_linear)"/>
</g>
<path d="M105.63 171.561C104.582 171.913 103.277 171.663 102.791 170.657C102.511 170.076 102.578 169.426 102.643 168.797C102.715 168.107 102.776 167.513 102.388 167.128C102.187 166.957 101.951 166.834 101.697 166.766C101.369 166.656 101.015 166.565 100.678 166.476C100.077 166.338 99.4889 166.145 98.9225 165.9C97.8089 165.377 97.0965 164.495 97.0179 163.538C96.9508 162.719 97.3454 161.973 97.7221 161.257C98.0987 160.541 98.4787 159.831 98.2985 159.128C98.0545 158.18 96.9164 157.729 95.9141 157.327L95.7504 157.264C94.5254 156.773 93.212 155.736 93.5395 154.407C93.6542 153.943 93.9473 153.588 94.2306 153.26C94.4227 153.047 94.5877 152.811 94.7219 152.558C95.1641 151.626 94.5581 150.548 94.2879 150.127C94.0767 149.8 93.8261 149.499 93.5837 149.199C93.2039 148.759 92.8677 148.283 92.5799 147.777L92.534 147.692C91.8691 146.435 91.856 146.382 91.9117 145.011V144.848L92.4914 144.871V145.034C92.4423 146.277 92.4423 146.277 93.0466 147.42L93.0924 147.506C93.3627 147.978 93.678 148.422 94.0341 148.834C94.2847 149.143 94.5434 149.464 94.771 149.806C95.4736 150.869 95.6455 151.962 95.2443 152.805C95.0876 153.101 94.8939 153.376 94.6679 153.624C94.4157 153.925 94.1766 154.21 94.0947 154.544C93.8392 155.578 95.1444 156.4 95.9567 156.724L96.1123 156.786C97.1882 157.212 98.5278 157.743 98.8455 158.976C99.0813 159.891 98.6441 160.717 98.2199 161.516C97.8646 162.187 97.5272 162.826 97.5813 163.481C97.6533 164.36 98.441 165.03 99.1534 165.366C99.6876 165.596 100.242 165.777 100.809 165.906C101.156 165.996 101.515 166.091 101.865 166.208C102.206 166.301 102.52 166.473 102.782 166.709C103.367 167.288 103.285 168.083 103.207 168.851C103.148 169.424 103.09 169.966 103.3 170.398C103.678 171.181 104.851 171.296 105.666 170.911C106.335 170.596 106.86 170.061 107.417 169.496C107.597 169.313 107.784 169.124 107.974 168.944C109.012 167.961 110.062 167.532 111.012 167.698C111.313 167.761 111.607 167.855 111.888 167.981C112.106 168.077 112.333 168.155 112.564 168.214C113.08 168.306 113.612 168.2 114.054 167.917C114.496 167.634 114.815 167.195 114.947 166.687C114.968 166.591 114.983 166.489 114.999 166.383C115.05 166.042 115.107 165.656 115.379 165.356C115.651 165.056 116.082 164.947 116.388 164.876L119.549 164.146L119.68 164.711L116.519 165.441C116.219 165.51 115.959 165.582 115.81 165.746C115.661 165.909 115.617 166.183 115.576 166.468C115.559 166.579 115.541 166.696 115.517 166.81C115.351 167.468 114.94 168.037 114.368 168.402C113.797 168.767 113.108 168.901 112.441 168.775C112.178 168.71 111.921 168.622 111.673 168.513C111.43 168.404 111.176 168.321 110.915 168.264C109.952 168.101 109.004 168.767 108.377 169.36C108.195 169.532 108.011 169.719 107.835 169.897C107.266 170.474 106.68 171.071 105.919 171.43C105.825 171.479 105.729 171.523 105.63 171.561Z" fill="#F55F44"/>
<path opacity="0.2" d="M124.544 156.88C124.544 156.88 128.58 156.269 130.557 161.902" stroke="black" stroke-miterlimit="10"/>
<path opacity="0.2" d="M120.078 165.854C120.078 165.854 117.081 161.612 122.421 156.935" stroke="black" stroke-miterlimit="10"/>
<path opacity="0.2" d="M121.304 164.305C121.304 164.305 119.858 162.079 121.375 160.084" stroke="black" stroke-miterlimit="10"/>
<path opacity="0.2" d="M123.893 159.239C123.893 159.239 125.808 159.996 126.076 163.404" stroke="black" stroke-miterlimit="10"/>
<path opacity="0.2" d="M126.14 155.25C126.14 155.25 129.131 155.822 131.217 159.934" stroke="black" stroke-miterlimit="10"/>
<path opacity="0.2" d="M122.287 156.542C122.287 156.542 123.7 155.543 125.012 156.066" stroke="black" stroke-miterlimit="10"/>
<path opacity="0.2" d="M123.355 165.973C123.355 165.973 125.244 167.175 130.115 163.707" stroke="black" stroke-miterlimit="10"/>
<path opacity="0.2" d="M123.019 168.364C123.019 168.364 124.201 169.542 126.663 168.541" stroke="black" stroke-miterlimit="10"/>
<path opacity="0.2" d="M119.513 157.911C119.005 158.664 118.664 159.517 118.512 160.413C118.36 161.308 118.401 162.226 118.632 163.104" stroke="black" stroke-miterlimit="10"/>
<path opacity="0.2" d="M121.1 165.51C121.1 165.51 120.944 166.612 122.177 167.159" stroke="black" stroke-miterlimit="10"/>
<path opacity="0.2" d="M130.903 164.234C130.903 164.234 130.827 166.363 129.648 166.491" stroke="black" stroke-miterlimit="10"/>
<path opacity="0.2" d="M124.432 167.365C125.144 167.46 125.868 167.392 126.549 167.165C127.23 166.938 127.85 166.558 128.362 166.055" stroke="black" stroke-miterlimit="10"/>
<path opacity="0.2" d="M126.253 159.76C126.253 159.76 127.277 160.466 127.175 161.725" stroke="black" stroke-miterlimit="10"/>
<path opacity="0.2" d="M122.349 161.157C122.349 161.157 122.064 162.652 122.799 163.541" stroke="black" stroke-miterlimit="10"/>
<path opacity="0.2" d="M123.214 160.867C123.214 160.867 124.265 162.177 123.979 163.147" stroke="black" stroke-miterlimit="10"/>
<defs>
<linearGradient id="paint0_linear" x1="206.965" y1="-17.8926" x2="17.5699" y2="118.154" gradientUnits="userSpaceOnUse">
<stop stop-color="#22C88A"/>
<stop offset="1" stop-color="#1BF2A0"/>
</linearGradient>
<linearGradient id="paint1_linear" x1="114.426" y1="144.925" x2="114.426" y2="58.8268" gradientUnits="userSpaceOnUse">
<stop stop-color="#808080" stop-opacity="0.25"/>
<stop offset="0.54" stop-color="#808080" stop-opacity="0.12"/>
<stop offset="1" stop-color="#808080" stop-opacity="0.1"/>
</linearGradient>
<linearGradient id="paint2_linear" x1="12487.1" y1="-72713.4" x2="8542.73" y2="-78321.6" gradientUnits="userSpaceOnUse">
<stop stop-color="#808080" stop-opacity="0.25"/>
<stop offset="0.54" stop-color="#808080" stop-opacity="0.12"/>
<stop offset="1" stop-color="#808080" stop-opacity="0.1"/>
</linearGradient>
<linearGradient id="paint3_linear" x1="1857.51" y1="-10513.7" x2="1787.12" y2="-10613.8" gradientUnits="userSpaceOnUse">
<stop stop-color="#808080" stop-opacity="0.25"/>
<stop offset="0.54" stop-color="#808080" stop-opacity="0.12"/>
<stop offset="1" stop-color="#808080" stop-opacity="0.1"/>
</linearGradient>
<linearGradient id="paint4_linear" x1="2162.7" y1="-10346.7" x2="2092.28" y2="-10446.8" gradientUnits="userSpaceOnUse">
<stop stop-color="#808080" stop-opacity="0.25"/>
<stop offset="0.54" stop-color="#808080" stop-opacity="0.12"/>
<stop offset="1" stop-color="#808080" stop-opacity="0.1"/>
</linearGradient>
<linearGradient id="paint5_linear" x1="1698.49" y1="-10162.3" x2="1628.07" y2="-10262.4" gradientUnits="userSpaceOnUse">
<stop stop-color="#808080" stop-opacity="0.25"/>
<stop offset="0.54" stop-color="#808080" stop-opacity="0.12"/>
<stop offset="1" stop-color="#808080" stop-opacity="0.1"/>
</linearGradient>
<linearGradient id="paint6_linear" x1="1986.65" y1="-9982.84" x2="1916.23" y2="-10083" gradientUnits="userSpaceOnUse">
<stop stop-color="#808080" stop-opacity="0.25"/>
<stop offset="0.54" stop-color="#808080" stop-opacity="0.12"/>
<stop offset="1" stop-color="#808080" stop-opacity="0.1"/>
</linearGradient>
<linearGradient id="paint7_linear" x1="9140.66" y1="7694.52" x2="9140.66" y2="4609.86" gradientUnits="userSpaceOnUse">
<stop stop-color="#808080" stop-opacity="0.25"/>
<stop offset="0.54" stop-color="#808080" stop-opacity="0.12"/>
<stop offset="1" stop-color="#808080" stop-opacity="0.1"/>
</linearGradient>
<linearGradient id="paint8_linear" x1="17450.1" y1="16342.3" x2="17450.1" y2="7259.57" gradientUnits="userSpaceOnUse">
<stop stop-color="#808080" stop-opacity="0.25"/>
<stop offset="0.54" stop-color="#808080" stop-opacity="0.12"/>
<stop offset="1" stop-color="#808080" stop-opacity="0.1"/>
</linearGradient>
<linearGradient id="paint9_linear" x1="125.95" y1="84.3413" x2="125.95" y2="82.684" gradientUnits="userSpaceOnUse">
<stop stop-color="white"/>
<stop offset="1"/>
</linearGradient>
<linearGradient id="paint10_linear" x1="61523.4" y1="69917.7" x2="61523.4" y2="6096.14" gradientUnits="userSpaceOnUse">
<stop stop-color="#808080" stop-opacity="0.25"/>
<stop offset="0.54" stop-color="#808080" stop-opacity="0.12"/>
<stop offset="1" stop-color="#808080" stop-opacity="0.1"/>
</linearGradient>
<linearGradient id="paint11_linear" x1="15988.5" y1="-10389.2" x2="15516.7" y2="-11795.8" gradientUnits="userSpaceOnUse">
<stop stop-color="#808080" stop-opacity="0.25"/>
<stop offset="0.54" stop-color="#808080" stop-opacity="0.12"/>
<stop offset="1" stop-color="#808080" stop-opacity="0.1"/>
</linearGradient>
<linearGradient id="paint12_linear" x1="25539.9" y1="-18338.1" x2="23991.5" y2="-22955.3" gradientUnits="userSpaceOnUse">
<stop stop-color="#808080" stop-opacity="0.25"/>
<stop offset="0.54" stop-color="#808080" stop-opacity="0.12"/>
<stop offset="1" stop-color="#808080" stop-opacity="0.1"/>
</linearGradient>
</defs>
</svg>
