<svg width="225" height="175" viewBox="0 0 225 175" fill="none" xmlns="http://www.w3.org/2000/svg">
<path opacity="0.1" d="M48.792 0.135413C41.5571 -0.131006 33.9995 -0.318331 27.4577 2.78295C20.9159 5.88423 15.8581 13.3981 18.0519 20.3062C18.7679 22.5583 20.1624 24.5211 21.3384 26.5712C27.2183 36.8242 27.491 50.0765 22.0398 60.5646C17.8437 68.6384 10.7316 74.7826 5.61136 82.3048C0.491121 89.827 -2.41867 100.253 2.61831 107.831C6.06718 113.02 12.4675 115.545 18.668 116.157C24.8684 116.769 31.1043 115.805 37.3319 115.557C49.4502 115.092 61.5168 117.374 72.6282 122.232C87.9244 128.939 101.102 140.411 117.208 144.838C119.141 145.369 121.162 145.798 123.14 145.438C126.647 144.799 129.196 141.899 131.942 139.61C140.707 132.352 152.841 130.997 164.218 130.66C175.595 130.323 187.444 130.583 197.728 125.698C206.708 121.433 213.62 113.499 217.918 104.536C222.216 95.5737 224.083 85.6142 224.787 75.6964C225.203 69.7935 225.188 63.6992 223.076 58.1731C220.701 51.9601 215.884 47.0126 210.833 42.6875C205.555 38.1667 199.802 34.0705 193.285 31.6311C185.5 28.7172 177.05 28.3009 168.762 27.6099C151.766 26.1904 134.903 23.4824 118.317 19.5091C102.575 15.7459 85.2914 11.6351 70.9547 3.96935C63.7594 0.120843 56.9032 0.426808 48.792 0.135413Z" fill="#1CC886"/>
<g opacity="0.1">
<path opacity="0.1" d="M148.587 131.064C148.587 131.064 149.323 120.738 155.135 115.108C157.588 112.762 159.214 109.683 159.768 106.335C160.018 104.743 160.123 103.131 160.08 101.52" fill="#1CC886"/>
<path opacity="0.1" d="M163.721 97.9507C163.294 99.0913 159.995 101.626 159.995 101.626C159.995 101.626 159.162 97.549 159.593 96.4084C159.798 95.861 160.211 95.4174 160.743 95.175C161.275 94.9326 161.881 94.9113 162.428 95.1158C162.975 95.3203 163.419 95.7339 163.661 96.2656C163.904 96.7972 163.925 97.4034 163.721 97.9507Z" fill="#1CC886"/>
<path opacity="0.1" d="M164.774 105.542C163.796 106.266 159.649 106.601 159.649 106.601C159.649 106.601 161.169 102.727 162.147 102.001C162.617 101.671 163.198 101.538 163.764 101.63C164.331 101.722 164.84 102.031 165.182 102.492C165.525 102.953 165.674 103.53 165.597 104.099C165.521 104.668 165.225 105.185 164.774 105.539V105.542Z" fill="#1CC886"/>
<path opacity="0.1" d="M160.592 116.275C159.381 116.409 155.632 114.61 155.632 114.61C155.632 114.61 158.9 112.033 160.109 111.904C160.672 111.874 161.224 112.059 161.654 112.423C162.083 112.787 162.357 113.302 162.419 113.861C162.481 114.421 162.326 114.983 161.986 115.432C161.646 115.881 161.148 116.183 160.592 116.275Z" fill="#1CC886"/>
<path opacity="0.1" d="M155.599 123.685C154.429 124.02 150.429 122.875 150.429 122.875C150.429 122.875 153.214 119.785 154.383 119.449C154.664 119.36 154.96 119.328 155.254 119.355C155.547 119.382 155.832 119.468 156.092 119.607C156.352 119.746 156.581 119.936 156.766 120.165C156.952 120.394 157.089 120.659 157.17 120.942C157.251 121.225 157.275 121.522 157.24 121.815C157.204 122.107 157.111 122.39 156.964 122.645C156.818 122.901 156.621 123.125 156.387 123.304C156.152 123.482 155.884 123.612 155.599 123.685Z" fill="#1CC886"/>
<path opacity="0.1" d="M155.233 105.202C155.753 106.301 159.254 108.547 159.254 108.547C159.254 108.547 159.737 104.415 159.214 103.314C158.954 102.803 158.504 102.414 157.961 102.229C157.418 102.044 156.825 102.078 156.306 102.324C155.788 102.57 155.386 103.008 155.185 103.545C154.985 104.083 155.002 104.677 155.233 105.202Z" fill="#1CC886"/>
<path opacity="0.1" d="M149.503 113.942C150.335 114.835 154.342 115.932 154.342 115.932C154.342 115.932 153.565 111.844 152.739 110.949C152.342 110.522 151.791 110.27 151.208 110.248C150.625 110.227 150.058 110.437 149.63 110.833C149.201 111.229 148.948 111.778 148.924 112.361C148.9 112.944 149.108 113.512 149.503 113.942Z" fill="#1CC886"/>
<path opacity="0.1" d="M145.1 123.2C145.762 124.22 149.534 125.979 149.534 125.979C149.534 125.979 149.459 121.816 148.795 120.798C148.469 120.326 147.971 120 147.408 119.889C146.845 119.778 146.261 119.891 145.78 120.203C145.299 120.516 144.959 121.004 144.832 121.564C144.705 122.123 144.801 122.71 145.1 123.2Z" fill="#1CC886"/>
<path opacity="0.1" d="M163.721 97.9507C163.294 99.0913 159.995 101.626 159.995 101.626C159.995 101.626 159.162 97.549 159.593 96.4084C159.798 95.861 160.211 95.4174 160.743 95.175C161.275 94.9326 161.881 94.9113 162.428 95.1158C162.975 95.3203 163.419 95.7339 163.661 96.2656C163.904 96.7972 163.925 97.4034 163.721 97.9507Z" fill="#1CC886"/>
<path opacity="0.1" d="M164.774 105.542C163.796 106.266 159.649 106.601 159.649 106.601C159.649 106.601 161.169 102.727 162.147 102.001C162.617 101.671 163.198 101.538 163.764 101.63C164.331 101.722 164.84 102.031 165.182 102.492C165.525 102.953 165.674 103.53 165.597 104.099C165.521 104.668 165.225 105.185 164.774 105.539V105.542Z" fill="#1CC886"/>
<path opacity="0.1" d="M160.592 116.275C159.381 116.409 155.632 114.61 155.632 114.61C155.632 114.61 158.9 112.033 160.109 111.904C160.672 111.874 161.224 112.059 161.654 112.423C162.083 112.787 162.357 113.302 162.419 113.861C162.481 114.421 162.326 114.983 161.986 115.432C161.646 115.881 161.148 116.183 160.592 116.275Z" fill="#1CC886"/>
<path opacity="0.1" d="M155.599 123.685C154.429 124.02 150.429 122.875 150.429 122.875C150.429 122.875 153.214 119.785 154.383 119.449C154.664 119.36 154.96 119.328 155.254 119.355C155.547 119.382 155.832 119.468 156.092 119.607C156.352 119.746 156.581 119.936 156.766 120.165C156.952 120.394 157.089 120.659 157.17 120.942C157.251 121.225 157.275 121.522 157.24 121.815C157.204 122.107 157.111 122.39 156.964 122.645C156.818 122.901 156.621 123.125 156.387 123.304C156.152 123.482 155.884 123.612 155.599 123.685Z" fill="#1CC886"/>
<path opacity="0.1" d="M155.233 105.202C155.753 106.301 159.254 108.547 159.254 108.547C159.254 108.547 159.737 104.415 159.214 103.314C158.954 102.803 158.504 102.414 157.961 102.229C157.418 102.044 156.825 102.078 156.306 102.324C155.788 102.57 155.386 103.008 155.185 103.545C154.985 104.083 155.002 104.677 155.233 105.202Z" fill="#1CC886"/>
<path opacity="0.1" d="M149.503 113.942C150.335 114.835 154.342 115.932 154.342 115.932C154.342 115.932 153.565 111.844 152.739 110.949C152.342 110.522 151.791 110.27 151.208 110.248C150.625 110.227 150.058 110.437 149.63 110.833C149.201 111.229 148.948 111.778 148.924 112.361C148.9 112.944 149.108 113.512 149.503 113.942Z" fill="#1CC886"/>
<path opacity="0.1" d="M145.1 123.2C145.762 124.22 149.534 125.979 149.534 125.979C149.534 125.979 149.459 121.816 148.795 120.798C148.469 120.326 147.971 120 147.408 119.889C146.845 119.778 146.261 119.891 145.78 120.203C145.299 120.516 144.959 121.004 144.832 121.564C144.705 122.123 144.801 122.71 145.1 123.2Z" fill="#1CC886"/>
</g>
<g opacity="0.1">
<path opacity="0.1" d="M150.626 91.9791C150.626 91.9791 151.363 81.6533 157.175 76.0232C159.627 73.6767 161.253 70.5985 161.808 67.2501C162.06 65.6584 162.164 64.0467 162.12 62.4358" fill="#1CC886"/>
<path opacity="0.1" d="M165.76 58.8662C165.344 60.0047 162.037 62.5399 162.037 62.5399C162.037 62.5399 161.204 58.4624 161.633 57.3239C161.837 56.7766 162.251 56.3329 162.783 56.0905C163.314 55.8481 163.92 55.8268 164.468 56.0313C165.015 56.2359 165.459 56.6494 165.701 57.1811C165.944 57.7127 165.965 58.3189 165.76 58.8662Z" fill="#1CC886"/>
<path opacity="0.1" d="M166.82 66.455C165.844 67.1814 161.695 67.5144 161.695 67.5144C161.695 67.5144 163.215 63.643 164.193 62.9166C164.425 62.7347 164.69 62.6011 164.974 62.5237C165.259 62.4462 165.555 62.4265 165.847 62.4656C166.139 62.5047 166.42 62.6019 166.674 62.7515C166.927 62.9011 167.149 63.1 167.324 63.3364C167.5 63.5728 167.626 63.8421 167.696 64.1282C167.765 64.4143 167.777 64.7114 167.73 65.0021C167.683 65.2928 167.578 65.5712 167.422 65.8207C167.266 66.0702 167.061 66.2859 166.82 66.455Z" fill="#1CC886"/>
<path opacity="0.1" d="M162.632 77.1908C161.423 77.324 157.674 75.5257 157.674 75.5257C157.674 75.5257 160.942 72.951 162.151 72.8199C162.442 72.7825 162.737 72.8035 163.019 72.8814C163.301 72.9594 163.565 73.0929 163.795 73.2741C164.026 73.4552 164.217 73.6804 164.359 73.9365C164.502 74.1926 164.591 74.4745 164.623 74.7656C164.655 75.0568 164.629 75.3514 164.546 75.6322C164.462 75.913 164.324 76.1745 164.139 76.4012C163.953 76.628 163.724 76.8155 163.466 76.9529C163.207 77.0902 162.924 77.1747 162.632 77.2012V77.1908Z" fill="#1CC886"/>
<path opacity="0.1" d="M157.639 84.6006C156.469 84.9357 152.469 83.791 152.469 83.791C152.469 83.791 155.255 80.7001 156.423 80.3629C156.982 80.2105 157.579 80.2845 158.084 80.569C158.589 80.8535 158.962 81.3255 159.122 81.8828C159.281 82.4401 159.215 83.0378 158.937 83.5465C158.659 84.0552 158.192 84.4339 157.637 84.6006H157.639Z" fill="#1CC886"/>
<path opacity="0.1" d="M157.272 66.1157C157.793 67.2168 161.296 69.4626 161.296 69.4626C161.296 69.4626 161.777 65.3289 161.256 64.2299C161.136 63.9627 160.964 63.7221 160.749 63.5222C160.535 63.3223 160.283 63.1672 160.008 63.0658C159.733 62.9645 159.441 62.9191 159.148 62.9321C158.855 62.9452 158.568 63.0165 158.303 63.1419C158.038 63.2672 157.801 63.4442 157.605 63.6623C157.409 63.8805 157.259 64.1355 157.163 64.4124C157.067 64.6893 157.028 64.9826 157.046 65.275C157.065 65.5675 157.142 65.8533 157.272 66.1157Z" fill="#1CC886"/>
<path opacity="0.1" d="M151.542 74.8555C152.375 75.7505 156.384 76.8453 156.384 76.8453C156.384 76.8453 155.605 72.7575 154.779 71.8645C154.378 71.4525 153.832 71.2133 153.258 71.198C152.683 71.1827 152.125 71.3925 151.703 71.7826C151.281 72.1727 151.028 72.7123 150.998 73.2864C150.968 73.8604 151.163 74.4235 151.542 74.8555Z" fill="#1CC886"/>
<path opacity="0.1" d="M147.14 84.1157C147.804 85.1355 151.574 86.8943 151.574 86.8943C151.574 86.8943 151.499 82.7315 150.835 81.7137C150.681 81.4622 150.479 81.244 150.239 81.0721C150 80.9002 149.728 80.7781 149.441 80.7129C149.154 80.6477 148.856 80.6408 148.566 80.6926C148.276 80.7444 147.999 80.8539 147.752 81.0145C147.505 81.1751 147.293 81.3837 147.128 81.6278C146.962 81.8719 146.848 82.1467 146.791 82.4358C146.734 82.7249 146.735 83.0226 146.795 83.3111C146.855 83.5996 146.973 83.8732 147.14 84.1157Z" fill="#1CC886"/>
<path opacity="0.1" d="M165.76 58.8662C165.344 60.0047 162.037 62.5399 162.037 62.5399C162.037 62.5399 161.204 58.4624 161.633 57.3239C161.837 56.7766 162.251 56.3329 162.783 56.0905C163.314 55.8481 163.92 55.8268 164.468 56.0313C165.015 56.2359 165.459 56.6494 165.701 57.1811C165.944 57.7127 165.965 58.3189 165.76 58.8662Z" fill="#1CC886"/>
<path opacity="0.1" d="M166.82 66.455C165.844 67.1814 161.695 67.5144 161.695 67.5144C161.695 67.5144 163.215 63.643 164.193 62.9166C164.425 62.7347 164.69 62.6011 164.974 62.5237C165.259 62.4462 165.555 62.4265 165.847 62.4656C166.139 62.5047 166.42 62.6019 166.674 62.7515C166.927 62.9011 167.149 63.1 167.324 63.3364C167.5 63.5728 167.626 63.8421 167.696 64.1282C167.765 64.4143 167.777 64.7114 167.73 65.0021C167.683 65.2928 167.578 65.5712 167.422 65.8207C167.266 66.0702 167.061 66.2859 166.82 66.455Z" fill="#1CC886"/>
<path opacity="0.1" d="M162.632 77.1908C161.423 77.324 157.674 75.5257 157.674 75.5257C157.674 75.5257 160.942 72.951 162.151 72.8199C162.442 72.7825 162.737 72.8035 163.019 72.8814C163.301 72.9594 163.565 73.0929 163.795 73.2741C164.026 73.4552 164.217 73.6804 164.359 73.9365C164.502 74.1926 164.591 74.4745 164.623 74.7656C164.655 75.0568 164.629 75.3514 164.546 75.6322C164.462 75.913 164.324 76.1745 164.139 76.4012C163.953 76.628 163.724 76.8155 163.466 76.9529C163.207 77.0902 162.924 77.1747 162.632 77.2012V77.1908Z" fill="#1CC886"/>
<path opacity="0.1" d="M157.639 84.6006C156.469 84.9357 152.469 83.791 152.469 83.791C152.469 83.791 155.255 80.7001 156.423 80.3629C156.982 80.2105 157.579 80.2845 158.084 80.569C158.589 80.8535 158.962 81.3255 159.122 81.8828C159.281 82.4401 159.215 83.0378 158.937 83.5465C158.659 84.0552 158.192 84.4339 157.637 84.6006H157.639Z" fill="#1CC886"/>
<path opacity="0.1" d="M157.272 66.1157C157.793 67.2168 161.296 69.4626 161.296 69.4626C161.296 69.4626 161.777 65.3289 161.256 64.2299C161.136 63.9627 160.964 63.7221 160.749 63.5222C160.535 63.3223 160.283 63.1672 160.008 63.0658C159.733 62.9645 159.441 62.9191 159.148 62.9321C158.855 62.9452 158.568 63.0165 158.303 63.1419C158.038 63.2672 157.801 63.4442 157.605 63.6623C157.409 63.8805 157.259 64.1355 157.163 64.4124C157.067 64.6893 157.028 64.9826 157.046 65.275C157.065 65.5675 157.142 65.8533 157.272 66.1157Z" fill="#1CC886"/>
<path opacity="0.1" d="M151.542 74.8555C152.375 75.7505 156.384 76.8453 156.384 76.8453C156.384 76.8453 155.605 72.7575 154.779 71.8645C154.378 71.4525 153.832 71.2133 153.258 71.198C152.683 71.1827 152.125 71.3925 151.703 71.7826C151.281 72.1727 151.028 72.7123 150.998 73.2864C150.968 73.8604 151.163 74.4235 151.542 74.8555Z" fill="#1CC886"/>
<path opacity="0.1" d="M147.14 84.1157C147.804 85.1355 151.574 86.8943 151.574 86.8943C151.574 86.8943 151.499 82.7315 150.835 81.7137C150.681 81.4622 150.479 81.244 150.239 81.0721C150 80.9002 149.728 80.7781 149.441 80.7129C149.154 80.6477 148.856 80.6408 148.566 80.6926C148.276 80.7444 147.999 80.8539 147.752 81.0145C147.505 81.1751 147.293 81.3837 147.128 81.6278C146.962 81.8719 146.848 82.1467 146.791 82.4358C146.734 82.7249 146.735 83.0226 146.795 83.3111C146.855 83.5996 146.973 83.8732 147.14 84.1157Z" fill="#1CC886"/>
</g>
<g opacity="0.1">
<path opacity="0.1" d="M40.2105 105.508C40.2105 105.508 31.3208 100.209 28.9002 92.4911C27.9087 89.245 25.8898 86.4087 23.1472 84.4091C21.8376 83.4684 20.4441 82.6504 18.9844 81.9655" fill="#1CC886"/>
<path opacity="0.1" d="M17.4337 77.1034C18.2663 77.9963 19.0427 82.0842 19.0427 82.0842C19.0427 82.0842 15.0276 80.9914 14.2013 80.0985C13.8229 79.6668 13.6278 79.1045 13.6575 78.5312C13.6873 77.9579 13.9395 77.4188 14.3606 77.0286C14.7817 76.6384 15.3384 76.4279 15.9124 76.4419C16.4863 76.4558 17.0321 76.6932 17.4337 77.1034Z" fill="#1CC886"/>
<path opacity="0.1" d="M24.6873 79.5865C24.8955 80.7854 23.3303 84.6402 23.3303 84.6402C23.3303 84.6402 20.5537 81.541 20.3455 80.3421C20.2879 80.0537 20.2886 79.7567 20.3476 79.4686C20.4065 79.1805 20.5225 78.9072 20.6887 78.6646C20.8549 78.422 21.068 78.2151 21.3154 78.0561C21.5628 77.8972 21.8395 77.7893 22.1292 77.7389C22.4189 77.6885 22.7157 77.6965 23.0023 77.7626C23.2888 77.8287 23.5592 77.9514 23.7976 78.1236C24.036 78.2957 24.2375 78.5139 24.3903 78.7651C24.5431 79.0164 24.6441 79.2957 24.6873 79.5865Z" fill="#1CC886"/>
<path opacity="0.1" d="M32.3968 88.1369C31.9805 89.2775 28.6732 91.8147 28.6732 91.8147C28.6732 91.8147 27.8406 87.7373 28.2673 86.5987C28.3624 86.3198 28.5124 86.0628 28.7085 85.8428C28.9046 85.6229 29.1428 85.4445 29.4091 85.3182C29.6753 85.1919 29.9642 85.1203 30.2586 85.1076C30.553 85.0949 30.8469 85.1413 31.1231 85.2442C31.3992 85.347 31.6519 85.5042 31.8663 85.7064C32.0806 85.9086 32.2522 86.1518 32.371 86.4215C32.4897 86.6912 32.5532 86.9819 32.5576 87.2766C32.5621 87.5712 32.5074 87.8637 32.3968 88.1369Z" fill="#1CC886"/>
<path opacity="0.1" d="M36.7699 95.9275C36.5451 97.1243 33.7227 100.192 33.7227 100.192C33.7227 100.192 32.2137 96.3147 32.4406 95.1199C32.4943 94.8357 32.6035 94.5648 32.7619 94.3227C32.9203 94.0806 33.1248 93.8721 33.3638 93.7091C33.6028 93.5461 33.8716 93.4317 34.1547 93.3725C34.4379 93.3134 34.73 93.3106 35.0142 93.3643C35.2985 93.418 35.5694 93.5272 35.8115 93.6856C36.0536 93.844 36.2621 94.0485 36.4251 94.2875C36.5881 94.5265 36.7025 94.7952 36.7616 95.0784C36.8208 95.3616 36.8236 95.6537 36.7699 95.9379V95.9275Z" fill="#1CC886"/>
<path opacity="0.1" d="M20.0958 87.9454C21.3113 87.9745 24.8934 85.864 24.8934 85.864C24.8934 85.864 21.4175 83.5744 20.1998 83.5453C19.6228 83.543 19.0678 83.7672 18.6542 84.1696C18.2405 84.572 18.0012 85.1205 17.9876 85.6974C17.9739 86.2744 18.1871 86.8336 18.5813 87.2551C18.9755 87.6766 19.5192 87.9267 20.0958 87.9516V87.9454Z" fill="#1CC886"/>
<path opacity="0.1" d="M25.3264 96.9933C26.4961 96.6561 29.281 93.5631 29.281 93.5631C29.281 93.5631 25.2806 92.4204 24.1108 92.7576C23.5615 92.9296 23.1012 93.3097 22.8284 93.8165C22.5556 94.3234 22.4919 94.9169 22.651 95.4701C22.81 96.0233 23.1792 96.4924 23.6795 96.777C24.1798 97.0616 24.7716 97.1393 25.3285 96.9933H25.3264Z" fill="#1CC886"/>
<path opacity="0.1" d="M31.6163 105.088C32.8277 104.955 36.0934 102.382 36.0934 102.382C36.0934 102.382 32.3469 100.58 31.1335 100.717C30.8345 100.733 30.542 100.81 30.2739 100.944C30.0058 101.077 29.7676 101.264 29.5741 101.492C29.3805 101.72 29.2355 101.986 29.1481 102.272C29.0606 102.559 29.0324 102.86 29.0653 103.157C29.0982 103.455 29.1914 103.743 29.3393 104.003C29.4872 104.264 29.6866 104.491 29.9253 104.672C30.1641 104.852 30.4372 104.982 30.728 105.054C31.0187 105.126 31.321 105.137 31.6163 105.088Z" fill="#1CC886"/>
<path opacity="0.1" d="M17.4337 77.1034C18.2663 77.9963 19.0427 82.0842 19.0427 82.0842C19.0427 82.0842 15.0276 80.9914 14.2013 80.0985C13.8229 79.6668 13.6278 79.1045 13.6575 78.5312C13.6873 77.9579 13.9395 77.4188 14.3606 77.0286C14.7817 76.6384 15.3384 76.4279 15.9124 76.4419C16.4863 76.4558 17.0321 76.6932 17.4337 77.1034Z" fill="#1CC886"/>
<path opacity="0.1" d="M24.6873 79.5865C24.8955 80.7854 23.3303 84.6402 23.3303 84.6402C23.3303 84.6402 20.5537 81.541 20.3455 80.3421C20.2879 80.0537 20.2886 79.7567 20.3476 79.4686C20.4065 79.1805 20.5225 78.9072 20.6887 78.6646C20.8549 78.422 21.068 78.2151 21.3154 78.0561C21.5628 77.8972 21.8395 77.7893 22.1292 77.7389C22.4189 77.6885 22.7157 77.6965 23.0023 77.7626C23.2888 77.8287 23.5592 77.9514 23.7976 78.1236C24.036 78.2957 24.2375 78.5139 24.3903 78.7651C24.5431 79.0164 24.6441 79.2957 24.6873 79.5865Z" fill="#1CC886"/>
<path opacity="0.1" d="M32.3968 88.1369C31.9805 89.2775 28.6732 91.8147 28.6732 91.8147C28.6732 91.8147 27.8406 87.7373 28.2673 86.5987C28.3624 86.3198 28.5124 86.0628 28.7085 85.8428C28.9046 85.6229 29.1428 85.4445 29.4091 85.3182C29.6753 85.1919 29.9642 85.1203 30.2586 85.1076C30.553 85.0949 30.8469 85.1413 31.1231 85.2442C31.3992 85.347 31.6519 85.5042 31.8663 85.7064C32.0806 85.9086 32.2522 86.1518 32.371 86.4215C32.4897 86.6912 32.5532 86.9819 32.5576 87.2766C32.5621 87.5712 32.5074 87.8637 32.3968 88.1369Z" fill="#1CC886"/>
<path opacity="0.1" d="M36.7699 95.9275C36.5451 97.1243 33.7227 100.192 33.7227 100.192C33.7227 100.192 32.2137 96.3147 32.4406 95.1199C32.4943 94.8357 32.6035 94.5648 32.7619 94.3227C32.9203 94.0806 33.1248 93.8721 33.3638 93.7091C33.6028 93.5461 33.8716 93.4317 34.1547 93.3725C34.4379 93.3134 34.73 93.3106 35.0142 93.3643C35.2985 93.418 35.5694 93.5272 35.8115 93.6856C36.0536 93.844 36.2621 94.0485 36.4251 94.2875C36.5881 94.5265 36.7025 94.7952 36.7616 95.0784C36.8208 95.3616 36.8236 95.6537 36.7699 95.9379V95.9275Z" fill="#1CC886"/>
<path opacity="0.1" d="M20.0958 87.9454C21.3113 87.9745 24.8934 85.864 24.8934 85.864C24.8934 85.864 21.4175 83.5744 20.1998 83.5453C19.6228 83.543 19.0678 83.7672 18.6542 84.1696C18.2405 84.572 18.0012 85.1205 17.9876 85.6974C17.9739 86.2744 18.1871 86.8336 18.5813 87.2551C18.9755 87.6766 19.5192 87.9267 20.0958 87.9516V87.9454Z" fill="#1CC886"/>
<path opacity="0.1" d="M25.3264 96.9933C26.4961 96.6561 29.281 93.5631 29.281 93.5631C29.281 93.5631 25.2806 92.4204 24.1108 92.7576C23.5615 92.9296 23.1012 93.3097 22.8284 93.8165C22.5556 94.3234 22.4919 94.9169 22.651 95.4701C22.81 96.0233 23.1792 96.4924 23.6795 96.777C24.1798 97.0616 24.7716 97.1393 25.3285 96.9933H25.3264Z" fill="#1CC886"/>
<path opacity="0.1" d="M31.6163 105.088C32.8277 104.955 36.0934 102.382 36.0934 102.382C36.0934 102.382 32.3469 100.58 31.1335 100.717C30.8345 100.733 30.542 100.81 30.2739 100.944C30.0058 101.077 29.7676 101.264 29.5741 101.492C29.3805 101.72 29.2355 101.986 29.1481 102.272C29.0606 102.559 29.0324 102.86 29.0653 103.157C29.0982 103.455 29.1914 103.743 29.3393 104.003C29.4872 104.264 29.6866 104.491 29.9253 104.672C30.1641 104.852 30.4372 104.982 30.728 105.054C31.0187 105.126 31.321 105.137 31.6163 105.088Z" fill="#1CC886"/>
</g>
<path opacity="0.1" d="M149.18 167.838C155.156 170.437 162.447 168.856 169.228 169.039C170.154 169.064 171.139 169.141 171.882 169.59C172.625 170.04 172.993 170.766 173.503 171.391C175.403 173.709 179.298 174.454 182.701 174.061C186.104 173.668 189.224 172.365 192.436 171.374C197.987 169.659 204.331 168.876 209.807 170.75C210.308 170.92 210.848 171.118 211.376 171.049C212.577 170.897 212.935 169.653 213.774 168.943C215.289 167.659 218.582 168.008 219.248 166.316C219.637 165.325 218.74 164.31 217.762 163.633C214.015 161.044 208.666 160.617 203.769 161.017C198.871 161.417 194.057 162.518 189.134 162.522C183.001 162.522 177.075 160.832 171.001 160.139C166.795 159.66 162.203 159.722 158.259 161.131C153.984 162.655 153.043 166.087 149.18 167.838Z" fill="#1CC886"/>
<path opacity="0.1" d="M36.0934 159.864C46.2922 162.801 58.739 161.013 70.3116 161.221C71.8955 161.25 73.5731 161.335 74.8448 161.845C76.1166 162.355 76.741 163.177 77.6131 163.881C80.8559 166.501 87.5018 167.344 93.3089 166.899C99.116 166.454 104.444 164.982 109.927 163.862C119.401 161.924 130.233 161.042 139.578 163.155C140.436 163.348 141.339 163.571 142.259 163.494C144.307 163.321 144.917 161.916 146.351 161.113C148.938 159.656 154.556 160.057 155.693 158.147C156.359 157.027 154.827 155.878 153.157 155.114C146.772 152.19 137.634 151.707 129.273 152.159C120.912 152.61 112.695 153.853 104.297 153.859C93.8272 153.859 83.7116 151.95 73.3442 151.166C66.1633 150.625 58.3269 150.691 51.5935 152.29C44.2941 154.015 42.6852 157.893 36.0934 159.864Z" fill="#1CC886"/>
<path opacity="0.1" d="M8.79382 167.061C11.7078 168.814 15.2462 167.748 18.5473 167.871C18.9989 167.888 19.4776 167.94 19.8398 168.241C20.202 168.543 20.381 169.037 20.6286 169.457C21.5528 171.02 23.4469 171.524 25.1016 171.257C26.7563 170.991 28.2757 170.115 29.8388 169.445C32.5446 168.289 35.6272 167.763 38.2893 169.028C38.5174 169.174 38.7847 169.247 39.0553 169.236C39.6381 169.132 39.8129 168.294 40.2208 167.815C40.9577 166.949 42.5603 167.19 42.8829 166.044C43.0724 165.375 42.6353 164.691 42.1607 164.235C40.3416 162.489 37.7357 162.201 35.3525 162.47C32.9693 162.738 30.6277 163.467 28.232 163.467C25.2494 163.467 22.3666 162.328 19.411 161.86C17.3629 161.535 15.1296 161.577 13.2105 162.53C11.1312 163.571 10.6733 165.885 8.79382 167.061Z" fill="#1CC886"/>
<path d="M144.757 7.4286H48.0511C46.8879 7.42669 45.7357 7.65394 44.6603 8.09737C43.585 8.54081 42.6075 9.19174 41.7837 10.013C40.9599 10.8342 40.306 11.8097 39.8593 12.8837C39.4126 13.9578 39.1818 15.1092 39.1802 16.2725V150.258C39.1851 152.606 40.1224 154.856 41.7859 156.514C43.4494 158.171 45.703 159.1 48.0511 159.096H144.757C145.92 159.098 147.072 158.87 148.148 158.427C149.223 157.984 150.201 157.333 151.024 156.511C151.848 155.69 152.502 154.715 152.949 153.641C153.395 152.567 153.626 151.415 153.628 150.252V16.2725C153.626 15.1092 153.395 13.9578 152.949 12.8837C152.502 11.8097 151.848 10.8342 151.024 10.013C150.201 9.19174 149.223 8.54081 148.148 8.09737C147.072 7.65394 145.92 7.42669 144.757 7.4286Z" fill="url(#paint0_linear)"/>
<path d="M148.093 9.24567H44.7063C42.4072 9.24567 40.5435 11.1094 40.5435 13.4085V153.578C40.5435 155.877 42.4072 157.741 44.7063 157.741H148.093C150.392 157.741 152.256 155.877 152.256 153.578V13.4085C152.256 11.1094 150.392 9.24567 148.093 9.24567Z" fill="#535461"/>
<path d="M146.58 23.291H46.2194V143.694H146.58V23.291Z" fill="#F6F7F9"/>
<path d="M95.9461 17.4193C96.699 17.4193 97.3094 16.8089 97.3094 16.056C97.3094 15.3031 96.699 14.6927 95.9461 14.6927C95.1931 14.6927 94.5828 15.3031 94.5828 16.056C94.5828 16.8089 95.1931 17.4193 95.9461 17.4193Z" fill="#F6F7F9"/>
<path d="M95.946 154.563C98.2037 154.563 100.034 152.732 100.034 150.475C100.034 148.217 98.2037 146.387 95.946 146.387C93.6884 146.387 91.8582 148.217 91.8582 150.475C91.8582 152.732 93.6884 154.563 95.946 154.563Z" fill="#F6F7F9"/>
<g opacity="0.2">
<path opacity="0.2" d="M146.58 23.291H46.2194V29.2916H146.58V23.291Z" fill="#1CC886"/>
</g>
<path d="M49.3582 27.5724C50.0651 27.5724 50.6382 26.9993 50.6382 26.2923C50.6382 25.5854 50.0651 25.0123 49.3582 25.0123C48.6512 25.0123 48.0781 25.5854 48.0781 26.2923C48.0781 26.9993 48.6512 27.5724 49.3582 27.5724Z" fill="#F6F7F9"/>
<path d="M52.6197 27.5724C53.3266 27.5724 53.8997 26.9993 53.8997 26.2923C53.8997 25.5854 53.3266 25.0123 52.6197 25.0123C51.9127 25.0123 51.3396 25.5854 51.3396 26.2923C51.3396 26.9993 51.9127 27.5724 52.6197 27.5724Z" fill="#F6F7F9"/>
<path d="M55.8792 27.5724C56.5861 27.5724 57.1592 26.9993 57.1592 26.2923C57.1592 25.5854 56.5861 25.0123 55.8792 25.0123C55.1722 25.0123 54.5991 25.5854 54.5991 26.2923C54.5991 26.9993 55.1722 27.5724 55.8792 27.5724Z" fill="#F6F7F9"/>
<path d="M142.673 58.6851H49.2167V58.9973H142.673V58.6851Z" fill="#DCE0ED"/>
<path d="M142.673 65.9346H49.2167V66.2468H142.673V65.9346Z" fill="#DCE0ED"/>
<path d="M142.673 73.1862H49.2167V73.4984H142.673V73.1862Z" fill="#DCE0ED"/>
<path d="M142.673 80.4357H49.2167V80.7479H142.673V80.4357Z" fill="#DCE0ED"/>
<path d="M142.673 87.6852H49.2167V87.9975H142.673V87.6852Z" fill="#DCE0ED"/>
<g opacity="0.2">
<path opacity="0.2" d="M142.673 87.9974H49.1022V73.7399L57.6838 77.9693L66.5651 79.1744L74.3578 76.8245L83.7595 69.5334L88.4885 66.8026L91.9457 66.1365L95.253 66.3134L100.692 69.0005L108.087 73.7107L113.89 74.4559L118.49 72.8698L128.243 64.8835L133.222 63.1081L138.432 63.9136L142.673 66.3634V87.9974Z" fill="#1CC886"/>
</g>
<path d="M65.412 79.1702C56.9844 79.1702 49.1979 74.0167 49.1001 73.9501L49.3332 73.6045C49.4539 73.6857 61.4386 81.6138 71.6229 77.6425C75.3361 76.1855 77.9795 73.9417 80.5375 71.7625C83.2079 69.4875 85.7285 67.3395 89.167 66.4071C93.1092 65.3393 97.4176 66.3051 100.692 68.9963C103.491 71.2963 109.065 74.9887 114.953 73.8855C117.955 73.3215 120.484 71.1298 123.162 68.809C128.297 64.359 133.609 59.757 142.796 66.3592L142.553 66.6964C133.632 60.2857 128.449 64.7794 123.435 69.1233C120.713 71.4815 118.142 73.7024 115.03 74.2935C108.974 75.4299 103.283 71.6626 100.427 69.3169C97.2574 66.713 93.0904 65.7785 89.2752 66.8088C85.9283 67.7163 83.4473 69.8351 80.806 72.0789C78.223 74.281 75.5526 76.556 71.7748 78.0296C69.7436 78.8033 67.5855 79.1902 65.412 79.1702Z" fill="#1CC886"/>
<path d="M94.1872 68.4323C95.4666 68.4323 96.5038 67.3951 96.5038 66.1157C96.5038 64.8363 95.4666 63.7991 94.1872 63.7991C92.9078 63.7991 91.8706 64.8363 91.8706 66.1157C91.8706 67.3951 92.9078 68.4323 94.1872 68.4323Z" fill="#1CC886"/>
<g opacity="0.2">
<path opacity="0.2" d="M124.405 35.4609H95.1821C95.0562 35.4609 94.9355 35.5109 94.8465 35.5999C94.7575 35.6889 94.7075 35.8096 94.7075 35.9354V55.6983C94.7076 55.7933 94.7363 55.8861 94.7898 55.9647C94.8432 56.0432 94.919 56.1039 95.0074 56.1389C95.0957 56.1739 95.1926 56.1816 95.2853 56.1609C95.3781 56.1402 95.4625 56.0922 95.5276 56.023L100.592 50.6218C100.636 50.5744 100.689 50.5367 100.749 50.5109C100.808 50.4852 100.872 50.4719 100.937 50.4719H124.405C124.531 50.4719 124.651 50.4219 124.74 50.3329C124.829 50.2439 124.879 50.1232 124.879 49.9974V35.9313C124.878 35.8061 124.828 35.6865 124.739 35.5984C124.65 35.5103 124.53 35.4609 124.405 35.4609Z" fill="#1CC886"/>
</g>
<path d="M118.113 39.12H101.472V41.2014H118.113V39.12Z" fill="#F6F7F9"/>
<path d="M106.041 43.7324H101.472V45.8138H106.041V43.7324Z" fill="#F6F7F9"/>
<g opacity="0.2">
<path opacity="0.2" d="M61.6779 102.892H57.1093V104.973H61.6779V102.892Z" fill="#1CC886"/>
</g>
<g opacity="0.2">
<path opacity="0.2" d="M61.6779 106.915H57.1093V108.997H61.6779V106.915Z" fill="#1CC886"/>
</g>
<g opacity="0.2">
<path opacity="0.2" d="M61.6779 110.939H57.1093V113.02H61.6779V110.939Z" fill="#1CC886"/>
</g>
<g opacity="0.2">
<path opacity="0.2" d="M61.6779 114.964H57.1093V117.045H61.6779V114.964Z" fill="#1CC886"/>
</g>
<g opacity="0.2">
<path opacity="0.2" d="M61.6779 118.987H57.1093V121.069H61.6779V118.987Z" fill="#1CC886"/>
</g>
<g opacity="0.2">
<path opacity="0.2" d="M61.6779 123.011H57.1093V125.092H61.6779V123.011Z" fill="#1CC886"/>
</g>
<g opacity="0.2">
<path opacity="0.2" d="M61.6779 127.036H57.1093V129.118H61.6779V127.036Z" fill="#1CC886"/>
</g>
<g opacity="0.2">
<path opacity="0.2" d="M61.6779 131.059H57.1093V133.141H61.6779V131.059Z" fill="#1CC886"/>
</g>
<g opacity="0.2">
<path opacity="0.2" d="M70.2803 133.141H65.7117V135.222H70.2803V133.141Z" fill="#1CC886"/>
</g>
<g opacity="0.2">
<path opacity="0.2" d="M78.3292 133.141H73.7605V135.222H78.3292V133.141Z" fill="#1CC886"/>
</g>
<g opacity="0.2">
<path opacity="0.2" d="M86.378 133.141H81.8093V135.222H86.378V133.141Z" fill="#1CC886"/>
</g>
<g opacity="0.2">
<path opacity="0.2" d="M94.4246 133.141H89.856V135.222H94.4246V133.141Z" fill="#1CC886"/>
</g>
<g opacity="0.2">
<path opacity="0.2" d="M102.473 133.141H97.9048V135.222H102.473V133.141Z" fill="#1CC886"/>
</g>
<g opacity="0.2">
<path opacity="0.2" d="M110.522 133.141H105.953V135.222H110.522V133.141Z" fill="#1CC886"/>
</g>
<g opacity="0.2">
<path opacity="0.2" d="M118.569 133.141H114V135.222H118.569V133.141Z" fill="#1CC886"/>
</g>
<g opacity="0.2">
<path opacity="0.2" d="M126.617 133.141H122.049V135.222H126.617V133.141Z" fill="#1CC886"/>
</g>
<g opacity="0.2">
<path opacity="0.2" d="M134.666 133.141H130.098V135.222H134.666V133.141Z" fill="#1CC886"/>
</g>
<path d="M118.113 43.7324H111.176V45.8138H118.113V43.7324Z" fill="#F6F7F9"/>
<path d="M70.2803 118.015H65.7117V131.059H70.2803V118.015Z" fill="#1CC886"/>
<path d="M78.3292 111.979H73.7605V131.059H78.3292V111.979Z" fill="#1CC886"/>
<path d="M86.378 106.915H81.8093V131.059H86.378V106.915Z" fill="#1CC886"/>
<path d="M94.4246 109.54H89.856V131.057H94.4246V109.54Z" fill="#1CC886"/>
<path d="M102.473 104.973H97.9048V131.059H102.473V104.973Z" fill="#1CC886"/>
<g opacity="0.2">
<path opacity="0.2" d="M110.522 114.964H105.953V131.059H110.522V114.964Z" fill="#1CC886"/>
</g>
<g opacity="0.2">
<path opacity="0.2" d="M118.569 114.964H114V131.059H118.569V114.964Z" fill="#1CC886"/>
</g>
<g opacity="0.2">
<path opacity="0.2" d="M126.617 114.964H122.049V131.059H126.617V114.964Z" fill="#1CC886"/>
</g>
<g opacity="0.2">
<path opacity="0.2" d="M134.666 114.964H130.098V131.059H134.666V114.964Z" fill="#1CC886"/>
</g>
<path d="M205.95 56.7223C201.002 53.8771 199.133 53.1715 199.123 53.1673L199.023 53.0945C198.483 52.68 198.054 52.1388 197.774 51.5188C197.774 51.4044 197.774 51.292 197.774 51.1796V51.2129C197.853 49.7059 198.925 48.3343 199.943 47.1375L202.543 44.0778C202.839 43.7758 203.068 43.4139 203.213 43.0163C203.267 42.8035 203.29 42.5842 203.284 42.3649C203.284 42.2754 203.284 42.1859 203.284 42.0984C203.271 41.3387 203.248 40.5769 203.221 39.8089C203.196 39.1449 203.026 38.3082 202.362 38.1708C202.016 38.1001 201.56 38.225 201.377 37.9273C201.316 37.8057 201.3 37.6661 201.333 37.5339C201.332 37.5443 201.332 37.5548 201.333 37.5652V37.5277C201.463 37.0151 201.546 36.492 201.581 35.9646C201.594 35.6965 201.557 35.4283 201.473 35.1736C201.088 34.0705 199.764 33.6188 198.592 33.4107C197.42 33.2025 196.109 33.0235 195.374 32.1077C195.147 31.8247 194.993 31.4833 194.735 31.2273C194.396 30.927 193.983 30.7229 193.539 30.6362C192.085 30.277 190.554 30.4102 189.184 31.015C188.618 31.2668 188.05 31.6082 187.43 31.5707C186.809 31.5333 186.233 31.0858 185.596 30.9775C184.568 30.8027 183.583 31.5582 183.077 32.4512C182.777 32.9823 182.617 33.581 182.611 34.1912C182.611 34.2245 182.611 34.2599 182.611 34.2932C182.596 34.9491 182.835 35.5855 183.279 36.0686C183.723 36.5286 184.385 36.845 184.568 37.4507C184.643 37.6963 184.624 37.9627 184.691 38.2125C184.691 38.2437 184.709 38.2749 184.72 38.3041L184.686 38.3478C183.625 39.7079 183.05 41.3847 183.055 43.11C183.065 44.7836 183.608 46.4104 184.605 47.7552C185.601 49.0999 186.999 50.0929 188.597 50.5905C188.597 50.6676 188.597 50.7466 188.597 50.8237C188.597 51.7686 188.329 52.7323 187.521 53.4421L180.515 56.2603C180.515 56.2603 176.292 55.7586 174.769 61.9321C174.523 62.957 174.435 64.0132 174.506 65.0646C174.562 65.995 174.433 67.6351 173.351 69.756C171.617 73.1487 172.013 80.9373 175.555 81.7095C178.9 82.438 180.209 82.1258 180.343 82.0987V82.234C180.288 83.691 179.758 96.3022 177.828 97.8279C177.295 98.2441 177.395 98.5355 177.828 98.727C177.828 98.727 177.828 98.8082 177.816 98.9539C177.757 99.8759 177.46 103.387 176.169 105.385C174.673 107.698 174.829 121.042 174.829 121.042L173.824 128.916C173.824 128.916 174.448 133.774 173.824 134.623C173.262 135.378 172.512 153.355 172.367 157.25H172.3C171.992 157.268 171.693 157.362 171.429 157.523C171.165 157.683 170.945 157.906 170.787 158.172C169.954 159.516 167.061 161.999 167.061 161.999C166.437 162.892 164.108 163.746 162.878 164.15C162.713 164.202 162.554 164.272 162.403 164.358C161.943 164.608 161.574 164.997 161.348 165.469C161.268 165.608 161.216 165.762 161.197 165.922C161.177 166.081 161.189 166.243 161.233 166.397C161.55 167.168 168.085 167.707 169.738 166.936C171.039 166.329 176.19 165.532 178.328 165.219C178.716 165.17 179.077 164.993 179.354 164.717C179.63 164.44 179.808 164.08 179.858 163.692C179.876 163.556 179.868 163.419 179.832 163.287C179.796 163.156 179.734 163.033 179.649 162.926C179.233 162.418 179.025 161.034 178.936 160.13C179.109 160.06 179.271 159.964 179.416 159.845C179.241 157.043 179.642 154.235 180.596 151.595C182.172 147.432 182.645 139.716 182.262 134.704C182.262 134.704 187.065 114.036 190.845 112.106C190.904 112.179 192.737 114.535 192.97 121.822C193.208 129.226 195.884 134.084 195.884 134.084C195.884 134.084 194.702 146.655 195.884 151.359L194.338 158.782C194.225 158.684 194.153 158.609 194.153 158.609C194.153 158.609 194.198 158.817 194.263 159.146L194.23 159.302L194.296 159.319C194.471 160.247 194.731 161.864 194.625 162.813C194.563 163.352 194.417 164.093 194.309 164.82C194.146 165.962 194.101 167.07 194.702 167.317C195.687 167.713 201.475 168.254 202.459 166.982C202.68 166.723 202.824 166.407 202.875 166.07C202.926 165.733 202.881 165.389 202.747 165.076C202.675 164.901 202.578 164.738 202.459 164.591C202.459 164.591 200.923 162.079 201.356 160.307C201.397 160.134 201.402 159.954 201.371 159.779C201.339 159.604 201.272 159.437 201.173 159.289C201.24 158.419 201.589 154.396 202.499 150.978C203.484 147.267 205.563 139.131 204.033 133.78C203.975 133.572 203.908 133.364 203.837 133.155C202.955 130.235 202.66 127.168 202.971 124.133C202.404 121.541 202.404 118.857 202.971 116.265C203.916 111.946 204.576 107.704 204.576 107.704C204.576 107.704 205.099 101.999 204.643 98.5001L204.612 98.2754L204.861 98.2191C204.861 98.2191 203.523 92.2809 203.051 88.5032C202.938 87.6103 202.792 86.4801 202.634 85.2729C203.071 85.2031 203.5 85.0966 203.919 84.9544C208.156 83.4829 209.488 70.2202 209.488 70.2202V66.0158C209.488 66.0158 210.912 59.5759 205.95 56.7223ZM174.271 159.142C174.14 159.075 174.063 159.031 174.063 159.031L174.271 159.142Z" fill="url(#paint1_linear)"/>
<path d="M203.384 133.268C205.228 138.571 203.076 147.178 202.077 151.02C201.078 154.862 200.769 159.477 200.769 159.477C196.85 160.091 194.007 159.321 194.007 159.321L195.62 151.411C194.467 146.724 195.62 134.196 195.62 134.196C195.62 134.196 193.008 129.355 192.777 121.976C192.55 114.712 190.76 112.366 190.696 112.294C187.007 114.215 182.318 134.814 182.318 134.814C182.703 139.81 182.241 147.494 180.705 151.644C179.773 154.281 179.381 157.077 179.552 159.868C179.015 160.322 178.267 160.399 177.46 160.27C175.272 159.906 172.648 158.016 172.648 158.016C172.648 158.016 173.48 135.576 174.105 134.729C174.729 133.882 174.105 129.041 174.105 129.041L175.102 121.202C175.102 121.202 174.95 107.904 176.409 105.591C177.67 103.6 177.959 100.101 178.016 99.1829C178.016 99.0372 178.028 98.956 178.028 98.956L180.251 96.2918C180.251 96.2918 201.773 94.6787 203.386 96.2918C203.783 96.6894 204.027 97.5885 204.173 98.7229C204.616 102.209 204.108 107.896 204.108 107.896C204.108 107.896 203.463 112.123 202.541 116.429C201.985 119.013 201.985 121.685 202.541 124.268C202.235 127.294 202.521 130.351 203.384 133.268Z" fill="#65617D"/>
<path d="M202.039 166.97C201.077 168.237 195.429 167.698 194.467 167.305C193.88 167.061 193.926 165.958 194.084 164.82C194.184 164.095 194.332 163.363 194.392 162.819C194.546 161.435 193.93 158.63 193.93 158.63C193.93 158.63 195.2 159.974 195.506 158.63C195.641 158.043 196.113 157.741 196.602 157.589C197.261 157.391 197.969 157.435 198.599 157.714C199.595 158.147 201.263 159.071 200.963 160.32C200.547 162.085 202.039 164.589 202.039 164.589C202.155 164.735 202.249 164.898 202.318 165.072C202.45 165.383 202.493 165.725 202.444 166.06C202.395 166.394 202.255 166.709 202.039 166.97Z" fill="#A27772"/>
<path opacity="0.1" d="M202.039 166.97C201.078 168.237 195.429 167.698 194.467 167.305C193.88 167.061 193.926 165.958 194.084 164.82C194.69 165.103 195.722 165.34 197.441 165.18C197.843 165.142 198.247 165.13 198.651 165.142C199.873 165.199 201.099 165.174 202.318 165.069C202.45 165.381 202.494 165.724 202.445 166.059C202.396 166.394 202.255 166.709 202.039 166.97Z" fill="black"/>
<path opacity="0.1" d="M182.324 134.806C182.709 139.801 182.247 147.486 180.711 151.636C179.779 154.272 179.387 157.069 179.558 159.86C179.021 160.313 178.274 160.39 177.466 160.261C177.93 157.014 179.905 143.052 181.181 132.019C182.613 119.454 189.357 110.807 189.357 110.807L190.702 112.287C187.009 114.206 182.324 134.806 182.324 134.806Z" fill="black"/>
<path d="M199.733 54.029L198.794 58.6393L194.198 66.3634L188.531 63.9427C188.531 63.9427 180.83 55.8732 185.669 54.7201C186.249 54.5962 186.796 54.3523 187.276 54.0041C188.227 53.2881 188.525 52.2453 188.525 51.2254C188.525 49.5415 187.738 47.9181 187.738 47.9181L197.651 44.796C197.242 46.0987 197.003 47.4489 196.94 48.8131C196.865 51.5189 197.868 52.8426 198.69 53.4775C198.998 53.7284 199.352 53.9159 199.733 54.029Z" fill="#FBBEBE"/>
<path opacity="0.1" d="M197.658 44.8063C197.248 46.1091 197.009 47.4593 196.946 48.8234C196.766 49.0384 196.573 49.2427 196.369 49.4354C195.346 50.4136 194.077 51.0965 192.697 51.4116C191.317 51.7268 189.877 51.6624 188.531 51.2254C188.531 49.5415 187.744 47.918 187.744 47.918L197.658 44.8063Z" fill="black"/>
<path d="M198.794 43.5388C198.794 45.0894 198.334 46.605 197.472 47.8939C196.61 49.1829 195.385 50.1872 193.952 50.78C192.519 51.3727 190.943 51.5271 189.422 51.2238C187.902 50.9204 186.505 50.1729 185.409 49.0757C184.314 47.9785 183.568 46.5811 183.267 45.06C182.965 43.539 183.122 41.9628 183.716 40.5308C184.311 39.0987 185.317 37.8752 186.607 37.015C187.897 36.1548 189.413 35.6965 190.964 35.6982C191.994 35.6949 193.015 35.8955 193.967 36.2885C194.919 36.6814 195.784 37.259 196.512 37.9879C197.24 38.7168 197.816 39.5825 198.208 40.5352C198.6 41.4879 198.799 42.5087 198.794 43.5388Z" fill="#FBBEBE"/>
<path opacity="0.1" d="M199.733 54.029L198.794 58.6393L194.198 66.3634L188.531 63.9427C188.531 63.9427 180.83 55.8731 185.669 54.72C186.249 54.5962 186.796 54.3523 187.276 54.004C186.402 56.4081 190.011 61.4076 190.011 61.4076C190.427 62.032 191.395 61.6365 191.395 61.6365C193.718 61.2869 197.999 54.5993 198.696 53.4879C199.003 53.7344 199.355 53.9182 199.733 54.029Z" fill="black"/>
<path opacity="0.1" d="M204.17 98.7353C202.807 99.0455 195.256 100.719 192.392 100.301C189.243 99.8385 183.115 99.5325 183.115 99.5325C183.115 99.5325 179.214 99.7407 178.013 99.1953C178.013 99.0496 178.026 98.9685 178.026 98.9685L180.249 96.3043C180.249 96.3043 201.77 94.6912 203.384 96.3043C203.781 96.6977 204.025 97.5968 204.17 98.7353Z" fill="black"/>
<path d="M190.011 61.6365C190.011 61.6365 185.956 56.0168 187.484 53.8334L180.634 56.6412C180.634 56.6412 176.511 56.1416 175.014 62.2943C174.775 63.3166 174.689 64.3687 174.758 65.4163C174.812 66.3446 174.687 67.9785 173.63 70.0912C171.938 73.4734 172.323 81.235 175.782 82.0051C179.242 82.7752 180.47 82.3881 180.47 82.3881C180.47 82.3881 180.01 96.4541 178.011 98.0672C176.013 99.6803 183.105 99.2973 183.105 99.2973C183.105 99.2973 189.232 99.6054 192.383 100.065C195.535 100.525 204.372 98.4523 204.372 98.4523C204.372 98.4523 203.065 92.5328 202.605 88.7675C202.145 85.0023 201.067 76.9827 201.067 76.9827L208.908 66.3675C208.908 66.3675 210.29 59.9506 205.448 57.1074C200.607 54.2642 198.788 53.569 198.788 53.569C198.788 53.569 193.93 61.4783 191.395 61.8676C191.395 61.8676 190.431 62.2547 190.011 61.6365Z" fill="#7C7CDD"/>
<path opacity="0.1" d="M181.019 63.8657C181.019 63.8657 180.942 66.4029 181.402 67.4041C181.862 68.4053 183.554 73.9376 183.554 73.9376H179.712C179.712 73.9376 181.793 71.7084 181.633 70.6323C181.473 69.5563 181.019 63.8657 181.019 63.8657Z" fill="black"/>
<path d="M192.394 83.0041C192.394 83.0041 183.906 80.9228 183.115 79.1598C182.324 77.3969 180.141 73.438 180.141 73.438L181.036 72.2308L185.165 75.4716C185.165 75.4716 190.083 79.3908 192.39 79.7759C194.696 80.161 192.394 83.0041 192.394 83.0041Z" fill="#FBBEBE"/>
<path opacity="0.05" d="M192.394 83.0041C192.394 83.0041 183.906 80.9228 183.115 79.1598C182.324 77.3969 180.141 73.438 180.141 73.438L181.036 72.2308L185.165 75.4716C185.165 75.4716 190.083 79.3908 192.39 79.7759C194.696 80.161 192.394 83.0041 192.394 83.0041Z" fill="black"/>
<path d="M199.733 73.0134V77.6175H198.992C195.335 77.6182 191.739 78.5493 188.541 80.3233L187.155 81.0934L186.782 81.3016L184.399 75.9357L186.628 73.9376H186.743C187.288 73.9896 189.646 74.1873 190.645 73.8502C191.595 73.5275 192.773 72.5056 195.568 73.2257C196.946 73.5775 198.122 75.1219 199.458 74.639L199.733 73.0134Z" fill="#FBBEBE"/>
<path opacity="0.1" d="M207.149 64.6358L208.687 66.3634V70.5532C208.687 70.5532 207.38 83.7722 203.23 85.2333C199.079 86.6945 191.672 84.3862 191.672 84.3862C191.672 84.3862 189.757 79.3138 190.652 79.0079C191.547 78.7019 198.561 76.8474 198.561 76.8474C198.561 76.8474 198.463 69.0921 199.999 66.7859C199.999 66.7859 199 59.5635 202.46 59.4094C205.919 59.2554 207.149 64.6358 207.149 64.6358Z" fill="black"/>
<path d="M207.38 64.6358L208.918 66.3634V70.5532C208.918 70.5532 207.615 83.7722 203.452 85.2333C199.29 86.6945 191.892 84.3862 191.892 84.3862C191.892 84.3862 189.979 79.3138 190.874 79.0079C191.769 78.7019 198.784 76.8474 198.784 76.8474C198.784 76.8474 198.684 69.0921 200.222 66.7859C200.222 66.7859 199.223 59.5635 202.682 59.4094C206.141 59.2554 207.38 64.6358 207.38 64.6358Z" fill="#7C7CDD"/>
<path opacity="0.1" d="M196.644 46.869C196.675 46.3633 196.686 45.8283 196.469 45.3725C196.253 44.9167 195.745 44.5525 195.25 44.669C194.592 44.823 194.309 45.6785 193.663 45.8845C193.12 46.0573 192.527 45.6764 192.269 45.1644C192.011 44.6524 192.003 44.0612 192 43.4993C192 42.8582 192 42.215 192 41.574C192 40.8746 191.978 40.117 191.547 39.5717C191.012 38.8869 189.753 38.5892 188.912 38.6163C188.352 38.6228 187.814 38.8398 187.407 39.2241C186.957 39.605 186.437 39.888 185.823 39.7861C185.568 39.7474 185.329 39.6374 185.134 39.4687C184.938 39.3 184.795 39.0795 184.72 38.8328V38.8078C185.373 37.9444 186.198 37.2258 187.143 36.6972C188.089 36.1687 189.133 35.8416 190.211 35.7368C191.288 35.6319 192.376 35.7514 193.405 36.0878C194.434 36.4242 195.383 36.9702 196.19 37.6914C196.998 38.4125 197.648 39.2932 198.098 40.2779C198.548 41.2626 198.79 42.3299 198.807 43.4125C198.825 44.4952 198.618 45.5697 198.199 46.5683C197.781 47.567 197.16 48.468 196.376 49.2148C196.509 48.4385 196.599 47.6554 196.644 46.869Z" fill="black"/>
<path d="M185.819 39.5488C185.563 39.5097 185.324 39.3993 185.129 39.2302C184.934 39.0612 184.791 38.8404 184.715 38.5934C184.651 38.3457 184.668 38.0814 184.595 37.8337C184.416 37.2301 183.762 36.9158 183.346 36.4579C182.48 35.5379 182.536 34.0268 183.15 32.9195C183.646 32.0287 184.607 31.2773 185.608 31.45C186.233 31.5583 186.768 32.0016 187.398 32.0412C188.029 32.0807 188.558 31.7394 189.111 31.4875C190.444 30.884 191.942 30.7512 193.36 31.1108C193.795 31.1983 194.199 31.4018 194.529 31.6998C194.752 31.9809 194.961 32.2734 195.154 32.5761C195.872 33.4898 197.154 33.6688 198.297 33.8749C199.439 34.0809 200.73 34.5326 201.106 35.6316C201.354 36.3601 201.106 37.151 200.971 37.9086C200.923 38.063 200.933 38.2297 201 38.3769C201.179 38.6725 201.625 38.5497 201.962 38.6205C202.611 38.7557 202.778 39.5904 202.794 40.2523C202.822 41.0099 202.843 41.7675 202.857 42.5252C202.895 42.8765 202.85 43.2319 202.725 43.5623C202.599 43.8926 202.397 44.1885 202.135 44.4255L199.597 47.4747C198.471 48.8276 197.277 50.4032 197.504 52.1475C196.971 52.3868 196.338 51.9247 196.163 51.3669C195.988 50.8091 196.13 50.2097 196.246 49.6373C196.452 48.6477 196.586 47.6447 196.648 46.6359C196.679 46.1281 196.69 45.5952 196.473 45.1394C196.257 44.6836 195.749 44.3068 195.254 44.4338C194.596 44.5878 194.313 45.4433 193.668 45.6493C193.126 45.8221 192.531 45.4412 192.273 44.9292C192.015 44.4171 192.007 43.826 192.005 43.2641V41.3367C192.005 40.6394 191.982 39.8797 191.551 39.3344C191.016 38.6496 189.757 38.352 188.916 38.379C188.356 38.3859 187.819 38.6028 187.411 38.9868C186.953 39.3677 186.433 39.6487 185.819 39.5488Z" fill="#7C5C5C"/>
<path opacity="0.1" d="M187.59 63.6742L189.996 73.5608C189.996 73.5608 191.894 73.5504 187.59 63.6742Z" fill="black"/>
<path opacity="0.1" d="M195.813 62.0216C195.813 62.0216 192.662 67.1835 193.892 72.5181L194.479 72.5618C194.479 72.5618 193.43 70.0912 195.813 62.0216Z" fill="black"/>
<path opacity="0.1" d="M197.812 91.2278C197.812 91.2278 201.681 89.9477 201.962 92.9178C201.962 92.9178 201.232 90.8822 197.812 91.2278Z" fill="black"/>
<path opacity="0.1" d="M186.628 74.1749C186.628 74.1749 185.86 79.5553 187.253 81.7074C187.253 81.7074 184.439 82.8605 180.488 82.6295L180.02 74.1749H186.628Z" fill="black"/>
<path opacity="0.1" d="M187.155 81.0913L186.782 81.2995L184.399 75.9336L186.628 73.9355H186.743C186.707 74.1936 186.087 78.8143 187.155 81.0913Z" fill="black"/>
<path d="M186.628 73.9355C186.628 73.9355 185.86 79.3138 187.253 81.466C187.253 81.466 184.439 82.6191 180.488 82.388L177.799 73.9355H186.628Z" fill="#7C7CDD"/>
<path d="M179.98 163.698C179.936 164.081 179.765 164.439 179.495 164.714C179.225 164.99 178.87 165.167 178.488 165.219C176.407 165.532 171.374 166.327 170.104 166.93C168.491 167.698 162.112 167.161 161.804 166.393C161.717 166.083 161.756 165.75 161.914 165.469C162.136 164.999 162.5 164.611 162.955 164.36C163.101 164.275 163.256 164.205 163.417 164.152C164.618 163.75 166.886 162.903 167.5 162.008C167.5 162.008 170.329 159.533 171.134 158.195C171.286 157.932 171.501 157.71 171.758 157.55C172.016 157.39 172.309 157.295 172.612 157.275C173.287 157.243 174.036 157.583 174.342 159.058C174.342 159.058 178.03 161.163 179.027 159.316C179.027 159.316 179.181 162.151 179.793 162.926C179.874 163.035 179.932 163.16 179.964 163.293C179.997 163.425 180.002 163.563 179.98 163.698Z" fill="#A27772"/>
<path opacity="0.1" d="M179.98 163.698C179.936 164.081 179.765 164.439 179.495 164.714C179.225 164.99 178.87 165.167 178.488 165.219C176.407 165.532 171.374 166.327 170.104 166.93C168.491 167.698 162.112 167.161 161.804 166.393C161.717 166.083 161.756 165.75 161.914 165.469C162.136 164.999 162.5 164.611 162.955 164.36C163.995 165.051 166.304 165.725 171.382 164.932C176.226 164.177 178.623 163.436 179.793 162.93C179.873 163.039 179.931 163.163 179.964 163.295C179.996 163.427 180.001 163.564 179.98 163.698Z" fill="black"/>
<g opacity="0.1">
<path opacity="0.1" d="M200.954 38.021V37.9835C201.065 37.407 201.229 36.8117 201.192 36.2372C201.142 36.7087 201.063 37.1766 200.954 37.638C200.925 37.764 200.925 37.895 200.954 38.021Z" fill="black"/>
<path opacity="0.1" d="M196.467 45.2143C196.588 45.4915 196.653 45.7901 196.656 46.0926C196.692 45.6754 196.627 45.2557 196.467 44.8688C196.259 44.4088 195.745 44.0466 195.249 44.1632C194.592 44.3172 194.309 45.1727 193.663 45.3787C193.12 45.5515 192.527 45.1706 192.267 44.6586C192.007 44.1465 192.002 43.5554 192 42.9934C192 42.3503 192 41.7092 192 41.0661C192 40.3688 191.977 39.6091 191.547 39.0638C191.012 38.379 189.75 38.0813 188.912 38.1084C188.351 38.1149 187.814 38.3319 187.407 38.7162C186.955 39.0991 186.437 39.3801 185.823 39.2802C185.568 39.2412 185.329 39.1307 185.133 38.9617C184.938 38.7927 184.795 38.5719 184.72 38.3249C184.655 38.0772 184.672 37.8128 184.599 37.5652C184.418 36.9616 183.766 36.6473 183.35 36.1894C182.945 35.7433 182.715 35.166 182.703 34.5638C182.671 34.9191 182.712 35.2772 182.823 35.6162C182.934 35.9551 183.114 36.2677 183.35 36.5349C183.783 36.9928 184.426 37.3091 184.599 37.9127C184.672 38.1584 184.655 38.4227 184.72 38.6704C184.795 38.9174 184.938 39.1382 185.133 39.3072C185.329 39.4763 185.568 39.5867 185.823 39.6257C186.447 39.7256 186.955 39.4447 187.407 39.0617C187.814 38.6774 188.351 38.4604 188.912 38.4539C189.744 38.4269 191.012 38.7266 191.547 39.4093C191.977 39.9588 191.998 40.7143 192 41.4116C192 42.0547 192 42.6958 192 43.339C192 43.9093 192 44.5025 192.267 45.0041C192.533 45.5057 193.12 45.897 193.663 45.7242C194.309 45.5161 194.592 44.6627 195.249 44.5087C195.751 44.3942 196.253 44.7543 196.467 45.2143Z" fill="black"/>
<path opacity="0.1" d="M202.784 43.0975C202.644 43.4924 202.421 43.8529 202.131 44.1549C201.285 45.172 200.44 46.1884 199.593 47.2041C198.526 48.4883 197.393 49.9745 197.476 51.6125C197.554 50.1097 198.6 48.7423 199.593 47.5496L202.131 44.5025C202.421 44.1993 202.643 43.8383 202.784 43.443C202.847 43.1703 202.869 42.8898 202.851 42.6105C202.849 42.7749 202.826 42.9385 202.784 43.0975Z" fill="black"/>
<path opacity="0.1" d="M196.167 51.0963C196.126 50.9609 196.101 50.8212 196.092 50.6801C196.07 50.9351 196.096 51.1919 196.167 51.4377C196.342 51.9955 196.977 52.4555 197.51 52.2161C197.495 52.1037 197.487 51.9913 197.483 51.8789C196.946 52.0996 196.33 51.6458 196.167 51.0963Z" fill="black"/>
</g>
<path opacity="0.1" d="M170.62 158.888C170.62 158.888 171.424 160.301 174.334 159.056L170.62 158.888Z" fill="black"/>
<path opacity="0.1" d="M195.231 159.235C195.231 159.235 197.741 162.191 200.905 160.203L195.231 159.235Z" fill="black"/>
<path opacity="0.1" d="M202.539 124.274C202.539 124.274 200.763 125.383 200.707 126.018C200.651 126.653 201.623 125.556 201.623 125.556L202.539 124.274Z" fill="black"/>
<path opacity="0.1" d="M203.244 132.772C202.627 133.286 201.86 133.585 201.059 133.626C199.733 133.684 199.843 135.414 200.709 134.893C201.575 134.373 203.244 132.772 203.244 132.772Z" fill="black"/>
<path opacity="0.1" d="M203.575 133.882C203.575 133.882 202.724 138.065 202.033 137.258L203.575 133.882Z" fill="black"/>
<path d="M28.4651 153.343C28.4651 153.343 29.6078 154.837 27.9364 157.089C26.265 159.341 24.8871 161.252 25.4387 162.659C25.4387 162.659 27.9593 158.467 30.0178 158.409C32.0763 158.351 30.7234 155.863 28.4651 153.343Z" fill="#1CC886"/>
<path opacity="0.1" d="M28.4651 153.343C28.5653 153.487 28.6438 153.645 28.6982 153.811C30.7005 156.163 31.7683 158.359 29.843 158.415C28.0509 158.465 25.8883 161.673 25.3846 162.482C25.4016 162.544 25.4218 162.605 25.445 162.665C25.445 162.665 27.9656 158.474 30.0241 158.415C32.0826 158.357 30.7234 155.863 28.4651 153.343Z" fill="black"/>
<path d="M30.5903 155.247C30.5903 155.774 30.532 156.201 30.4591 156.201C30.3863 156.201 30.3259 155.774 30.3259 155.247C30.3259 154.721 30.4009 154.971 30.4737 154.971C30.5466 154.971 30.5903 154.725 30.5903 155.247Z" fill="#FFD037"/>
<path d="M31.3208 155.876C30.8588 156.128 30.455 156.28 30.4196 156.217C30.3842 156.155 30.7318 155.897 31.1939 155.645C31.6559 155.393 31.4728 155.576 31.5082 155.645C31.5435 155.714 31.7829 155.624 31.3208 155.876Z" fill="#FFD037"/>
<path d="M22.4249 153.343C22.4249 153.343 21.2822 154.837 22.9535 157.089C24.6249 159.341 26.0028 161.252 25.4512 162.659C25.4512 162.659 22.9306 158.467 20.8721 158.409C18.8136 158.351 20.1686 155.863 22.4249 153.343Z" fill="#1CC886"/>
<path opacity="0.1" d="M22.4249 153.343C22.3256 153.487 22.2472 153.645 22.1918 153.811C20.1895 156.163 19.1217 158.359 21.047 158.415C22.8412 158.465 25.0016 161.673 25.5053 162.482C25.4893 162.545 25.4691 162.606 25.445 162.665C25.445 162.665 22.9244 158.474 20.8659 158.415C18.8074 158.357 20.1686 155.863 22.4249 153.343Z" fill="black"/>
<path d="M20.2998 155.247C20.2998 155.774 20.3581 156.201 20.4309 156.201C20.5038 156.201 20.5641 155.774 20.5641 155.247C20.5641 154.721 20.4892 154.971 20.4164 154.971C20.3435 154.971 20.2998 154.725 20.2998 155.247Z" fill="#FFD037"/>
<path d="M19.5712 155.876C20.0333 156.128 20.435 156.28 20.4704 156.217C20.5058 156.155 20.1582 155.897 19.6961 155.645C19.234 155.393 19.4172 155.576 19.3818 155.645C19.3464 155.714 19.1091 155.624 19.5712 155.876Z" fill="#FFD037"/>
<path d="M20.6641 162.47C20.6641 162.47 23.8611 162.372 24.8269 161.685C25.7926 160.998 29.7431 160.18 29.9825 161.281C30.2218 162.382 34.7863 166.753 31.1772 166.782C27.5681 166.812 22.7912 166.221 21.8296 165.634C20.868 165.047 20.6641 162.47 20.6641 162.47Z" fill="#A8A8A8"/>
<path opacity="0.2" d="M31.2396 166.4C27.6305 166.429 22.8537 165.838 21.8921 165.251C21.1594 164.805 20.868 163.205 20.7702 162.466H20.6641C20.6641 162.466 20.8722 165.045 21.8276 165.629C22.7829 166.214 27.566 166.807 31.1751 166.778C32.2158 166.778 32.578 166.4 32.5572 165.85C32.4135 166.185 32.016 166.393 31.2396 166.4Z" fill="black"/>
<defs>
<linearGradient id="paint0_linear" x1="96.3999" y1="159.102" x2="96.3999" y2="7.42861" gradientUnits="userSpaceOnUse">
<stop stop-color="#808080" stop-opacity="0.25"/>
<stop offset="0.54" stop-color="#808080" stop-opacity="0.12"/>
<stop offset="1" stop-color="#808080" stop-opacity="0.1"/>
</linearGradient>
<linearGradient id="paint1_linear" x1="46245.7" y1="115071" x2="46245.7" y2="24464.4" gradientUnits="userSpaceOnUse">
<stop stop-color="#808080" stop-opacity="0.25"/>
<stop offset="0.54" stop-color="#808080" stop-opacity="0.12"/>
<stop offset="1" stop-color="#808080" stop-opacity="0.1"/>
</linearGradient>
</defs>
</svg>
