<svg width="970" height="766" viewBox="0 0 970 766" fill="none" xmlns="http://www.w3.org/2000/svg">
<g clip-path="url(#clip0)">
<path d="M246.39 88.38C234.23 94.71 222.05 102.68 215.86 114.91C211.31 123.91 210.48 134.23 209.73 144.27L200.73 264.13C198.73 290.84 196.54 318.29 184.88 342.41C164.79 383.96 121.05 407.67 88.21 440.09C34.4 493.22 11.3 582.78 51.71 646.7C69.5373 674.64 97.0771 694.991 129.02 703.83C147.76 708.93 167.34 709.83 186.74 710.7C349.24 717.747 511.85 720.573 674.57 719.18C693.89 719.01 713.74 718.68 731.57 711.34C756.2 701.21 773.9 678.91 786.09 655.23C798.28 631.55 806.09 605.84 817.62 581.84C841.22 532.84 879.62 492.9 913.08 450.07C931.53 426.47 948.8 401.46 959.16 373.36C975.63 328.7 972.75 276.17 947.01 236.12C935.89 218.81 920.75 203.82 913.18 184.69C902.61 157.94 908.51 127.98 911.03 99.33C913.55 70.68 910.79 37.97 888.74 19.5C876.57 9.31 860.45 5.29 844.74 2.99C769.53 -8.01 693.99 13.76 619.41 28.44C553.6 41.44 486.88 48.88 420.12 54.81C360.86 60.09 300.47 60.23 246.39 88.38Z" fill="white"/>
<path d="M220.92 647.2C220.92 647.2 191.81 548.37 226.38 475.63C240.89 445.1 245.71 410.83 239 377.7C235.796 361.975 231.156 346.577 225.14 331.7" stroke="#535461" stroke-width="2" stroke-miterlimit="10"/>
<path d="M246.64 285.78C246.64 297.89 224.71 333.01 224.71 333.01C224.71 333.01 202.78 297.89 202.78 285.78C202.78 279.964 205.091 274.386 209.203 270.273C213.316 266.16 218.894 263.85 224.71 263.85C230.526 263.85 236.104 266.16 240.217 270.273C244.33 274.386 246.64 279.964 246.64 285.78V285.78Z" fill="white"/>
<path d="M282.89 352.83C276.31 363 238.81 380.56 238.81 380.56C238.81 380.56 239.49 339.16 246.07 328.99C247.635 326.572 249.662 324.487 252.033 322.852C254.404 321.218 257.074 320.066 259.891 319.463C262.707 318.861 265.615 318.819 268.447 319.34C271.28 319.861 273.982 320.935 276.4 322.5C278.818 324.065 280.903 326.092 282.538 328.463C284.172 330.834 285.324 333.504 285.927 336.321C286.529 339.137 286.571 342.045 286.05 344.877C285.529 347.71 284.455 350.412 282.89 352.83Z" fill="white"/>
<path d="M281.31 467.51C270.5 472.96 229.31 469.2 229.31 469.2C229.31 469.2 250.73 433.83 261.56 428.35C266.746 425.788 272.735 425.379 278.222 427.212C283.709 429.045 288.249 432.971 290.854 438.136C293.459 443.301 293.917 449.286 292.13 454.788C290.342 460.29 286.453 464.862 281.31 467.51V467.51Z" fill="white"/>
<path d="M260.58 553.98C250.84 561.18 209.58 564.44 209.58 564.44C209.58 564.44 224.78 525.92 234.51 518.72C236.822 516.967 239.46 515.691 242.269 514.965C245.078 514.238 248.003 514.077 250.875 514.49C253.748 514.902 256.509 515.881 259 517.368C261.492 518.856 263.663 520.823 265.388 523.156C267.114 525.489 268.359 528.141 269.052 530.958C269.745 533.776 269.872 536.703 269.426 539.57C268.98 542.437 267.969 545.187 266.452 547.661C264.935 550.134 262.943 552.282 260.59 553.98H260.58Z" fill="white"/>
<path d="M192.73 382.94C201.42 391.38 241.89 400.12 241.89 400.12C241.89 400.12 231.98 359.92 223.29 351.48C219.111 347.464 213.512 345.265 207.717 345.364C201.922 345.464 196.402 347.854 192.363 352.011C188.325 356.168 186.096 361.756 186.165 367.551C186.234 373.347 188.594 378.879 192.73 382.94V382.94Z" fill="white"/>
<path d="M169.8 484.38C180.61 489.83 221.8 486.07 221.8 486.07C221.8 486.07 200.31 450.67 189.5 445.22C186.926 443.895 184.115 443.093 181.229 442.86C178.343 442.626 175.44 442.967 172.687 443.862C169.933 444.756 167.384 446.187 165.186 448.072C162.989 449.957 161.186 452.258 159.882 454.843C158.579 457.428 157.8 460.246 157.59 463.133C157.381 466.021 157.746 468.921 158.663 471.667C159.58 474.413 161.032 476.95 162.935 479.132C164.838 481.314 167.154 483.098 169.75 484.38H169.8Z" fill="white"/>
<path d="M161.01 586.04C170.75 593.24 212.01 596.5 212.01 596.5C212.01 596.5 196.81 557.98 187.08 550.78C182.4 547.403 176.577 546.006 170.874 546.894C165.171 547.782 160.048 550.882 156.616 555.522C153.184 560.163 151.719 565.969 152.54 571.682C153.361 577.395 156.4 582.554 161 586.04H161.01Z" fill="white"/>
<path opacity="0.25" d="M246.64 285.78C246.64 297.89 224.71 333.01 224.71 333.01C224.71 333.01 202.78 297.89 202.78 285.78C202.78 279.964 205.091 274.386 209.203 270.273C213.316 266.16 218.894 263.85 224.71 263.85C230.526 263.85 236.104 266.16 240.217 270.273C244.33 274.386 246.64 279.964 246.64 285.78V285.78Z" fill="black"/>
<path opacity="0.25" d="M282.89 352.83C276.31 363 238.81 380.56 238.81 380.56C238.81 380.56 239.49 339.16 246.07 328.99C247.635 326.572 249.662 324.487 252.033 322.852C254.404 321.218 257.074 320.066 259.891 319.463C262.707 318.861 265.615 318.819 268.447 319.34C271.28 319.861 273.982 320.935 276.4 322.5C278.818 324.065 280.903 326.092 282.538 328.463C284.172 330.834 285.324 333.504 285.927 336.321C286.529 339.137 286.571 342.045 286.05 344.877C285.529 347.71 284.455 350.412 282.89 352.83Z" fill="black"/>
<path opacity="0.25" d="M281.31 467.51C270.5 472.96 229.31 469.2 229.31 469.2C229.31 469.2 250.73 433.83 261.56 428.35C266.746 425.788 272.735 425.379 278.222 427.212C283.709 429.045 288.249 432.971 290.854 438.136C293.459 443.301 293.917 449.286 292.13 454.788C290.342 460.29 286.453 464.862 281.31 467.51V467.51Z" fill="black"/>
<path opacity="0.25" d="M260.58 553.98C250.84 561.18 209.58 564.44 209.58 564.44C209.58 564.44 224.78 525.92 234.51 518.72C236.822 516.967 239.46 515.691 242.269 514.965C245.078 514.238 248.003 514.077 250.875 514.49C253.748 514.902 256.509 515.881 259 517.368C261.492 518.856 263.663 520.823 265.388 523.156C267.114 525.489 268.359 528.141 269.052 530.958C269.745 533.776 269.872 536.703 269.426 539.57C268.98 542.437 267.969 545.187 266.452 547.661C264.935 550.134 262.943 552.282 260.59 553.98H260.58Z" fill="black"/>
<path opacity="0.25" d="M192.73 382.94C201.42 391.38 241.89 400.12 241.89 400.12C241.89 400.12 231.98 359.92 223.29 351.48C219.111 347.464 213.512 345.265 207.717 345.364C201.922 345.464 196.402 347.854 192.363 352.011C188.325 356.168 186.096 361.756 186.165 367.551C186.234 373.347 188.594 378.879 192.73 382.94V382.94Z" fill="black"/>
<path opacity="0.25" d="M169.8 484.38C180.61 489.83 221.8 486.07 221.8 486.07C221.8 486.07 200.31 450.67 189.5 445.22C186.926 443.895 184.115 443.093 181.229 442.86C178.343 442.626 175.44 442.967 172.687 443.862C169.933 444.756 167.384 446.187 165.186 448.072C162.989 449.957 161.186 452.258 159.882 454.843C158.579 457.428 157.8 460.246 157.59 463.133C157.381 466.021 157.746 468.921 158.663 471.667C159.58 474.413 161.032 476.95 162.935 479.132C164.838 481.314 167.154 483.098 169.75 484.38H169.8Z" fill="black"/>
<path opacity="0.25" d="M161.01 586.04C170.75 593.24 212.01 596.5 212.01 596.5C212.01 596.5 196.81 557.98 187.08 550.78C182.4 547.403 176.577 546.006 170.874 546.894C165.171 547.782 160.048 550.882 156.616 555.522C153.184 560.163 151.719 565.969 152.54 571.682C153.361 577.395 156.4 582.554 161 586.04H161.01Z" fill="black"/>
<path d="M779.3 594.06C779.3 594.06 750.19 495.24 784.73 422.5C799.24 391.97 804.06 357.7 797.35 324.57C794.146 308.845 789.506 293.447 783.49 278.57" stroke="#535461" stroke-width="2" stroke-miterlimit="10"/>
<path d="M805.02 232.64C805.02 244.75 783.09 279.87 783.09 279.87C783.09 279.87 761.16 244.75 761.16 232.64C761.16 226.824 763.47 221.246 767.583 217.133C771.696 213.02 777.274 210.71 783.09 210.71C788.906 210.71 794.484 213.02 798.597 217.133C802.709 221.246 805.02 226.824 805.02 232.64V232.64Z" fill="white"/>
<path d="M841.27 299.73C834.69 309.9 797.19 327.46 797.19 327.46C797.19 327.46 797.87 286.06 804.45 275.89C806.015 273.472 808.042 271.387 810.413 269.752C812.784 268.118 815.454 266.966 818.271 266.363C821.087 265.761 823.995 265.719 826.827 266.24C829.66 266.761 832.362 267.835 834.78 269.4C837.198 270.965 839.283 272.992 840.918 275.363C842.552 277.734 843.704 280.404 844.307 283.221C844.909 286.037 844.951 288.945 844.43 291.777C843.909 294.61 842.835 297.312 841.27 299.73V299.73Z" fill="white"/>
<path d="M839.73 414.37C828.92 419.82 787.73 416.06 787.73 416.06C787.73 416.06 809.22 380.66 820.03 375.21C822.612 373.802 825.451 372.928 828.378 372.64C831.304 372.351 834.259 372.655 837.067 373.532C839.874 374.408 842.476 375.841 844.718 377.744C846.96 379.647 848.797 381.981 850.119 384.609C851.44 387.236 852.22 390.102 852.411 393.037C852.603 395.972 852.202 398.915 851.233 401.691C850.264 404.468 848.746 407.021 846.77 409.199C844.793 411.378 842.399 413.136 839.73 414.37Z" fill="white"/>
<path d="M818.96 500.83C809.22 508.03 767.96 511.29 767.96 511.29C767.96 511.29 783.16 472.77 792.89 465.57C795.2 463.789 797.842 462.486 800.662 461.738C803.482 460.991 806.423 460.814 809.312 461.217C812.201 461.62 814.981 462.595 817.489 464.086C819.996 465.577 822.181 467.553 823.915 469.899C825.65 472.244 826.898 474.912 827.589 477.747C828.279 480.581 828.397 483.525 827.936 486.405C827.474 489.286 826.443 492.045 824.901 494.522C823.36 496.999 821.34 499.143 818.96 500.83V500.83Z" fill="white"/>
<path d="M751.14 329.83C759.83 338.27 800.3 347.01 800.3 347.01C800.3 347.01 790.39 306.83 781.73 298.34C779.662 296.331 777.219 294.75 774.54 293.685C771.861 292.621 768.999 292.095 766.117 292.136C763.234 292.178 760.389 292.787 757.742 293.929C755.095 295.071 752.699 296.722 750.69 298.79C748.681 300.858 747.1 303.301 746.035 305.98C744.971 308.659 744.445 311.521 744.486 314.403C744.528 317.286 745.137 320.131 746.279 322.778C747.42 325.425 749.072 327.821 751.14 329.83V329.83Z" fill="white"/>
<path d="M728.18 431.24C738.99 436.69 780.18 432.93 780.18 432.93C780.18 432.93 758.73 397.53 747.93 392.08C745.356 390.755 742.545 389.953 739.659 389.72C736.773 389.486 733.87 389.827 731.117 390.722C728.363 391.616 725.814 393.047 723.616 394.932C721.419 396.817 719.616 399.118 718.312 401.703C717.009 404.288 716.23 407.106 716.02 409.993C715.811 412.881 716.176 415.781 717.093 418.527C718.01 421.273 719.462 423.81 721.365 425.992C723.268 428.174 725.584 429.958 728.18 431.24V431.24Z" fill="white"/>
<path d="M719.39 532.9C729.13 540.1 770.39 543.36 770.39 543.36C770.39 543.36 755.19 504.84 745.46 497.64C740.78 494.263 734.957 492.866 729.254 493.754C723.551 494.642 718.428 497.742 714.996 502.382C711.564 507.023 710.099 512.829 710.92 518.542C711.741 524.255 714.78 529.414 719.38 532.9H719.39Z" fill="white"/>
<path opacity="0.25" d="M805.02 232.64C805.02 244.75 783.09 279.87 783.09 279.87C783.09 279.87 761.16 244.75 761.16 232.64C761.16 226.824 763.47 221.246 767.583 217.133C771.696 213.02 777.274 210.71 783.09 210.71C788.906 210.71 794.484 213.02 798.597 217.133C802.709 221.246 805.02 226.824 805.02 232.64V232.64Z" fill="black"/>
<path opacity="0.25" d="M841.27 299.73C834.69 309.9 797.19 327.46 797.19 327.46C797.19 327.46 797.87 286.06 804.45 275.89C806.015 273.472 808.042 271.387 810.413 269.752C812.784 268.118 815.454 266.966 818.271 266.363C821.087 265.761 823.995 265.719 826.827 266.24C829.66 266.761 832.362 267.835 834.78 269.4C837.198 270.965 839.283 272.992 840.918 275.363C842.552 277.734 843.704 280.404 844.307 283.221C844.909 286.037 844.951 288.945 844.43 291.777C843.909 294.61 842.835 297.312 841.27 299.73V299.73Z" fill="black"/>
<path opacity="0.25" d="M839.73 414.37C828.92 419.82 787.73 416.06 787.73 416.06C787.73 416.06 809.22 380.66 820.03 375.21C822.612 373.802 825.451 372.928 828.378 372.64C831.304 372.351 834.259 372.655 837.067 373.532C839.874 374.408 842.476 375.841 844.718 377.744C846.96 379.647 848.797 381.981 850.119 384.609C851.44 387.236 852.22 390.102 852.411 393.037C852.603 395.972 852.202 398.915 851.233 401.691C850.264 404.468 848.746 407.021 846.77 409.199C844.793 411.378 842.399 413.136 839.73 414.37Z" fill="black"/>
<path opacity="0.25" d="M818.96 500.83C809.22 508.03 767.96 511.29 767.96 511.29C767.96 511.29 783.16 472.77 792.89 465.57C795.2 463.789 797.842 462.486 800.662 461.738C803.482 460.991 806.423 460.814 809.312 461.217C812.201 461.62 814.981 462.595 817.489 464.086C819.996 465.577 822.181 467.553 823.915 469.899C825.65 472.244 826.898 474.912 827.589 477.747C828.279 480.581 828.397 483.525 827.936 486.405C827.474 489.286 826.443 492.045 824.901 494.522C823.36 496.999 821.34 499.143 818.96 500.83V500.83Z" fill="black"/>
<path opacity="0.25" d="M751.14 329.83C759.83 338.27 800.3 347.01 800.3 347.01C800.3 347.01 790.39 306.83 781.73 298.34C779.662 296.331 777.219 294.75 774.54 293.685C771.861 292.621 768.999 292.095 766.117 292.136C763.234 292.178 760.389 292.787 757.742 293.929C755.095 295.071 752.699 296.722 750.69 298.79C748.681 300.858 747.1 303.301 746.035 305.98C744.971 308.659 744.445 311.521 744.486 314.403C744.528 317.286 745.137 320.131 746.279 322.778C747.42 325.425 749.072 327.821 751.14 329.83V329.83Z" fill="black"/>
<path opacity="0.25" d="M728.18 431.24C738.99 436.69 780.18 432.93 780.18 432.93C780.18 432.93 758.73 397.53 747.93 392.08C745.356 390.755 742.545 389.953 739.659 389.72C736.773 389.486 733.87 389.827 731.117 390.722C728.363 391.616 725.814 393.047 723.616 394.932C721.419 396.817 719.616 399.118 718.312 401.703C717.009 404.288 716.23 407.106 716.02 409.993C715.811 412.881 716.176 415.781 717.093 418.527C718.01 421.273 719.462 423.81 721.365 425.992C723.268 428.174 725.584 429.958 728.18 431.24V431.24Z" fill="black"/>
<path opacity="0.25" d="M719.39 532.9C729.13 540.1 770.39 543.36 770.39 543.36C770.39 543.36 755.19 504.84 745.46 497.64C740.78 494.263 734.957 492.866 729.254 493.754C723.551 494.642 718.428 497.742 714.996 502.382C711.564 507.023 710.099 512.829 710.92 518.542C711.741 524.255 714.78 529.414 719.38 532.9H719.39Z" fill="black"/>
<g opacity="0.1">
<path opacity="0.1" d="M0.870056 765.65C11.9701 761.65 2.23006 764.91 0.310059 765.55C0.488219 765.62 0.678597 765.654 0.870056 765.65V765.65Z" fill="#00FFFF"/>
</g>
<g opacity="0.1">
<path opacity="0.1" d="M0.310013 765.54L0.0100098 765.45V765.65L0.310013 765.54Z" fill="#00FFFF"/>
</g>
<path d="M762.01 640.51C762.01 640.39 762.01 640.26 762.08 640.13C762.15 640 762.08 640.06 762.08 640.03C762.1 639.78 762.1 639.53 762.08 639.28C762.08 639.28 760.74 636.71 759.18 633.18C757.05 628.33 754.52 621.66 754.52 617.29C754.52 617.29 731.15 535.51 715.35 526.58C715.35 526.58 702.35 503.43 702.49 490.4C702.509 486.236 702.174 482.078 701.49 477.97C699.18 463.6 695.33 436.09 698.85 431.06C703.32 424.67 710.77 396.87 692.98 375.88L696.1 375.4C696.1 375.4 695.93 375.19 695.65 374.78L696.1 374.71C696.1 374.71 689.22 366.45 689.22 348.2C689.32 337.69 691.69 323.96 698.85 306.67C699.797 304.377 700.663 302.107 701.45 299.86C704.782 298.204 707.822 296.015 710.45 293.38L710.77 293.05L711.14 292.7C717.71 286.1 721.69 277.34 724.46 268.45C727.003 260.279 728.63 251.851 729.31 243.32C730.05 234.05 729.66 224.74 729.31 215.45C728.86 204.61 728.31 193.45 723.97 183.56C722.26 179.69 719.97 176.03 718.92 171.93C718.337 169.115 717.933 166.266 717.71 163.4C716.28 152.17 710.96 141.28 702.24 134.07C693.52 126.86 681.33 123.65 670.42 126.67C664.18 128.4 658.61 131.98 653.42 135.9C651.197 137.576 649.098 139.41 647.14 141.39C640.87 147.54 636.14 155.6 640.68 164.07C641.013 164.683 641.37 165.283 641.75 165.87C639.353 169.695 637.822 173.999 637.265 178.479C636.709 182.959 637.14 187.506 638.529 191.801C639.917 196.097 642.23 200.036 645.303 203.343C648.377 206.649 652.137 209.242 656.32 210.94L657.13 212.36H657.22C659.59 216.74 662.17 222.21 662.85 226.36C659.881 228.475 657.193 230.958 654.85 233.75C646.76 243.4 642.33 249.95 639.91 254.22C637.622 258.177 634.967 261.91 631.98 265.37C628.31 269.71 623.98 278.18 623.98 293.94C623.98 295.093 623.98 296.29 623.98 297.53C604.61 318.62 529.07 303.16 529.07 303.16C519.97 299.62 509.38 303.89 504.42 306.4C504.015 306.599 503.66 306.887 503.381 307.243C503.103 307.599 502.908 308.012 502.812 308.454C502.716 308.895 502.721 309.352 502.826 309.791C502.931 310.231 503.134 310.64 503.42 310.99C511.42 320.63 531.1 314.85 531.1 314.85C531.1 314.85 601.88 327.22 607.38 331.34C611.12 334.15 617.73 331.86 621.57 330.11L620.78 331L621.78 330.51L616.34 379.44H616.42L616.34 380.13C616.34 380.13 617.6 380.02 619.61 379.88L621.29 384.23H621.15L622.89 388.35L624.32 391.74C620.05 407.18 602.84 470.74 604.65 485.25C604.65 485.25 593.65 511.36 597.78 525.8C597.78 525.8 582.66 634.38 573.04 639.88L574.39 640.49C564.12 646.36 541.75 657.4 526.31 652.25C526.31 652.25 516.69 655 531.81 664.62C531.81 664.62 593.66 681.11 601.91 675.62L600.54 651.85L601.24 652.1C601.34 650.76 602.24 640.93 606.04 636.45C606.04 636.45 630.78 569.1 629.41 534.74L652.5 478.94C655 485.34 657.65 490.77 660.33 494.2L669.95 518.94L685.76 539.56C685.76 539.56 735.24 617.9 731.76 641.27L732.92 641.56C728.29 649.8 716.77 666.69 700.14 666.69C700.14 666.69 685.71 681.81 712.51 679.75C712.51 679.75 746.18 677.69 770.92 663.94L762.01 640.51Z" fill="url(#paint0_linear)"/>
<path d="M586.65 634.16C586.65 634.16 554.84 655.37 534.96 648.74C534.96 648.74 525.68 651.39 540.26 660.67C540.26 660.67 599.91 676.58 607.86 671.27L605.86 636.81L586.65 634.16Z" fill="#333333"/>
<path d="M736.43 634.16C736.43 634.16 723.84 662.66 702.63 662.66C702.63 662.66 688.71 677.24 714.56 675.25C714.56 675.25 747.03 673.25 770.89 660.01L759.48 630.27L736.43 634.16Z" fill="#333333"/>
<path d="M623.1 381.32L628.1 394.25L660.55 391.93L657.23 370.06L623.1 381.32Z" fill="#FDB797"/>
<path d="M630.39 394.25C630.39 394.25 608.52 471.83 610.51 487.7C610.51 487.7 599.91 512.88 603.88 526.8C603.88 526.8 589.3 631.51 580.02 636.8C580.02 636.8 607.02 649.02 607.85 648.73C617.13 645.42 607.19 648.73 607.19 648.73C607.19 648.73 607.85 638.13 611.83 633.49C611.83 633.49 635.69 568.54 634.36 535.41L666.17 458.53L630.39 394.25Z" fill="#252A62"/>
<path opacity="0.1" d="M630.39 394.25C630.39 394.25 608.52 471.83 610.51 487.7C610.51 487.7 599.91 512.88 603.88 526.8C603.88 526.8 589.3 631.51 580.02 636.8C580.02 636.8 607.02 649.02 607.85 648.73C617.13 645.42 607.19 648.73 607.19 648.73C607.19 648.73 607.85 638.13 611.83 633.49C611.83 633.49 635.69 568.54 634.36 535.41L666.17 458.53L630.39 394.25Z" fill="black"/>
<path d="M626.42 390.27L641 424.73C641 424.73 652.27 481.06 664.2 496.3L673.48 520.16L688.73 540.05C688.73 540.05 736.45 615.6 733.13 638.13C733.13 638.13 762.95 646.13 762.29 636.13C762.29 636.13 755 622.21 755 614.92C755 614.92 732.47 536.06 717.22 527.44C717.22 527.44 704.7 505.11 704.82 492.55C704.827 488.529 704.492 484.514 703.82 480.55C701.59 466.69 697.88 440.17 701.28 435.32C705.92 428.69 713.87 398.21 691.34 377.66L626.42 390.27Z" fill="#252A62"/>
<path opacity="0.1" d="M762.27 636.15C762.27 636.15 754.98 622.23 754.98 614.94C754.98 614.94 732.45 536.08 717.2 527.46C717.2 527.46 704.68 505.13 704.8 492.57C704.807 488.549 704.472 484.534 703.8 480.57C701.57 466.71 697.86 440.19 701.26 435.34C705.9 428.71 713.85 398.23 691.32 377.68L687.48 378.43C709.02 398.96 701.21 428.79 696.63 435.34C692.05 441.89 700.63 489.02 700.63 489.02C697.32 500.29 712.56 527.46 712.56 527.46C727.8 536.08 750.34 614.94 750.34 614.94C750.34 622.23 757.63 636.15 757.63 636.15C757.85 639.43 754.74 640.76 750.48 641.07C756.9 641.44 762.57 640.54 762.27 636.15Z" fill="black"/>
<path d="M656.9 217.3C656.9 217.3 669.49 236.52 666.18 242.48L698.65 234.48C698.65 234.48 690.03 225.2 692.02 202.67L656.9 217.3Z" fill="#FDB797"/>
<path opacity="0.1" d="M703.29 231.22C703.29 231.22 676.12 225.22 658.89 245.8C651.09 255.1 646.82 261.42 644.48 265.54C642.275 269.355 639.717 272.954 636.84 276.29C632.53 281.38 627.25 292.35 629.73 314.72L621.73 386.29C621.73 386.29 644.93 384.29 650.89 386.29C656.85 388.29 698.61 381.65 698.61 381.65C698.61 381.65 682.04 361.77 701.26 315.38C720.48 268.99 703.29 231.22 703.29 231.22Z" fill="black"/>
<path d="M703.29 230.56C703.29 230.56 676.12 224.56 658.89 245.14C651.09 254.44 646.82 260.76 644.48 264.88C642.275 268.695 639.717 272.294 636.84 275.63C632.53 280.72 627.25 291.69 629.73 314.06L621.73 385.63C621.73 385.63 644.93 383.63 650.89 385.63C656.85 387.63 698.61 380.99 698.61 380.99C698.61 380.99 682.04 361.11 701.26 314.72C720.48 268.33 703.29 230.56 703.29 230.56Z" fill="#F55F44"/>
<path opacity="0.1" d="M670.49 291.83C670.49 291.83 644.64 328.97 632.73 335.6L626.1 338.91C626.1 338.91 667.84 291.83 670.49 291.83Z" fill="black"/>
<path d="M646.3 272.97C646.3 272.97 663.3 266.28 670.59 288.46C670.887 289.36 670.937 290.324 670.737 291.25C670.537 292.177 670.092 293.033 669.45 293.73L629.73 336.59C629.73 336.59 618.46 343.22 613.16 339.24C607.86 335.26 539.6 323.33 539.6 323.33C539.6 323.33 520.65 328.9 512.91 319.61C512.63 319.277 512.43 318.884 512.324 318.462C512.218 318.04 512.21 317.599 512.3 317.174C512.389 316.748 512.574 316.348 512.841 316.004C513.108 315.661 513.45 315.382 513.84 315.19C517.54 313.32 523.71 314.4 530.99 313.5C536.579 312.833 542.234 312.95 547.79 313.85C570.52 317.41 624.07 323.29 632.38 301.46C642.98 273.64 646.3 272.97 646.3 272.97Z" fill="#FDB797"/>
<path opacity="0.1" d="M645.97 273.3C645.97 273.3 666.51 269.99 671.15 290.53V289.2C671.15 289.2 665.19 266.68 645.97 273.3Z" fill="black"/>
<path opacity="0.1" d="M692.73 204.05L657.56 218.63C657.56 218.63 659.15 221.05 661.04 224.44C664.47 225.82 669.21 224.93 673.13 224.93C681.13 224.93 686.98 222.82 692.35 217.64C691.86 213.66 692.2 209.54 692.73 204.05Z" fill="black"/>
<path d="M671.48 225.25C687.949 225.25 701.3 211.899 701.3 195.43C701.3 178.961 687.949 165.61 671.48 165.61C655.011 165.61 641.66 178.961 641.66 195.43C641.66 211.899 655.011 225.25 671.48 225.25Z" fill="#FDB797"/>
<path opacity="0.1" d="M671.53 191.4C672.18 193.7 670.27 195.83 668.89 197.78C664.06 204.61 664.95 213.91 667.16 221.97C668.24 225.92 669.86 230.12 673.39 232.19C676.21 233.84 679.68 233.77 682.84 234.6C688.53 236.09 693.13 240.6 695.84 245.79C698.55 250.98 699.52 256.97 699.84 262.85C700.806 279.858 696.718 296.771 688.09 311.46C696.94 312.97 706.09 308.94 712.44 302.57C718.79 296.2 722.61 287.76 725.28 279.19C727.733 271.312 729.303 263.185 729.96 254.96C730.67 246.02 730.3 237.04 729.96 228.08C729.53 217.63 729.03 206.9 724.81 197.33C723.16 193.59 720.96 190.07 719.94 186.11C719.377 183.397 718.986 180.652 718.77 177.89C717.39 167.06 712.26 156.56 703.85 149.6C695.44 142.64 683.69 139.6 673.17 142.47C667.17 144.14 661.79 147.59 656.81 151.37C648.75 157.5 639.5 167.37 645.19 177.87C650.14 187.06 661.08 193.04 671.53 191.4Z" fill="black"/>
<path d="M672.19 190.74C672.84 193.04 670.93 195.17 669.55 197.12C664.72 203.95 665.61 213.25 667.82 221.31C668.9 225.26 670.52 229.46 674.05 231.53C676.87 233.18 680.34 233.11 683.5 233.94C689.19 235.43 693.79 239.94 696.5 245.13C699.21 250.32 700.18 256.31 700.5 262.19C701.466 279.21 697.371 296.135 688.73 310.83C697.58 312.34 706.73 308.31 713.08 301.94C719.43 295.57 723.25 287.13 725.92 278.56C728.373 270.682 729.943 262.555 730.6 254.33C731.31 245.39 730.94 236.41 730.6 227.45C730.17 217 729.67 206.27 725.45 196.7C723.8 192.96 721.6 189.44 720.58 185.48C720.017 182.767 719.626 180.022 719.41 177.26C718.03 166.43 712.9 155.93 704.49 148.97C696.08 142.01 684.33 138.97 673.81 141.84C667.81 143.51 662.43 146.96 657.45 150.74C649.39 156.87 640.14 166.74 645.83 177.24C650.81 186.4 661.73 192.38 672.19 190.74Z" fill="#72351C"/>
<path opacity="0.1" d="M675.13 338.91C675.13 338.91 687.72 338.91 692.36 332.91Z" fill="black"/>
<path opacity="0.1" d="M675.13 343.55C675.13 343.55 687.72 343.55 692.36 337.55Z" fill="black"/>
<path opacity="0.1" d="M687.06 267.34C687.06 267.34 685.06 283.25 677.78 290.54Z" fill="black"/>
<g opacity="0.1">
<path opacity="0.1" d="M399.73 664.45V664.29L399.49 664.37L399.73 664.45Z" fill="url(#paint1_linear)"/>
</g>
<g opacity="0.1">
<path opacity="0.1" d="M399.03 664.45C399.184 664.454 399.337 664.426 399.48 664.37C397.94 663.83 390.15 661.27 399.03 664.45Z" fill="url(#paint2_linear)"/>
</g>
<path d="M498.48 313.39C493.42 310.92 482.62 306.7 473.34 310.19C473.34 310.19 384.34 327.83 373.12 299.33C372.593 297.997 372.083 296.713 371.59 295.48C371.814 293.612 371.911 291.731 371.88 289.85C371.919 287.537 371.755 285.225 371.39 282.94C370.803 279.596 369.519 276.414 367.62 273.6C365.412 269.899 363.605 265.974 362.23 261.89C360.071 256.004 356.688 250.644 352.304 246.162C347.921 241.68 342.636 238.179 336.8 235.89C336.97 231.63 339.98 225.34 342.71 220.45H342.8L343.63 219.05C349.375 216.861 354.327 212.991 357.838 207.944C361.349 202.897 363.256 196.908 363.31 190.76C363.309 184.836 361.537 179.048 358.22 174.14C367.63 172.63 364.41 164.63 358.59 157.77C357.461 156.441 356.256 155.179 354.98 153.99C349.297 148.394 342.144 144.524 334.35 142.83C333.42 142.63 332.48 142.48 331.54 142.35C325.942 140.422 319.978 139.793 314.101 140.512C308.224 141.231 302.588 143.279 297.62 146.5C296.408 143.06 294.15 140.085 291.162 137.992C288.175 135.9 284.607 134.794 280.96 134.83C271.28 134.83 263.44 142.42 263.44 151.83C263.44 161.24 271.28 168.83 280.96 168.83H281.96C281.312 171.506 280.976 174.247 280.96 177C280.96 194.12 293.09 208.5 309.49 212.52L309.78 212.79C309.78 213.07 309.73 213.36 309.69 213.64L309.76 213.7C309.135 218.736 307.546 223.605 305.08 228.04L304.46 227.89C291.53 236.89 286.85 250.54 286.96 264.76C286.89 276.84 290.23 289.48 294.96 299.76C296.697 303.87 297.556 308.298 297.48 312.76C297.23 328.16 290.14 346.64 285.32 357.46C283.41 361.75 255.72 428.71 255.72 428.71L256.35 428.55L255.72 430.07C261.78 428.37 268.28 429.15 273.8 430.64C277.6 431.638 281.561 431.869 285.452 431.319C289.342 430.77 293.085 429.451 296.46 427.44C297.201 430.656 298.476 433.725 300.23 436.52C303.82 441.52 299.9 468.64 297.54 482.83C296.849 486.886 296.514 490.995 296.54 495.11C296.67 507.98 283.43 530.84 283.43 530.84C267.31 539.66 243.48 620.4 243.48 620.4C243.48 624.72 240.9 631.3 238.73 636.09C237.15 639.58 235.73 642.09 235.73 642.09C235.709 642.336 235.709 642.584 235.73 642.83C235.73 642.83 235.73 642.9 235.73 642.93C235.747 643.058 235.77 643.185 235.8 643.31L226.6 666.52C251.83 680.09 286.17 682.13 286.17 682.13C313.5 684.13 298.79 669.24 298.79 669.24C281.79 669.24 270.09 652.56 265.36 644.43L266.55 644.14C263.05 621.07 313.55 543.72 313.55 543.72L329.67 523.36L339.48 498.83C342.21 495.45 344.92 490.09 347.48 483.77L371.02 538.83C369.62 572.76 394.85 639.25 394.85 639.25C398.76 643.67 399.64 653.38 399.74 654.7L400.45 654.46L399.05 677.93C407.46 683.36 470.54 667.07 470.54 667.07C485.96 657.57 476.15 654.86 476.15 654.86C460.41 659.94 437.59 649.04 427.15 643.25L428.52 642.65C418.71 637.22 403.29 530.02 403.29 530.02C407.5 515.77 396.29 490.02 396.29 490.02C397.57 480.12 389.51 446.87 383.01 422.34C391.354 422.269 399.674 421.419 407.86 419.8C407.34 419.47 406.86 419.12 406.33 418.8C407.33 418.61 407.86 418.49 407.86 418.49C386.2 404.64 373.86 357.86 368.53 331.36C369.863 332.492 371.299 333.496 372.82 334.36L379.82 337.75L379.02 336.88C382.93 338.61 389.67 340.88 393.49 338.09C399.1 334.02 471.28 321.81 471.28 321.81C471.28 321.81 491.28 327.52 499.51 318C499.817 317.655 500.037 317.243 500.153 316.796C500.269 316.349 500.277 315.881 500.176 315.431C500.075 314.981 499.869 314.561 499.574 314.206C499.279 313.851 498.904 313.571 498.48 313.39V313.39Z" fill="url(#paint3_linear)"/>
<path d="M321.23 219.62C340.996 219.62 357.02 203.596 357.02 183.83C357.02 164.064 340.996 148.04 321.23 148.04C301.464 148.04 285.44 164.064 285.44 183.83C285.44 203.596 301.464 219.62 321.23 219.62Z" fill="#FFC533"/>
<path d="M348.07 219.29C348.07 219.29 335.48 238.51 338.79 244.47L306.32 236.47C306.32 236.47 314.94 227.19 312.95 204.66L348.07 219.29Z" fill="#FDB797"/>
<path opacity="0.1" d="M312.28 206.04L347.4 220.62C347.4 220.62 345.81 223.04 343.92 226.43C340.49 227.81 335.75 226.92 331.83 226.92C323.83 226.92 317.98 224.81 312.61 219.63C313.11 215.65 312.73 211.53 312.28 206.04Z" fill="black"/>
<path d="M333.49 227.24C349.959 227.24 363.31 213.889 363.31 197.42C363.31 180.951 349.959 167.6 333.49 167.6C317.021 167.6 303.67 180.951 303.67 197.42C303.67 213.889 317.021 227.24 333.49 227.24Z" fill="#FDB797"/>
<path d="M285.44 175.88C294.591 175.88 302.01 168.461 302.01 159.31C302.01 150.159 294.591 142.74 285.44 142.74C276.289 142.74 268.87 150.159 268.87 159.31C268.87 168.461 276.289 175.88 285.44 175.88Z" fill="#FFC533"/>
<path opacity="0.1" d="M354.67 181.43C347.21 181.3 338.73 179.8 333.14 184.73C329.14 188.27 328.06 193.99 326.7 199.17C324.7 206.95 320.12 215.5 312.16 216.66C307.3 217.37 302.41 214.95 298.96 211.45C295.51 207.95 293.28 203.45 291.17 199.04C289.06 194.63 287 190.04 287.17 185.15C287.38 179.34 290.77 174.15 294.23 169.5C296.317 166.58 298.642 163.837 301.18 161.3C305.099 157.524 309.765 154.609 314.878 152.745C319.99 150.88 325.437 150.106 330.867 150.472C336.297 150.838 341.59 152.337 346.406 154.872C351.222 157.407 355.454 160.921 358.83 165.19C365.04 172.72 368.13 181.66 354.67 181.43Z" fill="black"/>
<path d="M354.01 180.77C346.55 180.64 338.07 179.14 332.48 184.07C328.48 187.61 327.4 193.33 326.04 198.51C324.04 206.29 319.46 214.84 311.5 216C306.64 216.71 301.75 214.29 298.3 210.79C294.85 207.29 292.62 202.79 290.51 198.38C288.4 193.97 286.34 189.38 286.51 184.49C286.72 178.68 290.11 173.49 293.57 168.84C295.657 165.92 297.981 163.177 300.52 160.64C304.439 156.864 309.105 153.949 314.218 152.085C319.33 150.22 324.777 149.446 330.207 149.812C335.637 150.178 340.93 151.677 345.746 154.212C350.562 156.747 354.794 160.261 358.17 164.53C364.37 172.06 367.47 181 354.01 180.77Z" fill="#FFC533"/>
<path d="M418.32 636.15C418.32 636.15 450.13 657.36 470.01 650.73C470.01 650.73 479.29 653.38 464.71 662.66C464.71 662.66 405.06 678.57 397.11 673.26L399.11 638.8L418.32 636.15Z" fill="#333333"/>
<path d="M268.54 636.15C268.54 636.15 281.13 664.65 302.34 664.65C302.34 664.65 316.26 679.23 290.41 677.24C290.41 677.24 257.94 675.24 234.08 662L245.49 632.26L268.54 636.15Z" fill="#333333"/>
<path d="M374.58 396.24C374.58 396.24 396.45 473.78 394.46 489.68C394.46 489.68 405.06 514.86 401.09 528.78C401.09 528.78 415.67 633.49 424.95 638.78C424.95 638.78 397.95 651 397.12 650.71C387.84 647.4 397.78 650.71 397.78 650.71C397.78 650.71 397.12 640.11 393.14 635.47C393.14 635.47 369.28 570.52 370.61 537.39L338.8 460.51L374.58 396.24Z" fill="#3AD29F"/>
<path opacity="0.1" d="M374.58 396.24C374.58 396.24 396.45 473.78 394.46 489.68C394.46 489.68 405.06 514.86 401.09 528.78C401.09 528.78 415.67 633.49 424.95 638.78C424.95 638.78 397.95 651 397.12 650.71C387.84 647.4 397.78 650.71 397.78 650.71C397.78 650.71 397.12 640.11 393.14 635.47C393.14 635.47 369.28 570.52 370.61 537.39L338.8 460.51L374.58 396.24Z" fill="black"/>
<path d="M378.56 392.26L363.98 426.72C363.98 426.72 352.71 483.05 340.78 498.29L331.5 522.15L316.26 542.03C316.26 542.03 268.54 617.58 271.86 640.11C271.86 640.11 242.04 648.11 242.7 638.11C242.7 638.11 249.99 624.19 249.99 616.9C249.99 616.9 272.52 538.04 287.77 529.42C287.77 529.42 300.29 507.09 300.17 494.53C300.163 490.509 300.498 486.495 301.17 482.53C303.4 468.67 307.11 442.15 303.71 437.3C299.07 430.67 291.12 400.19 313.65 379.64L378.56 392.26Z" fill="#3AD29F"/>
<path opacity="0.1" d="M242.73 638.13C242.73 638.13 250.02 624.21 250.02 616.92C250.02 616.92 272.55 538.06 287.8 529.44C287.8 529.44 300.32 507.11 300.2 494.55C300.193 490.529 300.528 486.514 301.2 482.55C303.43 468.69 307.14 442.17 303.74 437.32C299.1 430.69 291.15 400.21 313.68 379.66L317.52 380.41C295.91 400.95 303.73 430.83 308.31 437.33C312.89 443.83 304.31 491.01 304.31 491.01C307.62 502.28 292.38 529.45 292.38 529.45C277.14 538.07 254.6 616.93 254.6 616.93C254.6 624.22 247.31 638.14 247.31 638.14C247.09 641.42 250.2 642.75 254.46 643.06C248.07 643.43 242.4 642.53 242.73 638.13Z" fill="black"/>
<path opacity="0.1" d="M307.67 234.83L332.3 240.89C339.175 242.59 345.518 245.976 350.756 250.742C355.994 255.509 359.961 261.505 362.3 268.19C363.594 272.17 365.3 276.004 367.39 279.63C369.191 282.397 370.403 285.505 370.95 288.76C371.95 295.25 371.87 305.76 365.07 317.68C365.07 317.68 376.28 401.85 405.39 421.07C405.39 421.07 376.98 427.61 352.08 419.52C335.39 414.1 317.08 416.38 302.78 426.62L302.16 427.07C298.849 429.544 295.021 431.235 290.963 432.016C286.905 432.797 282.722 432.648 278.73 431.58C273.51 430.13 267.36 429.37 261.63 431.03C261.63 431.03 287.82 365.64 289.63 361.44C295.73 347.25 305.73 319.57 298.73 303.83C289 281.92 285.44 249.45 307.67 234.83Z" fill="black"/>
<path d="M307.67 233.54L332.3 239.6C339.175 241.3 345.518 244.686 350.756 249.452C355.994 254.219 359.961 260.215 362.3 266.9C363.594 270.88 365.3 274.714 367.39 278.34C369.191 281.107 370.403 284.215 370.95 287.47C371.95 293.96 371.87 304.47 365.07 316.39C365.07 316.39 376.28 400.56 405.39 419.78C405.39 419.78 376.98 426.32 352.08 418.23C335.39 412.81 317.08 415.09 302.78 425.33L302.16 425.78C298.847 428.249 295.017 429.934 290.959 430.71C286.901 431.486 282.72 431.332 278.73 430.26C273.51 428.81 267.36 428.05 261.63 429.71C261.63 429.71 287.82 364.32 289.63 360.12C295.73 345.92 305.73 318.24 298.73 302.46C289 280.59 285.44 249.45 307.67 233.54Z" fill="#535461"/>
<path opacity="0.1" d="M334.49 293.83C334.49 293.83 360.34 330.94 372.27 337.57L378.9 340.88C378.9 340.88 337.14 293.83 334.49 293.83Z" fill="black"/>
<path d="M358.67 274.96C358.67 274.96 341.67 268.27 334.38 290.45C334.083 291.35 334.033 292.314 334.233 293.24C334.433 294.167 334.878 295.023 335.52 295.72L375.24 338.59C375.24 338.59 386.51 345.22 391.81 341.24C397.11 337.26 465.37 325.33 465.37 325.33C465.37 325.33 484.19 330.86 491.98 321.7C492.269 321.365 492.479 320.97 492.594 320.543C492.709 320.117 492.726 319.67 492.644 319.235C492.562 318.801 492.384 318.39 492.122 318.035C491.86 317.679 491.521 317.387 491.13 317.18C487.02 315.11 479.5 315.18 471.41 314.49C468.612 314.248 465.795 314.376 463.03 314.87C445.73 317.94 381.73 327.48 372.59 303.46C361.99 275.62 358.67 274.96 358.67 274.96Z" fill="#FDB797"/>
<path opacity="0.1" d="M359.01 275.29C359.01 275.29 338.47 271.98 333.83 292.52V291.19C333.83 291.19 339.79 268.66 359.01 275.29Z" fill="black"/>
<path d="M491.67 631.83C491.67 631.83 475.91 578.33 494.67 538.95C502.619 522.487 505.016 503.89 501.5 485.95C499.762 477.445 497.248 469.117 493.99 461.07" stroke="#535461" stroke-width="2" stroke-miterlimit="10"/>
<path d="M505.6 436.16C505.6 442.72 493.73 461.73 493.73 461.73C493.73 461.73 481.86 442.73 481.86 436.16C481.86 434.601 482.167 433.056 482.764 431.616C483.361 430.175 484.235 428.866 485.338 427.763C486.441 426.66 487.75 425.786 489.191 425.189C490.631 424.592 492.176 424.285 493.735 424.285C495.294 424.285 496.839 424.592 498.279 425.189C499.72 425.786 501.029 426.66 502.132 427.763C503.235 428.866 504.109 430.175 504.706 431.616C505.303 433.056 505.61 434.601 505.61 436.16H505.6Z" fill="white"/>
<path d="M525.22 472.48C521.66 477.98 501.36 487.48 501.36 487.48C501.36 487.48 501.73 465.07 505.29 459.56C506.138 458.251 507.235 457.122 508.519 456.238C509.803 455.353 511.248 454.73 512.773 454.404C514.298 454.078 515.872 454.056 517.405 454.338C518.939 454.621 520.401 455.202 521.71 456.05C523.019 456.898 524.147 457.995 525.032 459.279C525.917 460.563 526.54 462.008 526.866 463.533C527.192 465.058 527.214 466.632 526.932 468.165C526.649 469.699 526.068 471.161 525.22 472.47V472.48Z" fill="white"/>
<path d="M524.36 534.55C518.51 537.55 496.18 535.46 496.18 535.46C496.18 535.46 507.81 516.3 513.67 513.34C515.062 512.638 516.579 512.217 518.133 512.101C519.688 511.986 521.25 512.177 522.731 512.665C524.212 513.153 525.582 513.928 526.763 514.945C527.944 515.963 528.913 517.203 529.615 518.595C530.317 519.987 530.738 521.504 530.854 523.058C530.969 524.613 530.778 526.175 530.29 527.656C529.802 529.137 529.027 530.507 528.01 531.688C526.992 532.869 525.752 533.838 524.36 534.54V534.55Z" fill="white"/>
<path d="M513.14 581.37C507.87 585.27 485.52 587.03 485.52 587.03C485.52 587.03 493.75 566.18 499.02 562.28C500.273 561.353 501.697 560.682 503.21 560.305C504.723 559.928 506.295 559.853 507.837 560.084C509.379 560.314 510.86 560.846 512.197 561.65C513.533 562.453 514.698 563.512 515.625 564.765C516.552 566.018 517.223 567.442 517.6 568.955C517.977 570.468 518.052 572.04 517.822 573.582C517.591 575.124 517.059 576.605 516.255 577.942C515.452 579.278 514.393 580.443 513.14 581.37V581.37Z" fill="white"/>
<path d="M476.43 488.77C481.13 493.34 503.05 498.07 503.05 498.07C503.05 498.07 497.68 476.3 492.98 471.74C491.878 470.589 490.555 469.672 489.09 469.044C487.626 468.415 486.05 468.088 484.456 468.081C482.863 468.075 481.284 468.39 479.815 469.006C478.345 469.623 477.015 470.529 475.903 471.671C474.792 472.813 473.921 474.167 473.344 475.653C472.767 477.138 472.495 478.725 472.544 480.317C472.593 481.91 472.963 483.477 473.63 484.924C474.298 486.371 475.25 487.669 476.43 488.74V488.77Z" fill="white"/>
<path d="M464 543.68C469.85 546.68 492.18 544.59 492.18 544.59C492.18 544.59 480.54 525.43 474.73 522.48C473.338 521.778 471.821 521.357 470.267 521.241C468.712 521.126 467.15 521.317 465.669 521.805C464.189 522.293 462.819 523.068 461.637 524.085C460.456 525.103 459.487 526.343 458.785 527.735C458.083 529.127 457.662 530.644 457.546 532.198C457.431 533.753 457.622 535.315 458.11 536.796C458.598 538.276 459.373 539.647 460.39 540.828C461.408 542.009 462.648 542.978 464.04 543.68H464Z" fill="white"/>
<path d="M459.24 598.72C464.51 602.62 486.86 604.38 486.86 604.38C486.86 604.38 478.63 583.53 473.36 579.63C470.829 577.758 467.657 576.968 464.543 577.434C461.429 577.9 458.627 579.584 456.755 582.115C454.883 584.646 454.093 587.818 454.559 590.932C455.025 594.046 456.709 596.848 459.24 598.72V598.72Z" fill="white"/>
<path opacity="0.5" d="M505.6 436.16C505.6 442.72 493.73 461.73 493.73 461.73C493.73 461.73 481.86 442.73 481.86 436.16C481.86 434.601 482.167 433.056 482.764 431.616C483.361 430.175 484.235 428.866 485.338 427.763C486.441 426.66 487.75 425.786 489.191 425.189C490.631 424.592 492.176 424.285 493.735 424.285C495.294 424.285 496.839 424.592 498.279 425.189C499.72 425.786 501.029 426.66 502.132 427.763C503.235 428.866 504.109 430.175 504.706 431.616C505.303 433.056 505.61 434.601 505.61 436.16H505.6Z" fill="white"/>
<path opacity="0.5" d="M525.22 472.48C521.66 477.98 501.36 487.48 501.36 487.48C501.36 487.48 501.73 465.07 505.29 459.56C506.138 458.251 507.235 457.122 508.519 456.238C509.803 455.353 511.248 454.73 512.773 454.404C514.298 454.078 515.872 454.056 517.405 454.338C518.939 454.621 520.401 455.202 521.71 456.05C523.019 456.898 524.147 457.995 525.032 459.279C525.917 460.563 526.54 462.008 526.866 463.533C527.192 465.058 527.214 466.632 526.932 468.165C526.649 469.699 526.068 471.161 525.22 472.47V472.48Z" fill="white"/>
<path opacity="0.5" d="M524.36 534.55C518.51 537.55 496.18 535.46 496.18 535.46C496.18 535.46 507.81 516.3 513.67 513.34C515.062 512.638 516.579 512.217 518.133 512.101C519.688 511.986 521.25 512.177 522.731 512.665C524.212 513.153 525.582 513.928 526.763 514.945C527.944 515.963 528.913 517.203 529.615 518.595C530.317 519.987 530.738 521.504 530.854 523.058C530.969 524.613 530.778 526.175 530.29 527.656C529.802 529.137 529.027 530.507 528.01 531.688C526.992 532.869 525.752 533.838 524.36 534.54V534.55Z" fill="white"/>
<path opacity="0.5" d="M513.14 581.37C507.87 585.27 485.52 587.03 485.52 587.03C485.52 587.03 493.75 566.18 499.02 562.28C500.273 561.353 501.697 560.682 503.21 560.305C504.723 559.928 506.295 559.853 507.837 560.084C509.379 560.314 510.86 560.846 512.197 561.65C513.533 562.453 514.698 563.512 515.625 564.765C516.552 566.018 517.223 567.442 517.6 568.955C517.977 570.468 518.052 572.04 517.822 573.582C517.591 575.124 517.059 576.605 516.255 577.942C515.452 579.278 514.393 580.443 513.14 581.37V581.37Z" fill="white"/>
<path opacity="0.5" d="M476.43 488.77C481.13 493.34 503.05 498.07 503.05 498.07C503.05 498.07 497.68 476.3 492.98 471.74C491.878 470.589 490.555 469.672 489.09 469.044C487.626 468.415 486.05 468.088 484.456 468.081C482.863 468.075 481.284 468.39 479.815 469.006C478.345 469.623 477.015 470.529 475.903 471.671C474.792 472.813 473.921 474.167 473.344 475.653C472.767 477.138 472.495 478.725 472.544 480.317C472.593 481.91 472.963 483.477 473.63 484.924C474.298 486.371 475.25 487.669 476.43 488.74V488.77Z" fill="white"/>
<path opacity="0.5" d="M464 543.68C469.85 546.68 492.18 544.59 492.18 544.59C492.18 544.59 480.54 525.43 474.73 522.48C473.338 521.778 471.821 521.357 470.267 521.241C468.712 521.126 467.15 521.317 465.669 521.805C464.189 522.293 462.819 523.068 461.637 524.085C460.456 525.103 459.487 526.343 458.785 527.735C458.083 529.127 457.662 530.644 457.546 532.198C457.431 533.753 457.622 535.315 458.11 536.796C458.598 538.276 459.373 539.647 460.39 540.828C461.408 542.009 462.648 542.978 464.04 543.68H464Z" fill="white"/>
<path opacity="0.5" d="M459.24 598.72C464.51 602.62 486.86 604.38 486.86 604.38C486.86 604.38 478.63 583.53 473.36 579.63C470.829 577.758 467.657 576.968 464.543 577.434C461.429 577.9 458.627 579.584 456.755 582.115C454.883 584.646 454.093 587.818 454.559 590.932C455.025 594.046 456.709 596.848 459.24 598.72V598.72Z" fill="white"/>
<path d="M478.235 197.337L415.028 174C414.485 183.779 421.9 188.891 425.676 190.225C435.116 193.485 456.033 200.849 464.189 204.227C472.345 207.606 477.706 215.859 479.368 219.563L495 252.458C494.018 241.864 492.236 218.808 491.148 211.34C490.061 203.872 482.086 198.893 478.235 197.337Z" fill="#DADADA"/>
<path d="M463.056 207.117L424.77 193.114C428.032 204.139 434.889 209.265 437.91 210.451L478.235 225.342C476.423 216.274 467.361 209.414 463.056 207.117Z" fill="#DADADA"/>
<path d="M479.368 228.009L440.855 214.229C441.58 222.231 449.615 227.935 453.541 229.787L486.391 241.567C484.956 238.604 481.905 232.232 481.18 230.454C480.455 228.676 479.67 228.083 479.368 228.009Z" fill="#DADADA"/>
<path d="M523.765 197.337L586.972 174C587.515 183.779 580.1 188.891 576.324 190.225C566.884 193.485 545.967 200.849 537.811 204.227C529.655 207.606 524.294 215.859 522.632 219.563L507 252.458C507.982 241.864 509.764 218.808 510.852 211.34C511.939 203.872 519.914 198.893 523.765 197.337Z" fill="#DADADA"/>
<path d="M538.944 207.117L577.23 193.114C573.968 204.139 567.111 209.265 564.09 210.451L523.765 225.342C525.577 216.274 534.639 209.414 538.944 207.117Z" fill="#DADADA"/>
<path d="M522.632 228.009L561.145 214.229C560.42 222.231 552.385 227.935 548.459 229.787L515.609 241.567C517.044 238.604 520.095 232.232 520.82 230.454C521.545 228.676 522.33 228.083 522.632 228.009Z" fill="#DADADA"/>
<path d="M500.189 194.117L499.333 197.051V282.185L500.189 283.046L539.377 259.687L500.189 194.117Z" fill="#19A670"/>
<path d="M500.188 194.118L461 259.688L500.188 283.047V241.726V194.118Z" fill="#18DAA3"/>
<path d="M500.19 290.529L499.708 291.122V321.448L500.19 322.869L539.402 267.182L500.19 290.529Z" fill="#1AA670"/>
<path d="M500.189 322.869V290.528L461.001 267.181L500.189 322.869Z" fill="#18DAA3"/>
<path d="M500.191 283.046L539.379 259.688L500.191 241.726V283.046Z" fill="#137B54"/>
<path d="M461.001 259.687L500.188 283.046V241.725L461.001 259.687Z" fill="#147B55"/>
</g>
<defs>
<linearGradient id="paint0_linear" x1="636.93" y1="680.02" x2="636.93" y2="125.52" gradientUnits="userSpaceOnUse">
<stop stop-color="#808080" stop-opacity="0.25"/>
<stop offset="0.54" stop-color="#808080" stop-opacity="0.12"/>
<stop offset="1" stop-color="#808080" stop-opacity="0.1"/>
</linearGradient>
<linearGradient id="paint1_linear" x1="523.056" y1="781.33" x2="523.056" y2="781.304" gradientUnits="userSpaceOnUse">
<stop stop-color="#808080" stop-opacity="0.25"/>
<stop offset="0.54" stop-color="#808080" stop-opacity="0.12"/>
<stop offset="1" stop-color="#808080" stop-opacity="0.1"/>
</linearGradient>
<linearGradient id="paint2_linear" x1="2767.71" y1="1808.45" x2="2767.71" y2="1806.01" gradientUnits="userSpaceOnUse">
<stop stop-color="#808080" stop-opacity="0.25"/>
<stop offset="0.54" stop-color="#808080" stop-opacity="0.12"/>
<stop offset="1" stop-color="#808080" stop-opacity="0.1"/>
</linearGradient>
<linearGradient id="paint3_linear" x1="131213" y1="410410" x2="131213" y2="110705" gradientUnits="userSpaceOnUse">
<stop stop-color="#808080" stop-opacity="0.25"/>
<stop offset="0.54" stop-color="#808080" stop-opacity="0.12"/>
<stop offset="1" stop-color="#808080" stop-opacity="0.1"/>
</linearGradient>
<clipPath id="clip0">
<rect width="969.46" height="765.65" fill="white"/>
</clipPath>
</defs>
</svg>
