<svg width="250" height="194" viewBox="0 0 250 194" fill="none" xmlns="http://www.w3.org/2000/svg">
<path d="M243.482 27.9725C265.445 93.5462 230.102 164.513 164.541 186.48C98.9797 208.448 28.0265 173.099 6.06276 107.525C-15.901 41.9515 24.0618 73.6926 89.6232 51.7248C155.185 29.7569 221.518 -37.6012 243.482 27.9725Z" fill="url(#paint0_linear)"/>
<path d="M47.5157 82.9907C47.5157 82.9907 39.3609 90.7065 30.6087 90.9365C26.9334 91.0099 23.3811 92.2766 20.485 94.5465C19.1162 95.6314 17.8493 96.8398 16.7003 98.1565" stroke="#535461" stroke-width="2" stroke-miterlimit="10"/>
<path d="M11.1809 98.3457C12.3564 97.7468 16.8436 98.1445 16.8436 98.1445C16.8436 98.1445 14.5164 102.013 13.3409 102.612C13.0593 102.779 12.7465 102.887 12.4218 102.928C12.0971 102.969 11.7674 102.943 11.4532 102.851C11.139 102.759 10.847 102.603 10.5953 102.394C10.3436 102.184 10.1375 101.925 9.98991 101.632C9.8423 101.339 9.75627 101.019 9.73717 100.691C9.71806 100.364 9.76629 100.036 9.87885 99.7276C9.99142 99.4194 10.1659 99.1378 10.3915 98.9001C10.6172 98.6624 10.8891 98.4737 11.1904 98.3457H11.1809Z" fill="#22C88A"/>
<path d="M15.9048 91.5066C17.2166 91.6456 20.7672 94.4243 20.7672 94.4243C20.7672 94.4243 16.7053 96.403 15.4055 96.2664C14.7973 96.1743 14.2481 95.8507 13.8719 95.3628C13.4958 94.875 13.3218 94.2605 13.3862 93.6473C13.4505 93.0341 13.7482 92.4693 14.2173 92.0706C14.6865 91.6719 15.2909 91.4699 15.9048 91.5066V91.5066Z" fill="#22C88A"/>
<path d="M27.1061 85.9946C28.167 86.7779 29.8347 90.9748 29.8347 90.9748C29.8347 90.9748 25.3404 90.6322 24.2795 89.8513C23.8013 89.464 23.4905 88.9068 23.4115 88.2956C23.3326 87.6844 23.4916 87.0662 23.8556 86.5696C24.2196 86.0729 24.7605 85.7361 25.3659 85.629C25.9713 85.5219 26.5945 85.6528 27.1061 85.9946V85.9946Z" fill="#22C88A"/>
<path d="M36.5177 83.7405C37.6956 84.3322 40.0468 88.1865 40.0468 88.1865C40.0468 88.1865 35.5596 88.6105 34.3816 88.0188C34.0844 87.8887 33.8167 87.6993 33.5949 87.4621C33.373 87.2249 33.2017 86.945 33.0912 86.6393C32.9808 86.3336 32.9336 86.0085 32.9525 85.6839C32.9714 85.3593 33.056 85.042 33.2012 84.7513C33.3463 84.4605 33.549 84.2024 33.7969 83.9927C34.0447 83.7831 34.3326 83.6262 34.6428 83.5316C34.9531 83.437 35.2794 83.4068 35.6017 83.4427C35.924 83.4786 36.2357 83.5799 36.5177 83.7405V83.7405Z" fill="#22C88A"/>
<path d="M23.264 98.7865C23.6558 97.5241 22.5089 93.1547 22.5089 93.1547C22.5089 93.1547 19.0969 96.1059 18.7051 97.3684C18.5947 97.6731 18.5471 97.9971 18.5652 98.3207C18.5834 98.6444 18.6668 98.961 18.8106 99.2514C18.9544 99.5418 19.1554 99.7999 19.4016 100.01C19.6478 100.22 19.9339 100.378 20.2428 100.474C20.5516 100.57 20.8767 100.603 21.1983 100.569C21.5199 100.535 21.8314 100.437 22.1138 100.279C22.3963 100.121 22.6439 99.9075 22.8416 99.651C23.0393 99.3944 23.183 99.1003 23.264 98.7865V98.7865Z" fill="#22C88A"/>
<path d="M34.2381 96.0005C34.2381 94.6782 31.8369 90.855 31.8369 90.855C31.8369 90.855 29.4618 94.6878 29.4642 96.0149C29.4661 96.6502 29.7197 97.2588 30.1691 97.7067C30.6186 98.1545 31.2271 98.4051 31.8607 98.4032C32.4944 98.4013 33.1014 98.1471 33.5482 97.6965C33.9949 97.2459 34.2448 96.6359 34.2429 96.0005H34.2381Z" fill="#22C88A"/>
<path d="M44.534 91.842C44.7538 90.5388 43.0335 86.3635 43.0335 86.3635C43.0335 86.3635 40.0444 89.7459 39.827 91.0491C39.7535 91.6604 39.9178 92.2767 40.2855 92.7698C40.6533 93.263 41.1964 93.5953 41.8021 93.6976C42.4078 93.7999 43.0295 93.6645 43.5382 93.3194C44.0469 92.9743 44.4035 92.4461 44.534 91.8444V91.842Z" fill="#22C88A"/>
<path d="M58.1128 62.5573C58.1128 62.5573 48.2902 57.1484 45.3704 48.8624C44.1709 45.3781 41.8761 42.3781 38.8308 40.313C37.3775 39.3435 35.8387 38.5096 34.2336 37.8217" stroke="#535461" stroke-width="2" stroke-miterlimit="10"/>
<path d="M32.37 32.6115C33.2994 33.5481 34.3006 37.9534 34.3006 37.9534C34.3006 37.9534 29.9137 36.9234 28.9843 35.9843C28.5738 35.5274 28.3544 34.9296 28.3714 34.3149C28.3884 33.7002 28.6406 33.1156 29.0757 32.6821C29.5108 32.2487 30.0955 31.9996 30.7088 31.9864C31.322 31.9733 31.9168 32.1971 32.37 32.6115V32.6115Z" fill="#22C88A"/>
<path d="M40.3144 35.0142C40.5867 36.3077 39.0408 40.5501 39.0408 40.5501C39.0408 40.5501 35.918 37.2947 35.6456 35.9987C35.5647 35.6853 35.5481 35.3587 35.5966 35.0387C35.6452 34.7186 35.758 34.4118 35.9281 34.1366C36.0983 33.8615 36.3223 33.6238 36.5866 33.4379C36.8509 33.252 37.1501 33.1217 37.4661 33.0549C37.7821 32.9882 38.1082 32.9863 38.4249 33.0495C38.7416 33.1126 39.0423 33.2395 39.3087 33.4224C39.5751 33.6053 39.8018 33.8404 39.9751 34.1136C40.1483 34.3868 40.2646 34.6923 40.3167 35.0118L40.3144 35.0142Z" fill="#22C88A"/>
<path d="M48.9875 44.0188C48.5717 45.2716 45.1 48.1534 45.1 48.1534C45.1 48.1534 44.0439 43.7625 44.4597 42.5072C44.6596 41.9037 45.0905 41.4045 45.6575 41.1194C46.2246 40.8344 46.8814 40.7869 47.4834 40.9873C48.0854 41.1877 48.5833 41.6197 48.8676 42.1882C49.152 42.7568 49.1994 43.4152 48.9994 44.0188H48.9875Z" fill="#22C88A"/>
<path d="M54.0243 52.2951C53.826 53.6007 50.8895 57.0286 50.8895 57.0286C50.8895 57.0286 49.107 52.8796 49.3053 51.5741C49.3384 51.2514 49.4364 50.9389 49.5935 50.6554C49.7506 50.3718 49.9636 50.1233 50.2194 49.9247C50.4752 49.7261 50.7685 49.5817 51.0816 49.5002C51.3948 49.4187 51.7211 49.4017 52.041 49.4504C52.3608 49.4992 52.6675 49.6125 52.9423 49.7835C53.2172 49.9546 53.4546 50.1798 53.64 50.4456C53.8254 50.7114 53.9551 51.0121 54.0212 51.3296C54.0872 51.6471 54.0883 51.9748 54.0243 52.2927V52.2951Z" fill="#22C88A"/>
<path d="M35.6645 44.2751C36.9835 44.2607 40.7778 41.8221 40.7778 41.8221C40.7778 41.8221 36.9285 39.4746 35.6096 39.4889C34.9759 39.4962 34.371 39.7556 33.9281 40.21C33.4852 40.6644 33.2404 41.2766 33.2477 41.9119C33.255 42.5473 33.5137 43.1537 33.967 43.5977C34.4202 44.0418 35.0309 44.2872 35.6645 44.2799V44.2751Z" fill="#22C88A"/>
<path d="M41.6763 53.8905C42.9283 53.4809 45.8218 50.017 45.8218 50.017C45.8218 50.017 41.4469 48.9319 40.1949 49.3415C39.8859 49.4299 39.5979 49.5799 39.3481 49.7824C39.0983 49.985 38.8918 50.236 38.7409 50.5204C38.5901 50.8048 38.498 51.1168 38.4702 51.4377C38.4424 51.7587 38.4794 52.0819 38.5791 52.3881C38.6788 52.6944 38.839 52.9773 39.0503 53.22C39.2615 53.4627 39.5195 53.6602 39.8086 53.8007C40.0977 53.9412 40.4122 54.0217 40.7331 54.0376C41.054 54.0534 41.3748 54.0042 41.6763 53.8929V53.8905Z" fill="#22C88A"/>
<path d="M48.7965 62.4328C50.1011 62.2411 53.537 59.3187 53.537 59.3187C53.537 59.3187 49.4082 57.5077 48.106 57.6993C47.7853 57.7325 47.4746 57.8303 47.1926 57.987C46.9106 58.1437 46.6632 58.356 46.4652 58.6112C46.2672 58.8663 46.1228 59.1589 46.0406 59.4715C45.9584 59.784 45.9401 60.11 45.9869 60.4298C46.0337 60.7496 46.1446 61.0567 46.3128 61.3324C46.4811 61.6081 46.7033 61.8468 46.966 62.0342C47.2287 62.2215 47.5266 62.3537 47.8416 62.4226C48.1566 62.4915 48.4822 62.4958 48.7989 62.4352L48.7965 62.4328Z" fill="#22C88A"/>
<path d="M125.71 193.801C173.479 193.801 212.204 154.976 212.204 107.084C212.204 59.1924 173.479 20.3683 125.71 20.3683C77.9403 20.3683 39.2154 59.1924 39.2154 107.084C39.2154 154.976 77.9403 193.801 125.71 193.801Z" fill="url(#paint1_linear)"/>
<path d="M125.709 192.363C172.687 192.363 210.77 154.183 210.77 107.084C210.77 59.9862 172.687 21.8055 125.709 21.8055C78.7316 21.8055 40.6486 59.9862 40.6486 107.084C40.6486 154.183 78.7316 192.363 125.709 192.363Z" fill="#152E4D"/>
<path d="M125.709 174.876C163.054 174.876 193.328 144.525 193.328 107.084C193.328 69.6439 163.054 39.2925 125.709 39.2925C88.3647 39.2925 58.0909 69.6439 58.0909 107.084C58.0909 144.525 88.3647 174.876 125.709 174.876Z" fill="#DDE1EC"/>
<path opacity="0.3" d="M127.621 51.2699H123.798V111.157H127.621V51.2699Z" fill="#535461"/>
<g opacity="0.1">
<path opacity="0.1" d="M183.771 105.647H129.771V110.438H183.771V105.647Z" fill="black"/>
<path opacity="0.1" d="M91.6475 87.7228L89.4306 91.967L123.407 109.805L125.624 105.561L91.6475 87.7228Z" fill="black"/>
<path opacity="0.1" d="M125.71 115.229C129.668 115.229 132.878 112.012 132.878 108.043C132.878 104.074 129.668 100.856 125.71 100.856C121.751 100.856 118.542 104.074 118.542 108.043C118.542 112.012 121.751 115.229 125.71 115.229Z" fill="black"/>
</g>
<path d="M183.771 104.689H129.772V109.48H183.771V104.689Z" fill="#535461"/>
<path d="M125.64 104.609L91.6632 86.7701L89.4463 91.0143L123.423 108.853L125.64 104.609Z" fill="#535461"/>
<path d="M125.71 114.271C129.668 114.271 132.878 111.053 132.878 107.084C132.878 103.115 129.668 99.8979 125.71 99.8979C121.751 99.8979 118.542 103.115 118.542 107.084C118.542 111.053 121.751 114.271 125.71 114.271Z" fill="#535461"/>
<g opacity="0.1">
<path opacity="0.1" d="M63.3431 115.229C63.3431 77.7877 93.6161 47.4371 130.962 47.4371C141.444 47.4278 151.784 49.8655 161.163 54.5572C170.542 59.2489 178.703 66.0657 184.999 74.4676C173.492 53.5024 151.271 39.2925 125.705 39.2925C88.3595 39.2925 58.0865 69.6431 58.0865 107.084C58.0645 121.793 62.836 136.106 71.6747 147.846C66.1933 137.854 63.3269 126.632 63.3431 115.229V115.229Z" fill="black"/>
</g>
<path opacity="0.05" d="M150.153 77.9842C150.153 77.9842 155.5 79.9533 158.993 78.4226L160.74 78.5328C160.74 78.5328 163.643 80.5737 166.713 79.661" fill="black"/>
<path opacity="0.05" d="M175.473 74.7024C175.473 74.7024 174.601 76.7817 175.035 77.438Z" fill="black"/>
<path opacity="0.05" d="M140.657 74.046C140.657 74.046 141.095 76.1253 140.657 76.7816Z" fill="black"/>
<path d="M231.171 121.426C231.171 121.426 221.173 131.449 226.817 146.32C232.461 161.191 217.145 185.922 217.145 185.922C217.145 185.922 217.31 185.898 217.623 185.845C238.155 182.211 248.355 158.671 236.938 141.182C232.683 134.678 229.199 127.051 231.171 121.426Z" fill="#22C88A"/>
<path opacity="0.1" d="M231.171 121.594C231.171 121.594 221.173 131.616 226.817 146.488C232.461 161.359 217.145 186.087 217.145 186.087C217.145 186.087 217.31 186.063 217.623 186.01C238.155 182.376 248.355 158.836 236.938 141.347C232.683 134.846 229.199 127.218 231.171 121.594Z" fill="black"/>
<path d="M231.171 121.426C231.171 121.426 225.527 133.71 231.171 143.733C236.814 153.755 232.126 181.881 217.143 185.922" stroke="#535461" stroke-miterlimit="10"/>
<path d="M248.976 161.962C248.976 161.962 237.569 160.142 236.53 170.39C235.491 180.637 214.589 182.058 214.589 182.058L214.981 182.319C232.232 193.674 248.725 189.551 246.238 174.474C245.32 168.871 245.397 163.241 248.976 161.962Z" fill="#22C88A"/>
<path d="M248.976 161.962C248.976 161.962 240.121 163.91 240.852 171.983C241.583 180.055 227.711 189.731 214.598 182.06" stroke="#535461" stroke-miterlimit="10"/>
<path d="M238.941 182.432C238.941 182.432 229.957 180.63 227.561 178.228C225.164 175.825 214.383 171.623 213.186 174.634C211.989 177.645 197.015 187.845 207.196 189.647C217.377 191.448 231.154 192.042 234.148 190.844C237.142 189.647 238.941 182.432 238.941 182.432Z" fill="#A8A8A8"/>
<path opacity="0.2" d="M207.196 188.523C217.379 190.325 231.154 190.919 234.148 189.721C236.43 188.806 238.014 184.413 238.64 182.367L238.938 182.429C238.938 182.429 237.142 189.635 234.148 190.835C231.154 192.035 217.377 191.436 207.196 189.637C204.257 189.117 203.416 187.896 203.734 186.351C203.982 187.359 205.007 188.135 207.196 188.523Z" fill="black"/>
<defs>
<linearGradient id="paint0_linear" x1="235.339" y1="-20.4155" x2="19.7953" y2="134.385" gradientUnits="userSpaceOnUse">
<stop stop-color="#22C88A"/>
<stop offset="1" stop-color="#1BF2A0"/>
</linearGradient>
<linearGradient id="paint1_linear" x1="125.71" y1="193.801" x2="125.71" y2="20.3683" gradientUnits="userSpaceOnUse">
<stop stop-color="#808080" stop-opacity="0.25"/>
<stop offset="0.54" stop-color="#808080" stop-opacity="0.12"/>
<stop offset="1" stop-color="#808080" stop-opacity="0.1"/>
</linearGradient>
</defs>
</svg>
