<svg xmlns="http://www.w3.org/2000/svg" xmlns:xlink="http://www.w3.org/1999/xlink" width="28" height="28" version="1.1" viewBox="0 0 28 28"><title>knc</title><desc>Created with Sketch.</desc><defs><linearGradient id="linearGradient-1" x1="50%" x2="50%" y1="0%" y2="100%"><stop offset="0%" stop-color="#31CB9E"/><stop offset="4%" stop-color="#2FC99E"/><stop offset="63%" stop-color="#18B2A1"/><stop offset="100%" stop-color="#0FAAA2"/></linearGradient><polygon id="path-2" points="0 .41 5.861 .41 5.861 18.546 0 18.546"/><path id="path-4" d="M3.95742049,9.47803893 L5.85185579,0.861228558 C5.92601535,0.523709708 5.53027643,0.2783215 5.24947534,0.487747243 L0.395580551,4.10735074 C0.1463115,4.29323405 -1.61184211e-05,4.58218503 -1.61184211e-05,4.88865382 L-1.61184211e-05,14.0677948 C-1.61184211e-05,14.3743099 0.1463115,14.6633072 0.395627968,14.8491905 L5.24933309,18.4684233 C5.53013418,18.6778027 5.9258731,18.4324145 5.85166613,18.0948956 L3.95742049,9.47803893 Z"/></defs><g id="IOS?-(for-Mike-Le)" fill="none" fill-rule="evenodd" stroke="none" stroke-width="1"><g id="Artboard-2-Copy" transform="translate(-522.000000, -119.000000)"><g id="knc" transform="translate(522.000000, 119.000000)"><circle id="Oval-2" cx="14" cy="14" r="14" fill="url(#linearGradient-1)"/><g id="Group" stroke-width="1" transform="translate(7.000000, 4.666667)"><g id="Group-2"><path id="Fill-1" fill="#FFF" d="M5.81187412,9.47833089 L13.0542377,13.5395868 C13.3076794,13.681722 13.6236637,13.5028829 13.6236637,13.2172686 L13.6236637,5.73628818 C13.6236637,5.45062757 13.3075846,5.27178846 13.0540955,5.41406264 L5.81187412,9.47833089 Z"/><path id="Fill-4" fill="#FFF" d="M12.638655,3.66782548 L7.82269346,0.0764914379 C7.60106828,-0.088769062 7.27887251,0.0275064832 7.22031301,0.293841899 L5.46248492,8.28955827 L12.5973551,4.28553641 C12.833063,4.15322606 12.8547324,3.82896141 12.638655,3.66782548"/><path id="Fill-6" fill="#FFF" d="M7.82248957,18.8796096 L12.6420547,15.2860511 C12.8581796,15.1249151 12.8364628,14.8005578 12.6006601,14.6682938 L5.4621862,10.6652915 L7.22015653,18.6622591 C7.27871603,18.9285945 7.60086439,19.0448237 7.82248957,18.8796096"/><mask id="mask-3" fill="#fff"><use xlink:href="#path-2"/></mask><mask id="mask-5" fill="#fff"><use xlink:href="#path-4"/></mask><use id="Fill-8" fill="#FFF" xlink:href="#path-4"/></g></g></g></g></g></svg>